<svg xmlns="http://www.w3.org/2000/svg" width="101" height="100" viewBox="0 0 101 100" fill="none">
  <rect width="100" height="100" transform="translate(0.5)" fill="#181818"/>
  <rect width="40" height="40" transform="matrix(0.866025 0.5 -0.866025 0.5 50.141 46)" fill="url(#paint0_linear_403_38734)"/>
  <rect width="40" height="40" transform="matrix(0.866025 0.5 -0.866025 0.5 50.141 38)" fill="url(#paint1_linear_403_38734)"/>
  <rect width="40" height="40" transform="matrix(0.866025 0.5 -0.866025 0.5 50.141 30)" fill="url(#paint2_linear_403_38734)"/>
  <rect width="40" height="40" transform="matrix(0.866025 0.5 -0.866025 0.5 50.141 22)" fill="url(#paint3_linear_403_38734)"/>
  <rect width="40" height="40" transform="matrix(0.866025 0.5 -0.866025 0.5 50.141 14)" fill="url(#paint4_linear_403_38734)"/>
  <defs>
    <linearGradient id="paint0_linear_403_38734" x1="44.7073" y1="44.2927" x2="8.70727" y2="44.2927" gradientUnits="userSpaceOnUse">
      <stop stop-color="#F7F7F7" stop-opacity="0.85"/>
      <stop offset="1" stop-color="#3F3F3F" stop-opacity="0.83"/>
    </linearGradient>
    <linearGradient id="paint1_linear_403_38734" x1="44.2073" y1="43.7927" x2="2.57054" y2="45.4557" gradientUnits="userSpaceOnUse">
      <stop stop-color="white"/>
      <stop offset="1" stop-color="#3F3F3F"/>
    </linearGradient>
    <linearGradient id="paint2_linear_403_38734" x1="43.2073" y1="42.7927" x2="2.57041" y2="44.4541" gradientUnits="userSpaceOnUse">
      <stop stop-color="white"/>
      <stop offset="1" stop-color="#3F3F3F"/>
    </linearGradient>
    <linearGradient id="paint3_linear_403_38734" x1="44.1299" y1="44.8701" x2="1.41849" y2="45.4397" gradientUnits="userSpaceOnUse">
      <stop stop-color="white"/>
      <stop offset="1" stop-color="#3F3F3F"/>
    </linearGradient>
    <linearGradient id="paint4_linear_403_38734" x1="40.2073" y1="39.7927" x2="-0.0041671" y2="40.3619" gradientUnits="userSpaceOnUse">
      <stop stop-color="white"/>
      <stop offset="1" stop-color="#3F3F3F"/>
    </linearGradient>
  </defs>
</svg>