<svg width="101" height="100" viewBox="0 0 101 100" fill="none" xmlns="http://www.w3.org/2000/svg">
<rect width="100" height="100" transform="translate(0.5)" fill="#181818"/>
<path d="M50.5 18C46.2977 18 42.1365 18.8277 38.2541 20.4359C34.3717 22.044 30.8441 24.4011 27.8726 27.3726C24.9011 30.3441 22.544 33.8717 20.9359 37.7541C19.3277 41.6366 18.5 45.7977 18.5 50H19.4846C19.4846 45.927 20.2869 41.8939 21.8455 38.1309C23.4042 34.368 25.6888 30.9489 28.5688 28.0688C31.4489 25.1888 34.868 22.9042 38.6309 21.3455C42.3939 19.7869 46.427 18.9846 50.5 18.9846C54.573 18.9846 58.6061 19.7869 62.3691 21.3455C66.132 22.9042 69.5511 25.1888 72.4312 28.0688C75.3112 30.9489 77.5958 34.368 79.1545 38.1309C80.7131 41.8939 81.5154 45.927 81.5154 50H82.5C82.5 45.7977 81.6723 41.6365 80.0641 37.7541C78.456 33.8717 76.0989 30.3441 73.1274 27.3726C70.1559 24.4011 66.6283 22.044 62.7459 20.4359C58.8634 18.8277 54.7023 18 50.5 18Z" fill="url(#paint0_linear_261_43411)"/>
<path d="M50.5 21.9385C43.0576 21.9385 35.9201 24.8949 30.6575 30.1575C25.3949 35.4201 22.4385 42.5576 22.4385 50H23.4231C23.4231 42.8188 26.2758 35.9316 31.3537 30.8537C36.4316 25.7758 43.3188 22.9231 50.5 22.9231C57.6813 22.9231 64.5684 25.7758 69.6463 30.8537C74.7242 35.9316 77.5769 42.8188 77.5769 50H78.5615C78.5615 42.5576 75.6051 35.4201 70.3425 30.1575C65.0799 24.8949 57.9424 21.9385 50.5 21.9385Z" fill="url(#paint1_linear_261_43411)"/>
<path d="M33.4424 32.9424C37.9664 28.4185 44.1022 25.8769 50.5 25.8769C56.8978 25.8769 63.0336 28.4185 67.5576 32.9424C72.0815 37.4664 74.6231 43.6022 74.6231 50H73.6385C73.6385 43.8633 71.2007 37.9779 66.8614 33.6386C62.5221 29.2993 56.6367 26.8615 50.5 26.8615C44.3633 26.8615 38.4779 29.2993 34.1386 33.6386C29.7993 37.9779 27.3615 43.8633 27.3615 50H26.3769C26.3769 43.6022 28.9185 37.4664 33.4424 32.9424Z" fill="url(#paint2_linear_261_43411)"/>
<path d="M50.5 29.8154C45.1467 29.8154 40.0127 31.942 36.2273 35.7273C32.442 39.5127 30.3154 44.6467 30.3154 50H31.3C31.3 44.9078 33.3229 40.0242 36.9235 36.4235C40.5242 32.8229 45.4078 30.8 50.5 30.8C55.5922 30.8 60.4757 32.8229 64.0765 36.4235C67.6771 40.0242 69.7 44.9078 69.7 50H70.6846C70.6846 44.6467 68.558 39.5127 64.7727 35.7273C60.9873 31.942 55.8533 29.8154 50.5 29.8154Z" fill="url(#paint3_linear_261_43411)"/>
<path d="M39.0122 38.5122C42.059 35.4655 46.1913 33.7538 50.5 33.7538C54.8088 33.7538 58.941 35.4655 61.9878 38.5122C65.0345 41.559 66.7462 45.6913 66.7462 50H65.7615C65.7615 45.9524 64.1536 42.0706 61.2915 39.2085C58.4294 36.3464 54.5476 34.7385 50.5 34.7385C46.4524 34.7385 42.5706 36.3464 39.7085 39.2085C36.8464 42.0706 35.2385 45.9524 35.2385 50H34.2538C34.2538 45.6912 35.9655 41.559 39.0122 38.5122Z" fill="url(#paint4_linear_261_43411)"/>
<path d="M50.5 37.6923C47.2358 37.6923 44.1053 38.989 41.7971 41.2971C39.489 43.6053 38.1923 46.7358 38.1923 50H39.1769C39.1769 46.9969 40.3699 44.1169 42.4934 41.9934C44.6169 39.8699 47.4969 38.6769 50.5 38.6769C53.5031 38.6769 56.3831 39.8699 58.5066 41.9934C60.6301 44.1169 61.8231 46.9969 61.8231 50H62.8077C62.8077 46.7358 61.511 43.6053 59.2029 41.2971C56.8947 38.989 53.7642 37.6923 50.5 37.6923Z" fill="url(#paint5_linear_261_43411)"/>
<path d="M50.5 82C46.2977 82 42.1365 81.1723 38.2541 79.5641C34.3717 77.956 30.8441 75.5989 27.8726 72.6274C24.9011 69.6559 22.544 66.1283 20.9359 62.2459C19.3277 58.3635 18.5 54.2023 18.5 50H19.4846C19.4846 54.073 20.2869 58.1061 21.8455 61.8691C23.4042 65.632 25.6888 69.0511 28.5688 71.9312C31.4489 74.8112 34.868 77.0958 38.6309 78.6545C42.3939 80.2132 46.427 81.0154 50.5 81.0154C54.573 81.0154 58.6061 80.2132 62.3691 78.6545C66.132 77.0958 69.5511 74.8112 72.4312 71.9312C75.3112 69.0511 77.5958 65.632 79.1545 61.8691C80.7131 58.1061 81.5154 54.073 81.5154 50H82.5C82.5 54.2023 81.6723 58.3635 80.0641 62.2459C78.456 66.1283 76.0989 69.6559 73.1274 72.6274C70.1559 75.5989 66.6283 77.956 62.7459 79.5641C58.8634 81.1723 54.7023 82 50.5 82Z" fill="url(#paint6_linear_261_43411)"/>
<path d="M50.5 78.0615C43.0576 78.0615 35.9201 75.1051 30.6575 69.8425C25.3949 64.58 22.4385 57.4424 22.4385 50H23.4231C23.4231 57.1813 26.2758 64.0684 31.3537 69.1463C36.4316 74.2242 43.3188 77.0769 50.5 77.0769C57.6813 77.0769 64.5684 74.2242 69.6463 69.1463C74.7242 64.0684 77.5769 57.1813 77.5769 50H78.5615C78.5615 57.4424 75.6051 64.5799 70.3425 69.8425C65.0799 75.1051 57.9424 78.0615 50.5 78.0615Z" fill="url(#paint7_linear_261_43411)"/>
<path d="M33.4424 67.0576C37.9664 71.5816 44.1022 74.1231 50.5 74.1231C56.8978 74.1231 63.0336 71.5815 67.5576 67.0576C72.0815 62.5336 74.6231 56.3978 74.6231 50H73.6385C73.6385 56.1367 71.2007 62.0221 66.8614 66.3614C62.5221 70.7007 56.6367 73.1385 50.5 73.1385C44.3633 73.1385 38.4779 70.7007 34.1386 66.3614C29.7993 62.0221 27.3615 56.1367 27.3615 50H26.3769C26.3769 56.3978 28.9185 62.5336 33.4424 67.0576Z" fill="url(#paint8_linear_261_43411)"/>
<path d="M50.5 70.1846C45.1467 70.1846 40.0127 68.058 36.2273 64.2727C32.442 60.4873 30.3154 55.3533 30.3154 50H31.3C31.3 55.0922 33.3229 59.9758 36.9235 63.5765C40.5242 67.1772 45.4078 69.2 50.5 69.2C55.5922 69.2 60.4757 67.1772 64.0765 63.5765C67.6771 59.9758 69.7 55.0922 69.7 50H70.6846C70.6846 55.3533 68.558 60.4873 64.7727 64.2727C60.9873 68.058 55.8533 70.1846 50.5 70.1846Z" fill="url(#paint9_linear_261_43411)"/>
<path d="M39.0122 61.4878C42.059 64.5345 46.1913 66.2462 50.5 66.2462C54.8088 66.2462 58.941 64.5345 61.9878 61.4878C65.0345 58.441 66.7462 54.3088 66.7462 50H65.7615C65.7615 54.0476 64.1536 57.9294 61.2915 60.7915C58.4294 63.6536 54.5476 65.2615 50.5 65.2615C46.4524 65.2615 42.5706 63.6536 39.7085 60.7915C36.8464 57.9294 35.2385 54.0476 35.2385 50H34.2538C34.2538 54.3088 35.9655 58.441 39.0122 61.4878Z" fill="url(#paint10_linear_261_43411)"/>
<path d="M50.5 62.3077C47.2358 62.3077 44.1053 61.011 41.7971 58.7029C39.489 56.3947 38.1923 53.2642 38.1923 50H39.1769C39.1769 53.0031 40.3699 55.8831 42.4934 58.0066C44.6169 60.1301 47.4969 61.3231 50.5 61.3231C53.5031 61.3231 56.3831 60.1301 58.5066 58.0066C60.6301 55.8831 61.8231 53.0031 61.8231 50H62.8077C62.8077 53.2642 61.511 56.3947 59.2029 58.7029C56.8947 61.011 53.7642 62.3077 50.5 62.3077Z" fill="url(#paint11_linear_261_43411)"/>
<defs>
<linearGradient id="paint0_linear_261_43411" x1="50.5" y1="18" x2="50.5" y2="51.4769" gradientUnits="userSpaceOnUse">
<stop stop-color="white"/>
<stop offset="1" stop-color="white" stop-opacity="0"/>
</linearGradient>
<linearGradient id="paint1_linear_261_43411" x1="50.5" y1="18" x2="50.5" y2="51.4769" gradientUnits="userSpaceOnUse">
<stop stop-color="white"/>
<stop offset="1" stop-color="white" stop-opacity="0"/>
</linearGradient>
<linearGradient id="paint2_linear_261_43411" x1="50.5" y1="18" x2="50.5" y2="51.4769" gradientUnits="userSpaceOnUse">
<stop stop-color="white"/>
<stop offset="1" stop-color="white" stop-opacity="0"/>
</linearGradient>
<linearGradient id="paint3_linear_261_43411" x1="50.5" y1="18" x2="50.5" y2="51.4769" gradientUnits="userSpaceOnUse">
<stop stop-color="white"/>
<stop offset="1" stop-color="white" stop-opacity="0"/>
</linearGradient>
<linearGradient id="paint4_linear_261_43411" x1="50.5" y1="18" x2="50.5" y2="51.4769" gradientUnits="userSpaceOnUse">
<stop stop-color="white"/>
<stop offset="1" stop-color="white" stop-opacity="0"/>
</linearGradient>
<linearGradient id="paint5_linear_261_43411" x1="50.5" y1="18" x2="50.5" y2="51.4769" gradientUnits="userSpaceOnUse">
<stop stop-color="white"/>
<stop offset="1" stop-color="white" stop-opacity="0"/>
</linearGradient>
<linearGradient id="paint6_linear_261_43411" x1="50.5" y1="82" x2="50.5" y2="48.5231" gradientUnits="userSpaceOnUse">
<stop stop-color="white"/>
<stop offset="1" stop-color="white" stop-opacity="0"/>
</linearGradient>
<linearGradient id="paint7_linear_261_43411" x1="50.5" y1="82" x2="50.5" y2="48.5231" gradientUnits="userSpaceOnUse">
<stop stop-color="white"/>
<stop offset="1" stop-color="white" stop-opacity="0"/>
</linearGradient>
<linearGradient id="paint8_linear_261_43411" x1="50.5" y1="82" x2="50.5" y2="48.5231" gradientUnits="userSpaceOnUse">
<stop stop-color="white"/>
<stop offset="1" stop-color="white" stop-opacity="0"/>
</linearGradient>
<linearGradient id="paint9_linear_261_43411" x1="50.5" y1="82" x2="50.5" y2="48.5231" gradientUnits="userSpaceOnUse">
<stop stop-color="white"/>
<stop offset="1" stop-color="white" stop-opacity="0"/>
</linearGradient>
<linearGradient id="paint10_linear_261_43411" x1="50.5" y1="82" x2="50.5" y2="48.5231" gradientUnits="userSpaceOnUse">
<stop stop-color="white"/>
<stop offset="1" stop-color="white" stop-opacity="0"/>
</linearGradient>
<linearGradient id="paint11_linear_261_43411" x1="50.5" y1="82" x2="50.5" y2="48.5231" gradientUnits="userSpaceOnUse">
<stop stop-color="white"/>
<stop offset="1" stop-color="white" stop-opacity="0"/>
</linearGradient>
</defs>
</svg>
