<svg width="101" height="100" viewBox="0 0 101 100" fill="none" xmlns="http://www.w3.org/2000/svg">
<rect width="100" height="100" transform="translate(0.5)" fill="#181818"/>
<path fill-rule="evenodd" clip-rule="evenodd" d="M10.5192 17.0155C10.5064 17.2526 10.5 17.4906 10.5 17.7294C10.5 17.9683 10.5064 18.2062 10.5192 18.4433C10.5064 18.6803 10.5 18.9183 10.5 19.1572C10.5 31.7729 28.4086 42.0001 50.5 42.0001C72.5914 42.0001 90.5 31.7729 90.5 19.1572C90.5 18.9183 90.4936 18.6803 90.4808 18.4433C90.4936 18.2062 90.5 17.9682 90.5 17.7294C90.5 17.4906 90.4936 17.2526 90.4808 17.0155C90.4936 16.7785 90.5 16.5405 90.5 16.3017C90.5 16.0629 90.4936 15.825 90.4808 15.588C90.4936 15.351 90.5 15.1131 90.5 14.8743C90.5 14.6354 90.4936 14.3974 90.4808 14.1603C90.4936 13.9231 90.5 13.6851 90.5 13.4462C90.5 13.2074 90.4936 12.9695 90.4808 12.7325C90.4936 12.4955 90.5 12.2576 90.5 12.0189C90.5 11.78 90.4936 11.5421 90.4808 11.305C90.4854 11.2193 90.4892 11.1335 90.4922 11.0476C88.6661 12.87 86.4664 14.5539 83.9529 16.0651C82.3677 17.5431 80.4684 18.9196 78.2884 20.1646C71.2266 24.1974 61.404 26.7235 50.5 26.7235C39.596 26.7235 29.7734 24.1974 22.7116 20.1646C19.9922 18.6116 17.7095 16.8538 15.9286 14.9499C22.8635 21.7357 35.7493 26.2954 50.5 26.2954C64.2809 26.2954 76.4341 22.3156 83.6276 16.2587C81.5013 17.5113 79.1569 18.6418 76.6295 19.6302C69.7258 23.139 60.5745 25.2954 50.5 25.2954C39.596 25.2954 29.7734 22.7693 22.7116 18.7365C22.1053 18.3902 21.5207 18.0338 20.9585 17.6678C16.6929 15.5188 13.1356 12.9196 10.5131 10C10.5044 10.1964 10.5 10.3935 10.5 10.5911C10.5 10.83 10.5064 11.0679 10.5192 11.305C10.5064 11.5421 10.5 11.78 10.5 12.0189C10.5 12.2576 10.5064 12.4955 10.5191 12.7325C10.5064 12.9695 10.5 13.2074 10.5 13.4462C10.5 13.6851 10.5064 13.9231 10.5192 14.1603C10.5064 14.3974 10.5 14.6354 10.5 14.8743C10.5 15.1131 10.5064 15.351 10.5191 15.588C10.5064 15.825 10.5 16.0629 10.5 16.3017C10.5 16.5405 10.5064 16.7785 10.5192 17.0155ZM15.9372 16.3864C22.8742 23.1676 35.7554 27.7235 50.5 27.7235C65.2446 27.7235 78.1258 23.1676 85.0628 16.3864C83.2831 18.2868 81.0034 20.0414 78.2884 21.5919C71.2266 25.6247 61.404 28.1508 50.5 28.1508C39.596 28.1508 29.7734 25.6247 22.7116 21.5919C19.9966 20.0414 17.7169 18.2868 15.9372 16.3864ZM22.7116 23.0197C19.9944 21.4679 17.7132 19.7117 15.9328 17.8095C22.8688 24.593 35.7524 29.1508 50.5 29.1508C65.2476 29.1508 78.1312 24.5931 85.0671 17.8096C83.2868 19.7117 81.0056 21.4679 78.2884 23.0197C71.2266 27.0525 61.404 29.5786 50.5 29.5786C39.596 29.5786 29.7734 27.0525 22.7116 23.0197ZM15.9329 19.2373C17.7132 21.1394 19.9944 22.8957 22.7116 24.4474C29.7734 28.4802 39.596 31.0063 50.5 31.0063C61.404 31.0063 71.2266 28.4802 78.2884 24.4474C81.0056 22.8957 83.2868 21.1395 85.0671 19.2373C78.1312 26.0208 65.2476 30.5786 50.5 30.5786C35.7524 30.5786 22.8688 26.0208 15.9329 19.2373ZM22.7116 25.8751C19.9944 24.3234 17.7131 22.5672 15.9328 20.665C22.8688 27.4485 35.7524 32.0063 50.5 32.0063C65.2476 32.0063 78.1312 27.4486 85.0671 20.665C83.2868 22.5672 81.0056 24.3234 78.2884 25.8751C71.2266 29.9079 61.404 32.434 50.5 32.434C39.596 32.434 29.7734 29.9079 22.7116 25.8751ZM15.9329 22.0927C17.7132 23.9949 19.9944 25.7511 22.7116 27.3029C29.7734 31.3357 39.596 33.8618 50.5 33.8618C61.404 33.8618 71.2266 31.3357 78.2884 27.3029C81.0056 25.7511 83.2868 23.9949 85.0671 22.0928C78.1311 28.8763 65.2476 33.434 50.5 33.434C35.7524 33.434 22.8688 28.8763 15.9329 22.0927ZM22.7116 28.7302C19.9966 27.1797 17.7169 25.4251 15.9372 23.5247C22.8742 30.3059 35.7555 34.8618 50.5 34.8618C65.2445 34.8618 78.1258 30.3059 85.0628 23.5247C83.2831 25.4251 81.0034 27.1797 78.2884 28.7302C71.2266 32.763 61.404 35.2891 50.5 35.2891C39.596 35.2891 29.7734 32.763 22.7116 28.7302ZM15.9286 24.9437C17.7095 26.8476 19.9922 28.6054 22.7116 30.1583C29.7734 34.1911 39.596 36.7172 50.5 36.7172C61.404 36.7172 71.2266 34.1911 78.2884 30.1583C81.0078 28.6054 83.2905 26.8476 85.0714 24.9437C78.1365 31.7295 65.2506 36.2891 50.5 36.2891C35.7493 36.2891 22.8635 31.7295 15.9286 24.9437ZM22.7116 31.5857C19.9966 30.0352 17.7169 28.2806 15.9372 26.3802C22.8742 33.1614 35.7555 37.7172 50.5 37.7172C65.2446 37.7172 78.1258 33.1614 85.0628 26.3802C83.2831 28.2806 81.0034 30.0352 78.2884 31.5857C71.2266 35.6185 61.404 38.1446 50.5 38.1446C39.596 38.1446 29.7734 35.6185 22.7116 31.5857ZM15.9329 27.8034C22.8689 34.5869 35.7524 39.1446 50.5 39.1446C65.2476 39.1446 78.1312 34.5868 85.0671 27.8033C83.2868 29.7055 81.0056 31.4617 78.2884 33.0134C71.2266 37.0462 61.404 39.5723 50.5 39.5723C39.596 39.5723 29.7734 37.0462 22.7116 33.0134C19.9944 31.4617 17.7132 29.7055 15.9329 27.8034ZM78.2884 34.4412C81.0056 32.8894 83.2868 31.1332 85.0671 29.231C78.1312 36.0146 65.2476 40.5723 50.5 40.5723C35.7524 40.5723 22.8688 36.0146 15.9328 29.231C17.7132 31.1332 19.9944 32.8894 22.7116 34.4412C29.7734 38.4739 39.596 41.0001 50.5 41.0001C61.404 41.0001 71.2266 38.4739 78.2884 34.4412Z" fill="url(#paint0_linear_261_43419)"/>
<path fill-rule="evenodd" clip-rule="evenodd" d="M90.4808 82.9845C90.4936 82.7475 90.5 82.5095 90.5 82.2706C90.5 82.0318 90.4936 81.7939 90.4808 81.5568C90.4936 81.3197 90.5 81.0817 90.5 80.8429C90.5 68.2271 72.5914 58 50.5 58C28.4086 58 10.5 68.2271 10.5 80.8429C10.5 81.0817 10.5064 81.3197 10.5192 81.5568C10.5064 81.7938 10.5 82.0318 10.5 82.2706C10.5 82.5095 10.5064 82.7474 10.5192 82.9845C10.5064 83.2216 10.5 83.4596 10.5 83.6984C10.5 83.9371 10.5064 84.1751 10.5192 84.4121C10.5064 84.6491 10.5 84.887 10.5 85.1257C10.5 85.3646 10.5064 85.6027 10.5192 85.8398C10.5064 86.0769 10.5 86.315 10.5 86.5538C10.5 86.7926 10.5064 87.0305 10.5192 87.2675C10.5064 87.5045 10.5 87.7424 10.5 87.9812C10.5 88.22 10.5064 88.458 10.5192 88.6951C10.5146 88.7807 10.5108 88.8666 10.5078 88.9525C12.3339 87.1301 14.5336 85.4462 17.0471 83.9349C18.6323 82.457 20.5316 81.0804 22.7116 79.8355C29.7734 75.8027 39.596 73.2766 50.5 73.2766C61.404 73.2766 71.2266 75.8027 78.2884 79.8355C81.0078 81.3885 83.2905 83.1463 85.0714 85.0502C78.1365 78.2643 65.2507 73.7047 50.5 73.7047C36.7191 73.7047 24.5659 77.6845 17.3724 83.7413C19.4987 82.4888 21.8431 81.3582 24.3705 80.3698C31.2742 76.8611 40.4255 74.7047 50.5 74.7047C61.404 74.7047 71.2266 77.2308 78.2884 81.2636C78.8947 81.6099 79.4793 81.9663 80.0415 82.3323C84.3071 84.4813 87.8644 87.0804 90.4869 90.0001C90.4956 89.8036 90.5 89.6066 90.5 89.4089C90.5 89.1701 90.4936 88.9322 90.4808 88.6951C90.4936 88.458 90.5 88.22 90.5 87.9812C90.5 87.7424 90.4936 87.5045 90.4809 87.2675C90.4936 87.0305 90.5 86.7926 90.5 86.5538C90.5 86.3149 90.4936 86.0769 90.4808 85.8398C90.4936 85.6027 90.5 85.3646 90.5 85.1257C90.5 84.887 90.4936 84.6491 90.4809 84.4121C90.4936 84.1751 90.5 83.9372 90.5 83.6984C90.5 83.4595 90.4936 83.2216 90.4808 82.9845ZM85.0628 83.6136C78.1258 76.8324 65.2446 72.2766 50.5 72.2766C35.7554 72.2766 22.8742 76.8324 15.9372 83.6136C17.7169 81.7132 19.9966 79.9586 22.7116 78.4081C29.7734 74.3753 39.596 71.8492 50.5 71.8492C61.404 71.8492 71.2266 74.3753 78.2884 78.4081C81.0034 79.9586 83.2831 81.7132 85.0628 83.6136ZM78.2884 76.9804C81.0056 78.5321 83.2868 80.2884 85.0672 82.1905C78.1312 75.407 65.2476 70.8492 50.5 70.8492C35.7524 70.8492 22.8688 75.407 15.9329 82.1905C17.7132 80.2883 19.9944 78.5321 22.7116 76.9804C29.7734 72.9476 39.596 70.4215 50.5 70.4215C61.404 70.4215 71.2266 72.9476 78.2884 76.9804ZM85.0671 80.7628C83.2868 78.8606 81.0056 77.1044 78.2884 75.5527C71.2266 71.5199 61.404 68.9937 50.5 68.9937C39.596 68.9937 29.7734 71.5199 22.7116 75.5527C19.9944 77.1044 17.7132 78.8606 15.9329 80.7628C22.8688 73.9792 35.7524 69.4215 50.5 69.4215C65.2476 69.4215 78.1312 73.9793 85.0671 80.7628ZM78.2884 74.1249C81.0056 75.6767 83.2869 77.4329 85.0672 79.3351C78.1312 72.5515 65.2476 67.9937 50.5 67.9937C35.7524 67.9937 22.8688 72.5515 15.9329 79.335C17.7132 77.4329 19.9944 75.6767 22.7116 74.1249C29.7734 70.0921 39.596 67.566 50.5 67.566C61.404 67.566 71.2266 70.0921 78.2884 74.1249ZM85.0671 77.9073C83.2868 76.0051 81.0056 74.2489 78.2884 72.6972C71.2266 68.6644 61.404 66.1383 50.5 66.1383C39.596 66.1383 29.7734 68.6644 22.7116 72.6972C19.9944 74.2489 17.7132 76.0051 15.9329 77.9073C22.8689 71.1238 35.7524 66.566 50.5 66.566C65.2476 66.566 78.1312 71.1238 85.0671 77.9073ZM78.2884 71.2698C81.0034 72.8203 83.2831 74.5749 85.0628 76.4753C78.1258 69.6942 65.2445 65.1383 50.5 65.1383C35.7555 65.1383 22.8742 69.6941 15.9372 76.4753C17.7169 74.5749 19.9966 72.8203 22.7116 71.2698C29.7734 67.237 39.596 64.7109 50.5 64.7109C61.404 64.7109 71.2266 67.237 78.2884 71.2698ZM85.0714 75.0564C83.2905 73.1525 81.0078 71.3947 78.2884 69.8417C71.2266 65.8089 61.404 63.2828 50.5 63.2828C39.596 63.2828 29.7734 65.8089 22.7116 69.8417C19.9922 71.3947 17.7095 73.1525 15.9286 75.0564C22.8635 68.2706 35.7494 63.7109 50.5 63.7109C65.2507 63.7109 78.1365 68.2706 85.0714 75.0564ZM78.2884 68.4144C81.0034 69.9649 83.2831 71.7195 85.0628 73.6198C78.1258 66.8387 65.2445 62.2828 50.5 62.2828C35.7554 62.2828 22.8742 66.8387 15.9372 73.6199C17.7169 71.7195 19.9966 69.9649 22.7116 68.4144C29.7734 64.3816 39.596 61.8555 50.5 61.8555C61.404 61.8555 71.2266 64.3816 78.2884 68.4144ZM85.0671 72.1967C78.1311 65.4132 65.2476 60.8555 50.5 60.8555C35.7524 60.8555 22.8688 65.4132 15.9329 72.1968C17.7132 70.2946 19.9944 68.5384 22.7116 66.9866C29.7734 62.9538 39.596 60.4277 50.5 60.4277C61.404 60.4277 71.2266 62.9538 78.2884 66.9866C81.0056 68.5384 83.2868 70.2946 85.0671 72.1967ZM22.7116 65.5589C19.9944 67.1107 17.7132 68.8669 15.9329 70.769C22.8688 63.9855 35.7524 59.4277 50.5 59.4277C65.2476 59.4277 78.1312 63.9855 85.0672 70.769C83.2868 68.8669 81.0056 67.1107 78.2884 65.5589C71.2266 61.5261 61.404 59 50.5 59C39.596 59 29.7734 61.5261 22.7116 65.5589Z" fill="url(#paint1_linear_261_43419)"/>
<path fill-rule="evenodd" clip-rule="evenodd" d="M83.4845 10.0192C83.2475 10.0064 83.0095 10 82.7706 10C82.5318 10 82.2939 10.0064 82.0568 10.0192C81.8197 10.0064 81.5817 10 81.3429 10C68.7271 10 58.5 27.9086 58.5 50C58.5 72.0914 68.7271 90 81.3429 90C81.5817 90 81.8197 89.9936 82.0568 89.9808C82.2938 89.9936 82.5318 90 82.7706 90C83.0095 90 83.2474 89.9936 83.4845 89.9808C83.7216 89.9936 83.9596 90 84.1984 90C84.4371 90 84.6751 89.9936 84.9121 89.9809C85.1491 89.9936 85.387 90 85.6257 90C85.8646 90 86.1027 89.9936 86.3398 89.9808C86.5769 89.9936 86.815 90 87.0538 90C87.2926 90 87.5305 89.9936 87.7675 89.9809C88.0045 89.9936 88.2424 90 88.4812 90C88.72 90 88.958 89.9936 89.1951 89.9808C89.2807 89.9854 89.3666 89.9892 89.4525 89.9922C87.6301 88.1661 85.9462 85.9664 84.4349 83.4529C82.957 81.8677 81.5804 79.9684 80.3355 77.7884C76.3027 70.7266 73.7766 60.904 73.7766 50C73.7766 39.096 76.3027 29.2734 80.3355 22.2116C81.8885 19.4922 83.6463 17.2095 85.5502 15.4286C78.7643 22.3635 74.2047 35.2493 74.2047 50C74.2047 63.7809 78.1845 75.9341 84.2413 83.1276C82.9888 81.0013 81.8582 78.6569 80.8698 76.1295C77.3611 69.2258 75.2047 60.0745 75.2047 50C75.2047 39.096 77.7308 29.2734 81.7636 22.2116C82.1099 21.6053 82.4663 21.0207 82.8323 20.4585C84.9813 16.1929 87.5804 12.6356 90.5001 10.0131C90.3036 10.0044 90.1066 10 89.9089 10C89.6701 10 89.4322 10.0064 89.1951 10.0192C88.958 10.0064 88.72 10 88.4812 10C88.2424 10 88.0045 10.0064 87.7675 10.0191C87.5305 10.0064 87.2926 10 87.0538 10C86.8149 10 86.5769 10.0064 86.3398 10.0192C86.1027 10.0064 85.8646 10 85.6257 10C85.387 10 85.1491 10.0064 84.9121 10.0191C84.6751 10.0064 84.4372 10 84.1984 10C83.9595 10 83.7216 10.0064 83.4845 10.0192ZM84.1136 15.4372C77.3324 22.3742 72.7766 35.2554 72.7766 50C72.7766 64.7446 77.3324 77.6258 84.1136 84.5628C82.2132 82.7831 80.4586 80.5034 78.9081 77.7884C74.8753 70.7266 72.3492 60.904 72.3492 50C72.3492 39.096 74.8753 29.2734 78.9081 22.2116C80.4586 19.4966 82.2132 17.2169 84.1136 15.4372ZM77.4804 22.2116C79.0321 19.4944 80.7884 17.2132 82.6905 15.4328C75.907 22.3688 71.3492 35.2524 71.3492 50C71.3492 64.7476 75.907 77.6312 82.6905 84.5671C80.7883 82.7868 79.0321 80.5056 77.4804 77.7884C73.4476 70.7266 70.9215 60.904 70.9215 50C70.9215 39.096 73.4476 29.2734 77.4804 22.2116ZM81.2628 15.4329C79.3606 17.2132 77.6044 19.4944 76.0527 22.2116C72.0199 29.2734 69.4937 39.096 69.4937 50C69.4937 60.904 72.0199 70.7266 76.0527 77.7884C77.6044 80.5056 79.3606 82.7868 81.2628 84.5671C74.4792 77.6312 69.9215 64.7476 69.9215 50C69.9215 35.2524 74.4793 22.3688 81.2628 15.4329ZM74.6249 22.2116C76.1767 19.4944 77.9329 17.2131 79.8351 15.4328C73.0515 22.3688 68.4937 35.2524 68.4937 50C68.4937 64.7476 73.0515 77.6312 79.835 84.5671C77.9329 82.7868 76.1767 80.5056 74.6249 77.7884C70.5921 70.7266 68.066 60.904 68.066 50C68.066 39.096 70.5921 29.2734 74.6249 22.2116ZM78.4073 15.4329C76.5051 17.2132 74.7489 19.4944 73.1972 22.2116C69.1644 29.2734 66.6383 39.096 66.6383 50C66.6383 60.904 69.1644 70.7266 73.1972 77.7884C74.7489 80.5056 76.5051 82.7868 78.4073 84.5671C71.6238 77.6311 67.066 64.7476 67.066 50C67.066 35.2524 71.6238 22.3688 78.4073 15.4329ZM71.7698 22.2116C73.3203 19.4966 75.0749 17.2169 76.9753 15.4372C70.1942 22.3742 65.6383 35.2555 65.6383 50C65.6383 64.7445 70.1941 77.6258 76.9753 84.5628C75.0749 82.7831 73.3203 80.5034 71.7698 77.7884C67.737 70.7266 65.2109 60.904 65.2109 50C65.2109 39.096 67.737 29.2734 71.7698 22.2116ZM75.5564 15.4286C73.6525 17.2095 71.8947 19.4922 70.3417 22.2116C66.3089 29.2734 63.7828 39.096 63.7828 50C63.7828 60.904 66.3089 70.7266 70.3417 77.7884C71.8947 80.5078 73.6525 82.7905 75.5564 84.5714C68.7706 77.6365 64.2109 64.7506 64.2109 50C64.2109 35.2493 68.7706 22.3635 75.5564 15.4286ZM68.9144 22.2116C70.4649 19.4966 72.2195 17.2169 74.1198 15.4372C67.3387 22.3742 62.7828 35.2555 62.7828 50C62.7828 64.7446 67.3387 77.6258 74.1199 84.5628C72.2195 82.7831 70.4649 80.5034 68.9144 77.7884C64.8816 70.7266 62.3555 60.904 62.3555 50C62.3555 39.096 64.8816 29.2734 68.9144 22.2116ZM72.6967 15.4329C65.9132 22.3689 61.3555 35.2524 61.3555 50C61.3555 64.7476 65.9132 77.6312 72.6968 84.5671C70.7946 82.7868 69.0384 80.5056 67.4866 77.7884C63.4538 70.7266 60.9277 60.904 60.9277 50C60.9277 39.096 63.4538 29.2734 67.4866 22.2116C69.0384 19.4944 70.7946 17.2132 72.6967 15.4329ZM66.0589 77.7884C67.6107 80.5056 69.3669 82.7868 71.269 84.5671C64.4855 77.6312 59.9277 64.7476 59.9277 50C59.9277 35.2524 64.4855 22.3688 71.269 15.4328C69.3669 17.2132 67.6107 19.4944 66.0589 22.2116C62.0261 29.2734 59.5 39.096 59.5 50C59.5 60.904 62.0261 70.7266 66.0589 77.7884Z" fill="url(#paint2_linear_261_43419)"/>
<path fill-rule="evenodd" clip-rule="evenodd" d="M17.5155 10.0192C17.7526 10.0064 17.9906 10 18.2294 10C18.4683 10 18.7062 10.0064 18.9433 10.0192C19.1803 10.0064 19.4183 10 19.6572 10C32.2729 10 42.5001 27.9086 42.5001 50C42.5001 72.0914 32.2729 90 19.6572 90C19.4183 90 19.1803 89.9936 18.9433 89.9808C18.7062 89.9936 18.4682 90 18.2294 90C17.9906 90 17.7526 89.9936 17.5155 89.9808C17.2785 89.9936 17.0405 90 16.8017 90C16.5629 90 16.325 89.9936 16.088 89.9809C15.851 89.9936 15.6131 90 15.3743 90C15.1354 90 14.8974 89.9936 14.6603 89.9808C14.4231 89.9936 14.1851 90 13.9462 90C13.7074 90 13.4695 89.9936 13.2325 89.9809C12.9955 89.9936 12.7576 90 12.5189 90C12.28 90 12.0421 89.9936 11.805 89.9808C11.7193 89.9854 11.6335 89.9892 11.5476 89.9922C13.37 88.1661 15.0539 85.9664 16.5651 83.4529C18.0431 81.8677 19.4196 79.9684 20.6646 77.7884C24.6974 70.7266 27.2235 60.904 27.2235 50C27.2235 39.096 24.6974 29.2734 20.6646 22.2116C19.1116 19.4922 17.3538 17.2095 15.4499 15.4286C22.2357 22.3635 26.7954 35.2493 26.7954 50C26.7954 63.7809 22.8156 75.9341 16.7587 83.1276C18.0113 81.0013 19.1418 78.6569 20.1302 76.1295C23.639 69.2258 25.7954 60.0745 25.7954 50C25.7954 39.096 23.2693 29.2734 19.2365 22.2116C18.8902 21.6053 18.5338 21.0207 18.1678 20.4585C16.0188 16.1929 13.4196 12.6356 10.5 10.0131C10.6964 10.0044 10.8935 10 11.0911 10C11.33 10 11.5679 10.0064 11.805 10.0192C12.0421 10.0064 12.28 10 12.5189 10C12.7576 10 12.9955 10.0064 13.2325 10.0191C13.4695 10.0064 13.7074 10 13.9462 10C14.1851 10 14.4231 10.0064 14.6603 10.0192C14.8974 10.0064 15.1354 10 15.3743 10C15.6131 10 15.851 10.0064 16.088 10.0191C16.325 10.0064 16.5629 10 16.8017 10C17.0405 10 17.2785 10.0064 17.5155 10.0192ZM16.8864 15.4372C23.6676 22.3742 28.2235 35.2554 28.2235 50C28.2235 64.7446 23.6676 77.6258 16.8864 84.5628C18.7868 82.7831 20.5414 80.5034 22.0919 77.7884C26.1247 70.7266 28.6508 60.904 28.6508 50C28.6508 39.096 26.1247 29.2734 22.0919 22.2116C20.5414 19.4966 18.7868 17.2169 16.8864 15.4372ZM23.5197 22.2116C21.9679 19.4944 20.2117 17.2132 18.3095 15.4328C25.093 22.3688 29.6508 35.2524 29.6508 50C29.6508 64.7476 25.0931 77.6312 18.3096 84.5671C20.2117 82.7868 21.9679 80.5056 23.5197 77.7884C27.5525 70.7266 30.0786 60.904 30.0786 50C30.0786 39.096 27.5525 29.2734 23.5197 22.2116ZM19.7373 15.4329C21.6394 17.2132 23.3957 19.4944 24.9474 22.2116C28.9802 29.2734 31.5063 39.096 31.5063 50C31.5063 60.904 28.9802 70.7266 24.9474 77.7884C23.3957 80.5056 21.6395 82.7868 19.7373 84.5671C26.5208 77.6312 31.0786 64.7476 31.0786 50C31.0786 35.2524 26.5208 22.3688 19.7373 15.4329ZM26.3751 22.2116C24.8234 19.4944 23.0672 17.2131 21.165 15.4328C27.9485 22.3688 32.5063 35.2524 32.5063 50C32.5063 64.7476 27.9486 77.6312 21.165 84.5671C23.0672 82.7868 24.8234 80.5056 26.3751 77.7884C30.4079 70.7266 32.934 60.904 32.934 50C32.934 39.096 30.4079 29.2734 26.3751 22.2116ZM22.5927 15.4329C24.4949 17.2132 26.2511 19.4944 27.8029 22.2116C31.8357 29.2734 34.3618 39.096 34.3618 50C34.3618 60.904 31.8357 70.7266 27.8029 77.7884C26.2511 80.5056 24.4949 82.7868 22.5928 84.5671C29.3763 77.6311 33.934 64.7476 33.934 50C33.934 35.2524 29.3763 22.3688 22.5927 15.4329ZM29.2302 22.2116C27.6797 19.4966 25.9251 17.2169 24.0247 15.4372C30.8059 22.3742 35.3618 35.2555 35.3618 50C35.3618 64.7445 30.8059 77.6258 24.0247 84.5628C25.9251 82.7831 27.6797 80.5034 29.2302 77.7884C33.263 70.7266 35.7891 60.904 35.7891 50C35.7891 39.096 33.263 29.2734 29.2302 22.2116ZM25.4437 15.4286C27.3476 17.2095 29.1054 19.4922 30.6583 22.2116C34.6911 29.2734 37.2172 39.096 37.2172 50C37.2172 60.904 34.6911 70.7266 30.6583 77.7884C29.1054 80.5078 27.3476 82.7905 25.4437 84.5714C32.2295 77.6365 36.7891 64.7506 36.7891 50C36.7891 35.2493 32.2295 22.3635 25.4437 15.4286ZM32.0857 22.2116C30.5352 19.4966 28.7806 17.2169 26.8802 15.4372C33.6614 22.3742 38.2172 35.2555 38.2172 50C38.2172 64.7446 33.6614 77.6258 26.8802 84.5628C28.7806 82.7831 30.5352 80.5034 32.0857 77.7884C36.1185 70.7266 38.6446 60.904 38.6446 50C38.6446 39.096 36.1185 29.2734 32.0857 22.2116ZM28.3034 15.4329C35.0869 22.3689 39.6446 35.2524 39.6446 50C39.6446 64.7476 35.0868 77.6312 28.3033 84.5671C30.2055 82.7868 31.9617 80.5056 33.5134 77.7884C37.5462 70.7266 40.0723 60.904 40.0723 50C40.0723 39.096 37.5462 29.2734 33.5134 22.2116C31.9617 19.4944 30.2055 17.2132 28.3034 15.4329ZM34.9412 77.7884C33.3894 80.5056 31.6332 82.7868 29.731 84.5671C36.5146 77.6312 41.0723 64.7476 41.0723 50C41.0723 35.2524 36.5146 22.3688 29.731 15.4328C31.6332 17.2132 33.3894 19.4944 34.9412 22.2116C38.9739 29.2734 41.5001 39.096 41.5001 50C41.5001 60.904 38.9739 70.7266 34.9412 77.7884Z" fill="url(#paint3_linear_261_43419)"/>
<defs>
<linearGradient id="paint0_linear_261_43419" x1="49.5" y1="44.5" x2="51.829" y2="18.2063" gradientUnits="userSpaceOnUse">
<stop stop-color="white"/>
<stop offset="1" stop-color="white" stop-opacity="0"/>
</linearGradient>
<linearGradient id="paint1_linear_261_43419" x1="52" y1="56.8" x2="49.258" y2="87.7571" gradientUnits="userSpaceOnUse">
<stop stop-color="white"/>
<stop offset="1" stop-color="white" stop-opacity="0"/>
</linearGradient>
<linearGradient id="paint2_linear_261_43419" x1="57.3" y1="48.5" x2="84.2883" y2="50.8905" gradientUnits="userSpaceOnUse">
<stop stop-color="white"/>
<stop offset="1" stop-color="white" stop-opacity="0"/>
</linearGradient>
<linearGradient id="paint3_linear_261_43419" x1="43.7" y1="48.5" x2="16.2156" y2="50.9344" gradientUnits="userSpaceOnUse">
<stop stop-color="white"/>
<stop offset="1" stop-color="white" stop-opacity="0"/>
</linearGradient>
</defs>
</svg>
