<svg width="101" height="100" viewBox="0 0 101 100" fill="none" xmlns="http://www.w3.org/2000/svg">
<rect width="100" height="100" transform="translate(0.5)" fill="#181818"/>
<path d="M86.5 20L68.5 10V30L86.5 20Z" fill="url(#paint0_linear_261_43439)"/>
<path d="M68.5 20L50.5 10V30L68.5 20Z" fill="url(#paint1_linear_261_43439)"/>
<path d="M50.5 20L32.5 10V30L50.5 20Z" fill="url(#paint2_linear_261_43439)"/>
<path d="M32.5 20L14.5 10L14.5 30L32.5 20Z" fill="url(#paint3_linear_261_43439)"/>
<path d="M14.5 40L32.5 30V50L14.5 40Z" fill="url(#paint4_linear_261_43439)"/>
<path d="M32.5 40L50.5 30V50L32.5 40Z" fill="url(#paint5_linear_261_43439)"/>
<path d="M50.5 40L68.5 30V50L50.5 40Z" fill="url(#paint6_linear_261_43439)"/>
<path d="M68.5 40L86.5 30V50L68.5 40Z" fill="url(#paint7_linear_261_43439)"/>
<path d="M86.5 60L68.5 50V70L86.5 60Z" fill="url(#paint8_linear_261_43439)"/>
<path d="M68.5 60L50.5 50V70L68.5 60Z" fill="url(#paint9_linear_261_43439)"/>
<path d="M50.5 60L32.5 50V70L50.5 60Z" fill="url(#paint10_linear_261_43439)"/>
<path d="M32.5 60L14.5 50L14.5 70L32.5 60Z" fill="url(#paint11_linear_261_43439)"/>
<path d="M14.5 80L32.5 70V90L14.5 80Z" fill="url(#paint12_linear_261_43439)"/>
<path d="M32.5 80L50.5 70V90L32.5 80Z" fill="url(#paint13_linear_261_43439)"/>
<path d="M50.5 80L68.5 70V90L50.5 80Z" fill="url(#paint14_linear_261_43439)"/>
<path d="M68.5 80L86.5 70V90L68.5 80Z" fill="url(#paint15_linear_261_43439)"/>
<defs>
<linearGradient id="paint0_linear_261_43439" x1="86.5" y1="20" x2="68.5" y2="20" gradientUnits="userSpaceOnUse">
<stop stop-color="white"/>
<stop offset="1" stop-color="white" stop-opacity="0"/>
</linearGradient>
<linearGradient id="paint1_linear_261_43439" x1="68.5" y1="20" x2="50.5" y2="20" gradientUnits="userSpaceOnUse">
<stop stop-color="white"/>
<stop offset="1" stop-color="white" stop-opacity="0"/>
</linearGradient>
<linearGradient id="paint2_linear_261_43439" x1="50.5" y1="20" x2="32.5" y2="20" gradientUnits="userSpaceOnUse">
<stop stop-color="white"/>
<stop offset="1" stop-color="white" stop-opacity="0"/>
</linearGradient>
<linearGradient id="paint3_linear_261_43439" x1="32.5" y1="20" x2="14.5" y2="20" gradientUnits="userSpaceOnUse">
<stop stop-color="white"/>
<stop offset="1" stop-color="white" stop-opacity="0"/>
</linearGradient>
<linearGradient id="paint4_linear_261_43439" x1="14.5" y1="40" x2="32.5" y2="40" gradientUnits="userSpaceOnUse">
<stop stop-color="white"/>
<stop offset="1" stop-color="white" stop-opacity="0"/>
</linearGradient>
<linearGradient id="paint5_linear_261_43439" x1="32.5" y1="40" x2="50.5" y2="40" gradientUnits="userSpaceOnUse">
<stop stop-color="white"/>
<stop offset="1" stop-color="white" stop-opacity="0"/>
</linearGradient>
<linearGradient id="paint6_linear_261_43439" x1="50.5" y1="40" x2="68.5" y2="40" gradientUnits="userSpaceOnUse">
<stop stop-color="white"/>
<stop offset="1" stop-color="white" stop-opacity="0"/>
</linearGradient>
<linearGradient id="paint7_linear_261_43439" x1="68.5" y1="40" x2="86.5" y2="40" gradientUnits="userSpaceOnUse">
<stop stop-color="white"/>
<stop offset="1" stop-color="white" stop-opacity="0"/>
</linearGradient>
<linearGradient id="paint8_linear_261_43439" x1="86.5" y1="60" x2="68.5" y2="60" gradientUnits="userSpaceOnUse">
<stop stop-color="white"/>
<stop offset="1" stop-color="white" stop-opacity="0"/>
</linearGradient>
<linearGradient id="paint9_linear_261_43439" x1="68.5" y1="60" x2="50.5" y2="60" gradientUnits="userSpaceOnUse">
<stop stop-color="white"/>
<stop offset="1" stop-color="white" stop-opacity="0"/>
</linearGradient>
<linearGradient id="paint10_linear_261_43439" x1="50.5" y1="60" x2="32.5" y2="60" gradientUnits="userSpaceOnUse">
<stop stop-color="white"/>
<stop offset="1" stop-color="white" stop-opacity="0"/>
</linearGradient>
<linearGradient id="paint11_linear_261_43439" x1="32.5" y1="60" x2="14.5" y2="60" gradientUnits="userSpaceOnUse">
<stop stop-color="white"/>
<stop offset="1" stop-color="white" stop-opacity="0"/>
</linearGradient>
<linearGradient id="paint12_linear_261_43439" x1="14.5" y1="80" x2="32.5" y2="80" gradientUnits="userSpaceOnUse">
<stop stop-color="white"/>
<stop offset="1" stop-color="white" stop-opacity="0"/>
</linearGradient>
<linearGradient id="paint13_linear_261_43439" x1="32.5" y1="80" x2="50.5" y2="80" gradientUnits="userSpaceOnUse">
<stop stop-color="white"/>
<stop offset="1" stop-color="white" stop-opacity="0"/>
</linearGradient>
<linearGradient id="paint14_linear_261_43439" x1="50.5" y1="80" x2="68.5" y2="80" gradientUnits="userSpaceOnUse">
<stop stop-color="white"/>
<stop offset="1" stop-color="white" stop-opacity="0"/>
</linearGradient>
<linearGradient id="paint15_linear_261_43439" x1="68.5" y1="80" x2="86.5" y2="80" gradientUnits="userSpaceOnUse">
<stop stop-color="white"/>
<stop offset="1" stop-color="white" stop-opacity="0"/>
</linearGradient>
</defs>
</svg>
