<svg width="101" height="100" viewBox="0 0 101 100" fill="none" xmlns="http://www.w3.org/2000/svg">
<rect width="100" height="100" transform="translate(0.5)" fill="#181818"/>
<path fill-rule="evenodd" clip-rule="evenodd" d="M32.5 38C32.5 28.0589 40.5589 20 50.5 20C60.4411 20 68.5 28.0589 68.5 38V62C68.5 71.9411 60.4411 80 50.5 80C40.5589 80 32.5 71.9411 32.5 62V38ZM38.5 60.5C38.5 67.1274 43.8726 72.5 50.5 72.5C57.1274 72.5 62.5 67.1274 62.5 60.5V39.5C62.5 32.8726 57.1274 27.5 50.5 27.5C43.8726 27.5 38.5 32.8726 38.5 39.5V60.5Z" fill="url(#paint0_linear_261_43431)"/>
<path fill-rule="evenodd" clip-rule="evenodd" d="M38.5 68C28.5589 68 20.5 59.9411 20.5 50C20.5 40.0589 28.5589 32 38.5 32H62.5C72.4411 32 80.5 40.0589 80.5 50C80.5 59.9411 72.4411 68 62.5 68H38.5ZM61 62C67.6274 62 73 56.6274 73 50C73 43.3726 67.6274 38 61 38H40C33.3726 38 28 43.3726 28 50C28 56.6274 33.3726 62 40 62H61Z" fill="url(#paint1_linear_261_43431)"/>
<defs>
<linearGradient id="paint0_linear_261_43431" x1="50.4998" y1="42.2217" x2="46.7457" y2="80.6771" gradientUnits="userSpaceOnUse">
<stop stop-color="white"/>
<stop offset="1" stop-color="white" stop-opacity="0"/>
</linearGradient>
<linearGradient id="paint1_linear_261_43431" x1="67.1171" y1="60.9602" x2="71.6037" y2="31.4286" gradientUnits="userSpaceOnUse">
<stop stop-color="white"/>
<stop offset="1" stop-color="white" stop-opacity="0"/>
</linearGradient>
</defs>
</svg>
