<svg width="148" height="67" viewBox="0 0 148 67" fill="none" xmlns="http://www.w3.org/2000/svg">
<path d="M19.7289 3.32335C19.5067 3.59002 18.8622 3.65668 16.5289 3.65668H13.6178L11.6178 5.65668C10.2844 7.01224 9.46222 7.65668 9.12888 7.65668C8.63999 7.65668 7.72888 8.34557 7.72888 8.72335C7.72888 9.1678 8.46222 9.87891 8.92888 9.87891C9.5511 9.87891 10.2844 9.12335 10.1067 8.67891C10.0178 8.47891 10.6622 7.67891 11.9067 6.45668L13.84 4.54557H16.5733C18.9733 4.54557 19.3955 4.61224 19.8844 4.9678C20.9289 5.81224 22.1511 4.65668 21.4178 3.54557C20.9955 2.92335 20.1511 2.81224 19.7289 3.32335Z" fill="#181818"/>
<path d="M34.1289 3.23446C33.6622 3.50113 33.5956 4.54557 33.9956 4.94557C34.3733 5.32335 35.4844 5.27891 35.64 4.87891C35.7511 4.61224 36.3067 4.54557 38.7067 4.54557H41.6178L43.4622 6.39002C44.7733 7.72335 45.2844 8.3678 45.2844 8.79002C45.2844 9.47891 45.6622 9.87891 46.2844 9.87891C46.84 9.87891 47.5067 9.23446 47.5067 8.72335C47.5067 8.27891 46.7956 7.65668 46.2622 7.65668C46.0178 7.65668 44.9733 6.81224 43.84 5.65668L41.84 3.65668H38.8178C36.3956 3.65668 35.7289 3.59002 35.5067 3.32335C35.1956 2.94557 34.6844 2.90113 34.1289 3.23446Z" fill="#181818"/>
<path d="M18.7733 6.87871C18.3511 7.27871 18.5733 8.27871 19.1289 8.63427C19.4177 8.81204 19.6844 8.78982 20.1955 8.47871C20.64 8.23427 21.3289 8.10093 22.24 8.10093C23.3733 8.12316 23.7289 8.21204 24.24 8.65649C24.5955 8.9676 24.84 9.41204 24.84 9.74538C24.84 10.1009 25.04 10.4565 25.3955 10.6787C25.9066 11.012 25.9955 11.012 26.5066 10.6787C26.84 10.4565 27.0622 10.1009 27.0622 9.78982C27.0622 9.14538 26.3289 8.45649 25.7511 8.61204C25.44 8.67871 25.1289 8.50093 24.6844 7.9676C24.0844 7.23427 24.0177 7.21204 22.3733 7.21204C21.1289 7.21204 20.5955 7.12316 20.3955 6.87871C20.04 6.45649 19.1955 6.45649 18.7733 6.87871ZM20.1289 7.58982C20.1733 7.7676 20.0177 7.87871 19.7511 7.87871C19.4844 7.87871 19.2844 7.74538 19.2844 7.52316C19.2844 7.12316 19.9733 7.18982 20.1289 7.58982Z" fill="#181818"/>
<path d="M34.84 6.87869C34.64 7.12313 34.1066 7.21202 32.9733 7.21202C31.44 7.21202 31.3511 7.23425 30.6178 7.9898C30.2178 8.41202 29.7955 8.70091 29.6844 8.63424C29.3733 8.43424 28.6178 8.76758 28.3733 9.23424C28.0178 9.90091 28.6622 10.7676 29.5066 10.7676C30.1955 10.7676 30.7511 10.1009 30.5511 9.54536C30.4844 9.3898 30.7066 9.01202 31.0178 8.70091C31.5289 8.21202 31.8622 8.12313 33.1066 8.07869C34.24 8.03425 34.6622 8.12313 34.9511 8.3898C35.44 8.87869 36.0178 8.85647 36.4622 8.36758C36.9066 7.87869 36.9511 7.1898 36.5733 6.81202C36.1955 6.43425 35.1733 6.47869 34.84 6.87869Z" fill="#181818"/>
<path d="M11.7288 8.9227C11.2844 9.10048 11.0621 9.45603 11.0621 9.98937C11.0621 10.5449 7.21769 14.4338 6.86213 14.2338C6.5288 14.0116 5.77324 14.4783 5.61769 14.9894C5.41769 15.5894 6.03991 16.5449 6.61769 16.5449C7.21769 16.5449 7.99546 15.7227 7.86213 15.256C7.66213 14.6783 11.3955 11.0338 12.2844 10.9449C13.1732 10.856 13.551 9.87825 12.951 9.21159C12.551 8.76714 12.3066 8.70048 11.7288 8.9227Z" fill="#181818"/>
<path d="M42.5732 9.01159C42.1066 9.27825 42.0399 10.3227 42.4399 10.7227C42.5954 10.8783 42.9066 10.9894 43.1732 10.9894C43.7954 10.9894 47.6399 14.8116 47.551 15.3227C47.4399 15.7894 48.1288 16.5449 48.6399 16.5449C49.1954 16.5449 49.7288 15.9449 49.7288 15.3227C49.7288 14.7227 48.7954 13.9671 48.3732 14.2116C48.2399 14.3227 47.351 13.5894 46.1732 12.4338C44.7288 11.0116 44.2621 10.3894 44.3288 10.0783C44.4621 9.56714 43.8177 8.76714 43.3066 8.76714C43.1066 8.76714 42.7732 8.87825 42.5732 9.01159Z" fill="#181818"/>
<path d="M14.2844 10.7673C13.6844 11.3895 13.2177 11.6561 12.7955 11.6561C11.6177 11.6561 11.3288 13.3673 12.4399 13.745C13.1733 14.0117 13.9511 13.4339 13.9511 12.6561C13.9511 12.4117 14.2844 11.8784 14.6844 11.4784L15.4177 10.7673H18.3066H21.1733L23.3511 12.945C24.5288 14.1228 25.5066 15.2784 25.5066 15.4784C25.5066 15.7673 25.9288 16.1006 26.3066 16.1006C26.3511 16.1006 26.3955 15.8339 26.3955 15.4784C26.3955 14.9895 25.8844 14.345 23.8844 12.3673L21.3955 9.87836H18.2622H15.1511L14.2844 10.7673Z" fill="#181818"/>
<path d="M31.4399 12.2786C29.3288 14.4119 29.0621 14.7452 29.0621 15.4341L29.0844 16.2119L29.6621 15.5452C29.9732 15.1675 31.1066 13.9452 32.1955 12.8119L34.1288 10.7675H36.9955H39.8621L40.6844 11.6119C41.1288 12.0786 41.5066 12.6564 41.5066 12.9008C41.5066 13.4786 41.9288 13.8786 42.5066 13.8786C43.0621 13.8786 43.7288 13.2341 43.7288 12.723C43.7288 12.2341 42.9955 11.6564 42.3732 11.6564C42.0177 11.6564 41.5066 11.323 40.951 10.7675L40.0844 9.87858H36.951H33.8399L31.4399 12.2786Z" fill="#181818"/>
<path d="M13.8399 14.9007C11.7955 17.0118 11.0399 17.6563 10.6177 17.6563C9.43995 17.6563 9.08439 18.9229 10.0622 19.5674C10.5733 19.9007 10.6622 19.9007 11.1733 19.5674C11.4844 19.3674 11.7288 18.9896 11.7288 18.7007C11.7288 18.3674 12.5511 17.3674 14.3511 15.5896L16.9511 12.9896H18.4177C19.6844 12.9896 19.9511 13.0563 20.3955 13.5452C20.8844 14.0563 21.9511 14.3229 21.9511 13.9229C21.9511 13.834 21.5733 13.3674 21.1066 12.9229C20.2622 12.1007 20.2622 12.1007 18.3955 12.1229H16.5066L13.8399 14.9007Z" fill="#181818"/>
<path d="M34.1732 13.1011C33.2621 14.0345 33.2177 14.1011 33.7288 14.1011C34.0177 14.1011 34.5288 13.8345 34.8844 13.5011C35.4399 12.9678 35.6399 12.9234 36.9955 12.9678L38.5066 13.0122L41.1288 15.6122C42.751 17.2345 43.6844 18.3234 43.6177 18.5234C43.4844 18.8789 44.3288 19.8789 44.7732 19.8789C45.1732 19.8789 45.951 19.0789 45.951 18.6567C45.951 18.1456 45.1288 17.4345 44.6621 17.5456C44.3732 17.59 43.4399 16.8122 41.4844 14.8567L38.7288 12.1011H36.951H35.151L34.1732 13.1011ZM45.0621 18.6789C45.0621 19.0345 44.4844 19.1011 44.2844 18.7678C44.2177 18.6345 44.1955 18.4567 44.2844 18.3234C44.4621 18.0345 45.0621 18.3011 45.0621 18.6789Z" fill="#181818"/>
<path d="M12.3511 18.9456L7.50666 23.8122V25.6122C7.50666 26.6345 7.41777 27.4345 7.28444 27.4345C6.88444 27.4345 6.61777 28.2789 6.81777 28.8345C7.06221 29.4345 7.63999 29.6789 8.32888 29.4122C8.90666 29.19 9.12888 28.19 8.66221 27.7456C8.41777 27.4789 8.32888 26.99 8.37332 25.8122L8.41777 24.2122L12.9955 19.6122C16.6844 15.9234 17.7289 14.99 18.3289 14.8789C19.3511 14.7011 19.1511 14.2345 18.04 14.1456C17.1733 14.1011 17.1289 14.1456 12.3511 18.9456Z" fill="#181818"/>
<path d="M36.2844 14.3225C36.1511 14.5447 37.04 14.9892 37.5733 14.9892C37.7289 14.9892 39.9289 17.0558 42.4622 19.6114L47.0622 24.2114V25.7447C47.0622 26.8558 46.9511 27.3892 46.7067 27.6781C46.24 28.1892 46.44 29.1003 47.0844 29.4336C48.1733 30.0336 49.1733 28.3003 48.1511 27.5669C47.7289 27.2781 47.7067 27.0781 47.7511 25.5669L47.84 23.8781L42.9511 18.9892C38.3511 14.3892 38.0178 14.1003 37.24 14.1003C36.7956 14.1003 36.3511 14.2114 36.2844 14.3225Z" fill="#181818"/>
<path d="M9.39551 14.8561C9.15106 15.0339 8.95106 15.4117 8.95106 15.7228C8.92884 16.0784 8.37329 16.7895 7.21773 17.9228C6.2844 18.8561 5.50662 19.745 5.50662 19.9228C5.50662 20.1228 5.35106 20.3895 5.17329 20.545C4.77329 20.8784 4.72884 21.9006 5.10662 22.2784C5.50662 22.6784 6.2844 22.6117 6.6844 22.145C7.19551 21.5895 7.15106 21.1006 6.61773 20.5895C6.15106 20.1673 6.17329 20.1673 7.86218 18.4561C8.99551 17.3228 9.72884 16.7673 10.0844 16.7673C10.6844 16.7673 11.3066 15.9895 11.1288 15.4561C10.9733 15.0339 10.4177 14.545 10.0622 14.545C9.92884 14.545 9.61773 14.6784 9.39551 14.8561Z" fill="#181818"/>
<path d="M44.5066 14.9896C43.9066 15.6563 44.2843 16.6341 45.1732 16.7229C45.6399 16.7674 46.3066 17.2563 47.4621 18.3896C49.1066 20.0118 49.3066 20.3896 48.7288 20.6341C48.3288 20.7896 48.2843 21.9007 48.6621 22.2785C49.0399 22.6563 49.8621 22.6118 50.2621 22.1896C50.7066 21.7452 50.7066 21.1229 50.2843 20.6785C50.1066 20.5007 49.951 20.2118 49.951 20.0563C49.951 19.9007 49.151 18.9674 48.1732 17.9896C46.9288 16.7452 46.3955 16.0563 46.3955 15.6785C46.3955 14.6563 45.1955 14.2118 44.5066 14.9896Z" fill="#181818"/>
<path d="M20.4399 15.3675C18.9066 15.7009 18.7732 15.7675 18.2399 16.6342C17.9288 17.1231 16.8843 18.7675 15.9066 20.2564C14.4621 22.4564 14.1954 23.0342 14.3732 23.3675C14.8843 24.2342 15.2843 25.5009 15.1288 25.7231C15.0399 25.8564 14.8621 26.1231 14.7066 26.3231C14.551 26.5009 13.9066 27.3453 13.2843 28.212L12.1732 29.7675L13.5732 31.212C14.3288 32.012 15.4177 33.1453 15.9954 33.7675L17.0399 34.8786L16.8177 35.9898C16.7066 36.5898 16.551 37.3898 16.4843 37.7675C16.4177 38.1231 16.2843 38.8342 16.1732 39.3231L15.9732 40.212L17.8177 42.0786L19.6843 43.9453L20.6399 43.1898C21.1732 42.7675 21.6621 42.3898 21.7288 42.3231C21.7954 42.2564 22.8399 41.4564 24.0621 40.5453C25.2621 39.6342 26.3954 38.7675 26.5732 38.6342C26.8843 38.412 26.9732 38.0564 27.1954 35.9898L27.3066 34.8786L26.0177 34.1009C23.9288 32.8342 21.4621 30.3453 23.2399 31.3009C23.5732 31.4786 24.6843 31.9231 25.7288 32.3009L27.6399 32.9898L29.751 32.2342C30.9288 31.812 32.1066 31.3675 32.3732 31.2342C33.9066 30.412 31.7066 32.4786 29.3288 34.0786C28.0843 34.9231 27.9288 35.1009 28.0399 35.612C28.151 36.2564 28.4621 38.1231 28.4843 38.3453C28.5066 38.4564 29.8177 39.4786 34.4621 42.9453L35.751 43.9231L37.5288 42.0564C39.3954 40.0786 39.3288 40.2564 38.951 38.3231C38.8843 38.012 38.751 37.212 38.6399 36.5453C38.5288 35.8786 38.3954 35.212 38.351 35.0564C38.3288 34.9231 39.351 33.7009 40.6843 32.3675C41.9954 31.0564 43.0621 29.8786 43.0621 29.7898C43.0621 29.6786 42.3954 28.7009 41.5954 27.5898L40.1066 25.5898L40.5954 24.212L41.0843 22.812L39.8177 20.8564C39.1288 19.7675 38.1066 18.212 37.5954 17.3898C36.4843 15.7009 36.551 15.7453 35.4621 15.5675C34.9954 15.5009 34.1732 15.3453 33.5954 15.212L32.5732 14.9898L30.1066 16.7231L27.6399 18.4786L25.0399 16.7453C23.5954 15.7675 22.3288 15.012 22.2399 15.012C22.151 15.0342 21.3288 15.1898 20.4399 15.3675ZM24.951 17.6786C26.3066 18.5898 27.4621 19.3453 27.551 19.3898C27.6177 19.4342 28.3288 19.012 29.1066 18.4564C32.9288 15.7231 32.5954 15.8786 33.951 16.1231C34.6177 16.2342 35.3954 16.3898 35.6621 16.4342C35.9288 16.5009 36.351 16.9231 36.6399 17.3675C36.9066 17.8342 37.8177 19.2786 38.6621 20.5898L40.2177 22.9453L39.7066 24.3009L39.2177 25.6786L40.2843 27.212C40.8621 28.0564 41.5288 28.9453 41.751 29.1898C42.151 29.612 42.1066 29.6786 39.7954 32.0786L37.4621 34.5453L37.6399 35.612C37.7288 36.1898 37.8177 36.7453 37.8621 36.8786C37.8843 36.9898 38.0177 37.7231 38.151 38.5009L38.4177 39.9009L37.2399 41.1231C36.5954 41.7898 36.0399 42.4564 35.9954 42.5675C35.951 42.6786 35.8399 42.7675 35.751 42.7675C35.6399 42.7675 34.1732 41.7009 32.4843 40.412C29.351 38.0342 29.2399 37.8786 28.951 36.1675C28.8399 35.4786 28.9288 35.3898 30.2399 34.5009C31.4177 33.7009 36.0177 29.212 35.6621 29.212C35.6177 29.212 35.1066 29.412 34.5288 29.6786C33.951 29.9231 33.3066 30.1675 33.1066 30.212C32.9066 30.2564 31.5954 30.7009 30.2177 31.212L27.7288 32.1675L25.8843 31.4786C24.8843 31.1231 23.1066 30.4786 21.951 30.0342C20.7954 29.612 19.7954 29.3009 19.751 29.3675C19.5288 29.5453 23.9066 33.7009 25.1954 34.5453L26.5288 35.4342L26.3288 36.7009L26.1066 37.9898L22.9066 40.412L19.6843 42.8342L18.3954 41.412C16.9954 39.9009 16.9288 39.7009 17.2843 37.8564C17.4177 37.1898 17.5732 36.3453 17.6399 35.9898C17.6843 35.612 17.7954 35.1675 17.8621 34.9675C17.9288 34.7231 17.1954 33.7898 15.5954 32.1231L13.2399 29.6564L14.7066 27.6786L16.1732 25.6786L15.6843 24.3453C15.1288 22.7675 14.9732 23.1453 17.5732 19.212C19.3954 16.4564 19.3954 16.4564 20.5066 16.212C21.1288 16.0786 21.8177 15.9675 22.0621 15.9898C22.3288 16.012 23.6177 16.7675 24.951 17.6786Z" fill="#181818"/>
<path d="M20.6177 25.0788C21.5288 25.7677 22.4399 26.3232 22.6622 26.3232C22.9733 26.3232 23.951 25.101 23.951 24.7232C23.951 24.6121 22.6622 24.3677 21.2844 24.2121C21.1066 24.1899 20.5066 24.0788 19.951 23.9899L18.951 23.8121L20.6177 25.0788Z" fill="#181818"/>
<path d="M35.2622 23.9899C35.1955 24.0344 34.7066 24.1455 34.1511 24.2121C33.6178 24.2788 32.7511 24.4121 32.2178 24.501L31.2844 24.6566L31.84 25.4788C32.1511 25.9455 32.5511 26.3232 32.7289 26.3232C33.0178 26.3232 36.1733 24.1677 36.1733 23.9677C36.1733 23.8344 35.3733 23.8566 35.2622 23.9899Z" fill="#181818"/>
<path d="M12.6622 21.3229L9.5066 24.5451L9.59549 28.434C9.66216 30.6784 9.61771 32.3229 9.5066 32.3229C9.39549 32.3229 9.19549 32.5451 9.03993 32.7895C8.52882 33.7673 9.61771 34.8562 10.5733 34.3451C11.1955 34.0117 11.3066 33.3006 10.8177 32.6784C10.4399 32.1895 10.3955 31.7451 10.3955 28.4117V24.6784L12.1288 22.9895C13.7288 21.434 16.3066 18.1006 15.8844 18.1006C15.8399 18.1006 14.3733 19.5451 12.6622 21.3229ZM10.3066 33.1006C10.3733 33.2784 10.3733 33.5229 10.2844 33.6562C10.0622 34.0117 9.5066 33.5006 9.66216 33.0784C9.81771 32.6784 10.151 32.6784 10.3066 33.1006Z" fill="#181818"/>
<path d="M39.64 18.5677C40.6844 20.2566 41.7289 21.5899 43.1511 22.9899L44.84 24.6344V28.4566C44.84 31.5677 44.7733 32.3233 44.5066 32.5455C43.9955 32.9677 44.1066 33.8122 44.7289 34.2344C45.24 34.5677 45.3289 34.5677 45.84 34.2344C46.4622 33.8122 46.5733 32.9677 46.0622 32.5455C45.7955 32.3233 45.7289 31.5677 45.7289 28.3677V24.4566L42.7955 21.4566C39.9955 18.5899 39.1955 17.8566 39.64 18.5677ZM45.6622 33.101C45.8177 33.5455 45.6177 33.7455 45.1955 33.5899C44.9955 33.501 44.9066 33.301 44.9733 33.101C45.1511 32.6788 45.4844 32.6788 45.6622 33.101Z" fill="#181818"/>
<path d="M3.81772 24.4342C3.63994 24.723 3.52883 25.0786 3.61772 25.2119C3.83994 25.5675 2.86217 26.5453 2.28439 26.5453C1.28439 26.5453 0.662166 27.5453 1.1955 28.3008C1.86217 29.2342 3.5955 28.5897 3.21772 27.5453C3.06217 27.1675 4.1955 26.1008 4.77328 26.1008C5.30661 26.1008 5.95106 25.5675 5.95106 25.1453C5.95106 24.9897 5.7955 24.6342 5.5955 24.3675C5.12883 23.7008 4.28439 23.723 3.81772 24.4342Z" fill="#181818"/>
<path d="M49.8621 24.1675C49.5954 24.3675 49.4843 24.6786 49.551 25.1008C49.5954 25.6341 49.7732 25.8119 50.3288 25.9897C51.2843 26.3008 52.1288 27.123 52.2177 27.8341C52.2621 28.123 52.4843 28.523 52.7288 28.6786C53.3288 29.0786 54.2621 28.6341 54.351 27.9008C54.4621 27.2119 53.7732 26.4786 53.1288 26.6119C52.4843 26.723 51.5954 25.8119 51.6843 25.123C51.8177 24.123 50.7066 23.5453 49.8621 24.1675Z" fill="#181818"/>
<path d="M7.23992 30.856C7.0177 31.0116 6.83992 31.3894 6.83992 31.7005C6.83992 32.3671 5.8177 33.3449 5.08436 33.3894C4.4177 33.4116 4.15103 33.8116 4.2177 34.656C4.30659 35.5671 5.28436 35.9449 5.95103 35.3227C6.19548 35.1005 6.37325 34.7449 6.35103 34.5449C6.28436 34.1449 7.4177 32.6782 7.66214 32.8338C7.77325 32.9005 8.06214 32.856 8.35103 32.7449C9.0177 32.5005 9.06214 31.1227 8.4177 30.7671C7.86214 30.4782 7.70659 30.5005 7.23992 30.856Z" fill="#181818"/>
<path d="M46.751 30.9007C46.0843 31.5674 46.5288 32.8118 47.4621 32.8785C48.1288 32.9229 49.0621 33.8563 49.0621 34.4563C49.0621 35.0563 49.6177 35.6562 50.151 35.6562C50.6399 35.6562 51.2843 34.9674 51.2843 34.4785C51.2843 33.9229 50.4177 33.1451 50.0177 33.3229C49.5066 33.5007 48.6177 32.5896 48.6177 31.8563C48.6177 31.4785 48.4399 31.1007 48.1288 30.9007C47.5066 30.4563 47.1732 30.4563 46.751 30.9007Z" fill="#181818"/>
<path d="M12.3954 33.7005C12.3954 35.9671 12.2399 36.3227 11.2843 36.3227C10.5732 36.3227 10.1732 36.7005 10.1732 37.3227C10.1732 37.8783 10.8177 38.5449 11.351 38.5449C11.8843 38.5449 12.4177 37.8783 12.351 37.3227C12.3288 37.056 12.4621 36.656 12.6843 36.456C13.1954 35.9227 13.2399 32.3005 12.7288 31.8783C12.4399 31.6338 12.3954 31.856 12.3954 33.7005Z" fill="#181818"/>
<path d="M42.44 32.1007C42.2845 32.3452 42.1733 33.2785 42.1733 34.2785C42.1733 35.7674 42.24 36.1007 42.6178 36.434C42.8845 36.6563 43.0178 36.9896 42.9511 37.1674C42.8845 37.3452 42.9956 37.7229 43.1733 38.0118C43.64 38.7229 44.5067 38.7007 44.9733 37.9896C45.3067 37.4785 45.3067 37.3896 44.9733 36.8785C44.7511 36.5452 44.3956 36.3229 44.1067 36.3229C43.2178 36.3229 43.0622 35.9229 43.0622 33.7229C43.0622 32.5896 42.9956 31.6563 42.8845 31.6563C42.7956 31.6563 42.5956 31.8563 42.44 32.1007Z" fill="#181818"/>
<path d="M14.1733 35.4337V37.5448L12.0622 39.6559L9.95109 41.767V43.2337C9.95109 44.2781 9.8622 44.7893 9.61775 44.9893C8.92886 45.567 9.50664 46.9893 10.44 46.9893C11.2844 46.9893 11.84 45.5448 11.1733 44.9893C10.9511 44.7893 10.84 44.2781 10.84 43.3226V41.9448L12.9066 39.967L14.9511 37.967L14.8844 36.1004C14.84 34.9448 14.7066 34.0781 14.5066 33.7893C14.1955 33.3893 14.1733 33.5226 14.1733 35.4337ZM10.7289 45.4337C10.8178 45.567 10.7511 45.8337 10.5955 46.0115C10.3511 46.3226 10.3066 46.3226 10.1289 46.0115C9.79553 45.4337 10.3955 44.8781 10.7289 45.4337Z" fill="#181818"/>
<path d="M40.7955 33.8122C40.4844 34.1455 40.3955 34.6566 40.3955 36.1455V38.0344L42.4622 40.0122L44.5288 41.99L44.5066 43.3233C44.5066 44.2566 44.3955 44.7677 44.1511 45.0122C43.6622 45.5011 43.8622 46.5233 44.5066 46.8122C45.4844 47.2566 46.4622 46.19 45.9511 45.2122C45.8177 44.9677 45.6177 44.7677 45.5066 44.7677C45.3733 44.7677 45.2844 44.1011 45.2844 43.2566V41.7677L43.2844 39.7677L41.3066 37.79L41.24 35.59C41.1733 33.4788 41.1511 33.4122 40.7955 33.8122ZM45.24 45.7011C45.1955 45.99 45.0844 46.2122 44.9511 46.2122C44.84 46.2122 44.7066 45.99 44.6622 45.7011C44.6177 45.3677 44.7066 45.2122 44.9511 45.2122C45.1955 45.2122 45.2844 45.3677 45.24 45.7011Z" fill="#181818"/>
<path d="M8.3066 34.9005C8.1066 35.0782 7.95105 35.456 7.95105 35.7449C7.95105 36.0338 7.5066 36.656 6.83993 37.3227C5.77327 38.3671 5.72882 38.4782 5.72882 39.6338C5.72882 40.5893 5.61771 40.9671 5.23993 41.3671C4.77327 41.856 4.77327 41.9449 5.08438 42.5005C5.55105 43.3449 6.57327 43.3449 7.03993 42.5005C7.35105 41.9449 7.35105 41.856 6.88438 41.3671C6.55105 41.0116 6.39549 40.5671 6.39549 39.9449C6.39549 39.1449 6.55105 38.8782 7.5066 37.8782C8.21771 37.1227 8.75105 36.7671 8.95105 36.856C9.37327 37.0116 10.1733 36.2338 10.1733 35.6782C10.1733 35.2338 9.41771 34.5449 8.9066 34.5449C8.77327 34.5449 8.48438 34.7005 8.3066 34.9005ZM6.3066 42.2338C6.19549 42.5227 6.08438 42.5449 5.9066 42.3671C5.77327 42.2338 5.72882 41.9671 5.81771 41.7449C5.92882 41.456 6.03993 41.4338 6.21771 41.6116C6.35105 41.7449 6.39549 42.0116 6.3066 42.2338Z" fill="#181818"/>
<path d="M45.6622 34.8564C45.0177 35.3452 45.0177 36.0341 45.64 36.523C45.9511 36.7675 46.3288 36.923 46.4622 36.8564C46.6177 36.8119 47.1955 37.2341 47.7733 37.8119C48.64 38.723 48.8177 39.0341 48.8844 39.923C48.9288 40.723 48.8622 41.0119 48.5733 41.1897C47.7733 41.7008 48.3066 43.2119 49.2844 43.2119C50.2177 43.2119 50.7733 41.8119 50.0622 41.2119C49.84 41.0341 49.7288 40.523 49.7288 39.7008C49.7288 38.5008 49.6844 38.4341 48.5511 37.3452C47.8622 36.6786 47.4177 36.0564 47.4622 35.8341C47.5511 35.4119 46.7733 34.5452 46.3511 34.5452C46.1955 34.5452 45.8844 34.7008 45.6622 34.8564ZM46.7955 35.8119C46.84 35.9897 46.6844 36.1008 46.4177 36.1008C46.1511 36.1008 45.9511 35.9675 45.9511 35.7452C45.9511 35.3452 46.64 35.4119 46.7955 35.8119ZM49.5511 41.7008C49.7511 42.2119 49.5066 42.5897 49.1733 42.323C48.9955 42.1897 48.9288 41.923 48.9955 41.7452C49.1288 41.3675 49.4177 41.3452 49.5511 41.7008Z" fill="#181818"/>
<path d="M25.84 41.0115C24.9733 41.5004 23.64 42.2781 22.84 42.7004C22.04 43.1448 21.1955 43.6115 20.9511 43.7448C20.7066 43.8781 20.4844 44.0115 20.44 44.0115C20.4178 44.0337 21.1066 45.167 21.9955 46.5448C23.44 48.7892 23.6178 48.9892 23.8844 48.6337C24.04 48.4115 24.1733 48.1004 24.1733 47.9448C24.1733 47.7892 24.1955 47.6559 24.24 47.6559C24.2844 47.6559 25.04 48.367 25.9289 49.2115C26.8178 50.0781 27.64 50.767 27.7511 50.7226C27.84 50.6781 28.64 49.967 29.5066 49.1448L31.0622 47.6115L31.3066 48.3004C31.5733 49.0337 31.84 49.1892 32.0178 48.7004C32.0844 48.5226 32.7511 47.4559 33.4844 46.3226C34.24 45.167 34.84 44.167 34.84 44.1004C34.84 44.0115 34.5733 43.8115 34.24 43.6337C33.8844 43.4781 33.1733 43.0781 32.6178 42.7448C30.5733 41.5892 27.7511 40.1004 27.5733 40.1004C27.4622 40.1004 26.6844 40.5004 25.84 41.0115ZM28.7733 41.567C29.3511 41.9004 30.4844 42.5226 31.2844 42.967C32.0844 43.4115 32.9066 43.8559 33.1511 43.9892C33.7066 44.2781 33.6844 44.4337 32.6844 46.0337C31.84 47.4115 31.5066 47.7226 31.5066 47.1226C31.5066 46.3448 30.9511 46.6115 29.3955 48.1226L27.7289 49.7226L27.1289 49.1892C26.8178 48.9004 26.04 48.1892 25.4178 47.5892C24.2622 46.5004 23.9511 46.3448 23.9511 46.8559C23.9511 47.6337 23.5066 47.3226 22.6178 45.9226C22.1066 45.1004 21.7066 44.3892 21.7289 44.3226C21.7511 44.2559 22.3955 43.8781 23.1289 43.4781C23.8844 43.0781 24.9511 42.4781 25.5066 42.1448C26.5289 41.567 27.5733 40.9892 27.6622 40.9892C27.6844 40.9892 28.1955 41.2559 28.7733 41.567Z" fill="#181818"/>
<path d="M12.0844 41.4781C11.6177 42.1448 11.6399 42.4781 12.1733 42.8115C12.5733 43.0559 12.6177 43.3226 12.6177 45.1004C12.5955 46.7226 12.5288 47.1893 12.1955 47.6115C11.951 47.9004 11.6177 48.0559 11.4399 47.967C10.5733 47.6559 9.70661 48.7893 10.1733 49.6559C10.6622 50.5893 12.1733 50.0781 12.3288 48.9226C12.3733 48.6559 12.5955 48.3004 12.8399 48.1226C13.2399 47.8559 13.2844 47.567 13.2844 45.3893C13.2844 43.4559 13.351 42.9448 13.6177 42.8559C14.0177 42.7004 14.0622 41.6337 13.6844 41.2559C13.2622 40.8337 12.4622 40.9448 12.0844 41.4781ZM13.2177 42.0115C13.4177 42.567 12.9288 42.9004 12.6399 42.367C12.4177 41.9448 12.5066 41.6559 12.8844 41.6559C12.9955 41.6559 13.1288 41.8115 13.2177 42.0115Z" fill="#181818"/>
<path d="M14.8844 41.256C14.6844 41.456 14.6177 42.9671 14.6177 46.656C14.6177 52.056 14.5733 52.3227 13.6177 52.3227C13.0622 52.3227 12.3955 52.9671 12.3955 53.4783C12.3955 53.9449 13.1066 54.5449 13.6844 54.5449C14.2177 54.5449 14.9511 53.5894 14.7288 53.2116C14.64 53.0783 14.7733 52.7449 15.04 52.456C15.4622 52.0116 15.4844 51.7227 15.5066 46.7671C15.5066 43.9005 15.5288 41.4116 15.5066 41.256C15.5066 40.9227 15.24 40.9005 14.8844 41.256Z" fill="#181818"/>
<path d="M39.7733 41.2783C39.6178 41.456 39.5733 41.6338 39.64 41.7005C39.7067 41.7671 39.7511 44.1449 39.7289 46.9671C39.7289 51.8783 39.7289 52.1005 40.1733 52.3671C40.44 52.5449 40.6178 52.9005 40.6178 53.2783C40.6178 54.056 41.0844 54.5449 41.7733 54.5449C42.4622 54.5449 42.84 54.1449 42.84 53.4338C42.84 52.7005 42.4622 52.3227 41.7067 52.3227C41.3733 52.3227 40.9955 52.1894 40.8622 52.0338C40.7067 51.8338 40.5955 49.8783 40.5733 46.4338C40.5067 41.1671 40.3955 40.5005 39.7733 41.2783Z" fill="#181818"/>
<path d="M41.5066 41.4118C41.1955 42.0118 41.2177 42.3451 41.6399 42.7895C41.9288 43.1229 41.9955 43.634 41.9733 45.3673C41.9288 47.4562 41.951 47.5895 42.4844 48.1007C42.8177 48.3895 43.0622 48.834 43.0622 49.1007C43.0622 49.3451 43.1733 49.6784 43.3288 49.834C43.6622 50.1673 44.6844 50.1673 45.0177 49.834C45.6844 49.1673 45.0177 47.7895 44.0622 47.9229C43.0622 48.0562 42.8399 47.5673 42.8399 45.1895C42.8399 43.9229 42.9288 42.9895 43.0622 42.9895C43.1733 42.9895 43.3733 42.7895 43.5066 42.5229C43.7066 42.1673 43.6844 41.9451 43.3955 41.5229C42.951 40.8562 41.8622 40.7895 41.5066 41.4118ZM42.8399 42.0784C42.8399 42.6118 42.2622 42.8562 42.0844 42.3895C41.9066 41.9673 42.1066 41.6562 42.5288 41.6562C42.7066 41.6562 42.8399 41.8562 42.8399 42.0784ZM44.4844 48.9007C44.6622 49.3895 44.6622 49.434 44.3066 49.434C43.9066 49.434 43.6622 49.0784 43.8399 48.7673C44.0399 48.434 44.3288 48.5007 44.4844 48.9007Z" fill="#181818"/>
<path d="M17.4622 46.0338C17.5067 47.4782 17.64 48.7671 17.7733 48.9227C17.8844 49.0782 17.9289 49.3005 17.84 49.4338C17.7511 49.5671 17.8622 49.9227 18.04 50.2116C18.7733 51.3449 20.4844 50.5227 20.04 49.256C19.8844 48.7893 19.64 48.6338 19.0622 48.5449L18.2844 48.4338V46.3005C18.2844 44.3227 18.0622 43.4338 17.5289 43.4338C17.4622 43.4338 17.4178 44.6116 17.4622 46.0338Z" fill="#181818"/>
<path d="M37.2844 43.8561C37.1733 44.1006 37.0622 45.2117 37.0622 46.3228C37.0622 47.745 36.9733 48.3672 36.7956 48.4117C36.64 48.4784 36.24 48.5672 35.9289 48.6339C35.1956 48.7895 34.9511 49.5672 35.4178 50.2561C36.0178 51.1895 37.5067 50.6561 37.5067 49.4784C37.5067 49.2339 37.6178 48.945 37.7289 48.8784C38.0178 48.7006 38.0178 43.4339 37.7289 43.4339C37.6178 43.4339 37.4178 43.6339 37.2844 43.8561Z" fill="#181818"/>
<path d="M21.3288 49.0341C20.6399 49.723 21.3288 51.0785 22.3066 50.9452C22.6622 50.9007 23.0844 51.1452 23.6844 51.723L24.5733 52.5896L22.5955 54.4785L20.6177 56.3896V58.323C20.6177 59.7896 20.5288 60.3452 20.2844 60.5452C19.3066 61.3674 20.4399 62.9007 21.6177 62.3674C22.2622 62.0785 22.3955 61.0118 21.8399 60.5452C21.5955 60.3452 21.5066 59.8118 21.5066 58.5674V56.8785L23.5066 54.8785C24.6177 53.7896 25.5066 52.7896 25.5066 52.6785C25.5066 52.5452 25.0399 51.9674 24.4622 51.3896C23.8844 50.8118 23.3066 50.0118 23.1955 49.6118C22.9955 49.0341 22.8177 48.8563 22.2844 48.8118C21.9066 48.7674 21.4844 48.8785 21.3288 49.0341ZM22.5288 49.6785C22.7066 49.9896 22.1288 50.3674 21.8622 50.1007C21.6622 49.9007 21.8622 49.4341 22.1733 49.4341C22.2844 49.4341 22.4399 49.5452 22.5288 49.6785ZM21.4399 61.123C21.6177 61.5674 21.2622 61.923 20.8622 61.6785C20.5288 61.4563 20.6844 60.7674 21.0622 60.7674C21.1955 60.7674 21.351 60.923 21.4399 61.123Z" fill="#181818"/>
<path d="M32.4399 48.9675C32.2843 49.0564 32.1288 49.4119 32.0843 49.7231C32.0399 50.0786 31.5732 50.7231 30.8177 51.4342L29.6399 52.5453L31.7066 54.6342L33.7732 56.7008L33.7954 58.4564C33.8177 59.5231 33.751 60.3008 33.5954 60.4342C33.4399 60.5453 33.2843 60.9231 33.1954 61.2564C33.0843 61.7453 33.1732 61.9453 33.5954 62.2342C34.6621 62.9008 35.8399 61.9231 35.2621 60.8564C35.1066 60.5675 34.9066 60.3231 34.7954 60.3231C34.7066 60.3231 34.6177 59.4564 34.6177 58.3675V56.4342L32.7288 54.5453L30.8399 52.6786L31.751 51.7453C32.2621 51.2342 32.7954 50.8564 32.9732 50.9231C33.4399 51.1008 34.1066 50.6119 34.2177 50.0119C34.3954 49.0786 33.2843 48.4342 32.4399 48.9675ZM33.4177 49.6786C33.4843 49.8119 33.4399 50.0342 33.3066 50.1675C33.1066 50.3675 32.9954 50.3453 32.8399 50.1008C32.6399 49.7675 32.751 49.4342 33.0621 49.4342C33.1732 49.4342 33.3288 49.5453 33.4177 49.6786ZM34.6177 61.2119C34.6177 61.4564 34.4621 61.6564 34.2843 61.6564C34.1066 61.6564 33.951 61.4564 33.951 61.2119C33.951 60.9675 34.1066 60.7675 34.2843 60.7675C34.4621 60.7675 34.6177 60.9675 34.6177 61.2119Z" fill="#181818"/>
<path d="M19.5067 51.6786C19.3511 51.923 19.3067 52.2563 19.3511 52.4119C19.4178 52.5674 18.8622 53.3008 18.1511 54.0119C17.1733 54.9674 16.84 55.4563 16.9067 55.7897C16.9511 56.0786 16.84 56.3674 16.5733 56.523C16.3289 56.6786 16.1733 57.0341 16.1733 57.4341C16.1733 58.3008 16.9956 58.7452 17.84 58.3674C18.5511 58.0341 18.6178 56.9008 17.9511 56.5452C17.7067 56.4119 17.5067 56.2119 17.5067 56.0786C17.5067 55.9674 18.0845 55.3008 18.7956 54.6119C19.6622 53.723 20.2178 53.3674 20.5511 53.4119C20.8622 53.4341 21.1733 53.2563 21.4178 52.9008C21.7511 52.3674 21.7511 52.2786 21.4178 51.7674C20.9511 51.0563 19.8622 50.9897 19.5067 51.6786ZM20.7289 52.323C20.7289 52.4786 20.5733 52.6341 20.3733 52.6786C20.04 52.723 19.9956 52.5897 20.1511 51.923C20.1956 51.7008 20.7289 52.0786 20.7289 52.323ZM17.6845 57.2563C17.5289 57.6786 16.84 57.7452 16.84 57.3452C16.84 57.123 17.04 56.9897 17.3067 56.9897C17.5733 56.9897 17.7289 57.1008 17.6845 57.2563Z" fill="#181818"/>
<path d="M33.9955 51.4789C33.3289 52.1456 33.9733 53.59 34.8178 53.3678C35.1955 53.2789 35.5511 53.5234 36.4622 54.4789C37.0844 55.1456 37.64 55.79 37.6844 55.8789C37.7289 55.99 37.5289 56.3678 37.2622 56.7456C36.7955 57.39 36.7955 57.4345 37.1511 57.9678C37.5955 58.6567 38.3955 58.7234 38.9067 58.1456C39.4178 57.59 39.3733 57.1456 38.8178 56.6345C38.5511 56.39 38.4178 56.0567 38.4844 55.79C38.5733 55.4789 38.24 54.99 37.2844 54.0123C36.5067 53.2345 35.9511 52.4789 35.9511 52.2123C35.9511 51.9456 35.84 51.6345 35.6844 51.4789C35.3511 51.1456 34.3289 51.1456 33.9955 51.4789ZM38.2844 57.2789C38.2844 57.8567 37.84 57.8345 37.7733 57.2345C37.7067 56.8789 37.7955 56.7456 37.9955 56.8123C38.1511 56.8789 38.2844 57.0789 38.2844 57.2789Z" fill="#181818"/>
<path d="M25.2844 55.19C25.1733 55.4344 25.0622 55.79 25.0622 55.99C25.0622 56.19 24.751 56.6122 24.3733 56.9233C23.9955 57.2566 23.5955 57.7233 23.4844 57.9677C23.3733 58.2344 23.1733 58.59 23.0399 58.79C22.6177 59.3455 22.9733 60.3011 23.6622 60.4566C23.9733 60.5455 24.3955 60.5011 24.5955 60.39C25.0844 60.0788 25.1955 58.8122 24.751 58.6344C24.551 58.5677 24.3955 58.3677 24.3955 58.2122C24.3955 57.7455 25.6622 56.79 26.1288 56.9233C26.5955 57.0344 27.2844 56.4788 27.2844 55.9677C27.2844 55.2566 26.8177 54.7677 26.1733 54.7677C25.751 54.7677 25.4399 54.9233 25.2844 55.19ZM24.2844 59.3233C24.2844 59.5455 24.1733 59.7677 24.0399 59.8122C23.751 59.9011 23.4399 59.2788 23.6399 58.9677C23.8399 58.6344 24.2844 58.8788 24.2844 59.3233Z" fill="#181818"/>
<path d="M28.4399 55.0341C28.0622 55.4119 28.1066 56.4341 28.4844 56.7674C28.6622 56.9008 29.0399 56.9896 29.3066 56.9452C29.6399 56.9008 30.0399 57.1008 30.4399 57.523L31.0844 58.1674L30.6399 58.5896C30.0622 59.123 30.0399 59.7008 30.6177 60.2119C31.1511 60.7008 32.0622 60.523 32.4177 59.8563C32.6177 59.4563 32.5733 59.2563 32.1955 58.7452C31.9288 58.4119 31.7288 58.0341 31.7288 57.923C31.7288 57.8341 31.3733 57.4119 30.9511 56.9896C30.5066 56.5674 30.2177 56.1008 30.2844 55.923C30.3511 55.7674 30.2844 55.4341 30.1733 55.1896C29.9066 54.7008 28.8622 54.6119 28.4399 55.0341ZM31.6177 59.2785C31.6177 59.8563 31.1733 59.8341 31.1066 59.2341C31.0399 58.8785 31.1288 58.7452 31.3288 58.8119C31.4844 58.8785 31.6177 59.0785 31.6177 59.2785Z" fill="#181818"/>
</svg>
