<svg width="148" height="67" viewBox="0 0 148 67" fill="none" xmlns="http://www.w3.org/2000/svg">
<path d="M19.729 3.32335C19.5068 3.59002 18.8623 3.65668 16.529 3.65668H13.6179L11.6179 5.65668C10.2846 7.01224 9.46234 7.65668 9.129 7.65668C8.64012 7.65668 7.729 8.34557 7.729 8.72335C7.729 9.1678 8.46234 9.87891 8.929 9.87891C9.55123 9.87891 10.2846 9.12335 10.1068 8.67891C10.0179 8.47891 10.6623 7.67891 11.9068 6.45668L13.8401 4.54557H16.5734C18.9734 4.54557 19.3957 4.61224 19.8846 4.9678C20.929 5.81224 22.1512 4.65668 21.4179 3.54557C20.9957 2.92335 20.1512 2.81224 19.729 3.32335Z" fill="white"/>
<path d="M34.1289 3.23446C33.6622 3.50113 33.5956 4.54557 33.9956 4.94557C34.3733 5.32335 35.4844 5.27891 35.64 4.87891C35.7511 4.61224 36.3067 4.54557 38.7067 4.54557H41.6178L43.4622 6.39002C44.7733 7.72335 45.2844 8.3678 45.2844 8.79002C45.2844 9.47891 45.6622 9.87891 46.2844 9.87891C46.84 9.87891 47.5067 9.23446 47.5067 8.72335C47.5067 8.27891 46.7956 7.65668 46.2622 7.65668C46.0178 7.65668 44.9733 6.81224 43.84 5.65668L41.84 3.65668H38.8178C36.3956 3.65668 35.7289 3.59002 35.5067 3.32335C35.1956 2.94557 34.6844 2.90113 34.1289 3.23446Z" fill="white"/>
<path d="M18.7732 6.87871C18.351 7.27871 18.5732 8.27871 19.1287 8.63427C19.4176 8.81204 19.6843 8.78982 20.1954 8.47871C20.6398 8.23427 21.3287 8.10093 22.2398 8.10093C23.3732 8.12316 23.7287 8.21204 24.2398 8.65649C24.5954 8.9676 24.8398 9.41204 24.8398 9.74538C24.8398 10.1009 25.0398 10.4565 25.3954 10.6787C25.9065 11.012 25.9954 11.012 26.5065 10.6787C26.8398 10.4565 27.0621 10.1009 27.0621 9.78982C27.0621 9.14538 26.3287 8.45649 25.751 8.61204C25.4398 8.67871 25.1287 8.50093 24.6843 7.9676C24.0843 7.23427 24.0176 7.21204 22.3732 7.21204C21.1287 7.21204 20.5954 7.12316 20.3954 6.87871C20.0398 6.45649 19.1954 6.45649 18.7732 6.87871ZM20.1287 7.58982C20.1732 7.7676 20.0176 7.87871 19.751 7.87871C19.4843 7.87871 19.2843 7.74538 19.2843 7.52316C19.2843 7.12316 19.9732 7.18982 20.1287 7.58982Z" fill="white"/>
<path d="M34.84 6.87869C34.64 7.12313 34.1066 7.21202 32.9733 7.21202C31.44 7.21202 31.3511 7.23425 30.6178 7.9898C30.2178 8.41202 29.7955 8.70091 29.6844 8.63424C29.3733 8.43424 28.6178 8.76758 28.3733 9.23424C28.0178 9.90091 28.6622 10.7676 29.5066 10.7676C30.1955 10.7676 30.7511 10.1009 30.5511 9.54536C30.4844 9.3898 30.7066 9.01202 31.0178 8.70091C31.5289 8.21202 31.8622 8.12313 33.1066 8.07869C34.24 8.03425 34.6622 8.12313 34.9511 8.3898C35.44 8.87869 36.0178 8.85647 36.4622 8.36758C36.9066 7.87869 36.9511 7.1898 36.5733 6.81202C36.1955 6.43425 35.1733 6.47869 34.84 6.87869Z" fill="white"/>
<path d="M11.7289 8.9227C11.2845 9.10048 11.0623 9.45603 11.0623 9.98937C11.0623 10.5449 7.21781 14.4338 6.86225 14.2338C6.52892 14.0116 5.77336 14.4783 5.61781 14.9894C5.41781 15.5894 6.04003 16.5449 6.61781 16.5449C7.21781 16.5449 7.99559 15.7227 7.86225 15.256C7.66225 14.6783 11.3956 11.0338 12.2845 10.9449C13.1734 10.856 13.5511 9.87825 12.9511 9.21159C12.5511 8.76714 12.3067 8.70048 11.7289 8.9227Z" fill="white"/>
<path d="M42.5732 9.01159C42.1066 9.27825 42.0399 10.3227 42.4399 10.7227C42.5954 10.8783 42.9066 10.9894 43.1732 10.9894C43.7954 10.9894 47.6399 14.8116 47.551 15.3227C47.4399 15.7894 48.1288 16.5449 48.6399 16.5449C49.1954 16.5449 49.7288 15.9449 49.7288 15.3227C49.7288 14.7227 48.7954 13.9671 48.3732 14.2116C48.2399 14.3227 47.351 13.5894 46.1732 12.4338C44.7288 11.0116 44.2621 10.3894 44.3288 10.0783C44.4621 9.56714 43.8177 8.76714 43.3066 8.76714C43.1066 8.76714 42.7732 8.87825 42.5732 9.01159Z" fill="white"/>
<path d="M14.2845 10.7673C13.6845 11.3895 13.2178 11.6561 12.7956 11.6561C11.6178 11.6561 11.329 13.3673 12.4401 13.745C13.1734 14.0117 13.9512 13.4339 13.9512 12.6561C13.9512 12.4117 14.2845 11.8784 14.6845 11.4784L15.4178 10.7673H18.3067H21.1734L23.3512 12.945C24.529 14.1228 25.5067 15.2784 25.5067 15.4784C25.5067 15.7673 25.929 16.1006 26.3067 16.1006C26.3512 16.1006 26.3956 15.8339 26.3956 15.4784C26.3956 14.9895 25.8845 14.345 23.8845 12.3673L21.3956 9.87836H18.2623H15.1512L14.2845 10.7673Z" fill="white"/>
<path d="M31.4398 12.2786C29.3287 14.4119 29.062 14.7452 29.062 15.4341L29.0842 16.2119L29.662 15.5452C29.9731 15.1675 31.1065 13.9452 32.1953 12.8119L34.1287 10.7675H36.9953H39.862L40.6842 11.6119C41.1287 12.0786 41.5065 12.6564 41.5065 12.9008C41.5065 13.4786 41.9287 13.8786 42.5065 13.8786C43.062 13.8786 43.7287 13.2341 43.7287 12.723C43.7287 12.2341 42.9953 11.6564 42.3731 11.6564C42.0176 11.6564 41.5065 11.323 40.9509 10.7675L40.0842 9.87858H36.9509H33.8398L31.4398 12.2786Z" fill="white"/>
<path d="M13.8399 14.9007C11.7955 17.0118 11.0399 17.6563 10.6177 17.6563C9.43995 17.6563 9.08439 18.9229 10.0622 19.5674C10.5733 19.9007 10.6622 19.9007 11.1733 19.5674C11.4844 19.3674 11.7288 18.9896 11.7288 18.7007C11.7288 18.3674 12.5511 17.3674 14.3511 15.5896L16.9511 12.9896H18.4177C19.6844 12.9896 19.9511 13.0563 20.3955 13.5452C20.8844 14.0563 21.9511 14.3229 21.9511 13.9229C21.9511 13.834 21.5733 13.3674 21.1066 12.9229C20.2622 12.1007 20.2622 12.1007 18.3955 12.1229H16.5066L13.8399 14.9007Z" fill="white"/>
<path d="M34.1734 13.1011C33.2623 14.0345 33.2178 14.1011 33.7289 14.1011C34.0178 14.1011 34.5289 13.8345 34.8845 13.5011C35.44 12.9678 35.64 12.9234 36.9956 12.9678L38.5067 13.0122L41.1289 15.6122C42.7511 17.2345 43.6845 18.3234 43.6178 18.5234C43.4845 18.8789 44.3289 19.8789 44.7734 19.8789C45.1734 19.8789 45.9511 19.0789 45.9511 18.6567C45.9511 18.1456 45.1289 17.4345 44.6623 17.5456C44.3734 17.59 43.44 16.8122 41.4845 14.8567L38.7289 12.1011H36.9511H35.1511L34.1734 13.1011ZM45.0623 18.6789C45.0623 19.0345 44.4845 19.1011 44.2845 18.7678C44.2178 18.6345 44.1956 18.4567 44.2845 18.3234C44.4623 18.0345 45.0623 18.3011 45.0623 18.6789Z" fill="white"/>
<path d="M12.3509 18.9456L7.50641 23.8122V25.6122C7.50641 26.6345 7.41752 27.4345 7.28419 27.4345C6.88419 27.4345 6.61752 28.2789 6.81752 28.8345C7.06197 29.4345 7.63975 29.6789 8.32864 29.4122C8.90641 29.19 9.12864 28.19 8.66197 27.7456C8.41752 27.4789 8.32864 26.99 8.37308 25.8122L8.41752 24.2122L12.9953 19.6122C16.6842 15.9234 17.7286 14.99 18.3286 14.8789C19.3509 14.7011 19.1509 14.2345 18.0397 14.1456C17.1731 14.1011 17.1286 14.1456 12.3509 18.9456Z" fill="white"/>
<path d="M36.2844 14.3225C36.1511 14.5447 37.04 14.9892 37.5733 14.9892C37.7289 14.9892 39.9289 17.0558 42.4622 19.6114L47.0622 24.2114V25.7447C47.0622 26.8558 46.9511 27.3892 46.7067 27.6781C46.24 28.1892 46.44 29.1003 47.0844 29.4336C48.1733 30.0336 49.1733 28.3003 48.1511 27.5669C47.7289 27.2781 47.7067 27.0781 47.7511 25.5669L47.84 23.8781L42.9511 18.9892C38.3511 14.3892 38.0178 14.1003 37.24 14.1003C36.7956 14.1003 36.3511 14.2114 36.2844 14.3225Z" fill="white"/>
<path d="M9.39539 14.8561C9.15094 15.0339 8.95094 15.4117 8.95094 15.7228C8.92872 16.0784 8.37316 16.7895 7.21761 17.9228C6.28428 18.8561 5.5065 19.745 5.5065 19.9228C5.5065 20.1228 5.35094 20.3895 5.17316 20.545C4.77316 20.8784 4.72872 21.9006 5.1065 22.2784C5.5065 22.6784 6.28428 22.6117 6.68428 22.145C7.19539 21.5895 7.15094 21.1006 6.61761 20.5895C6.15094 20.1673 6.17316 20.1673 7.86205 18.4561C8.99539 17.3228 9.72872 16.7673 10.0843 16.7673C10.6843 16.7673 11.3065 15.9895 11.1287 15.4561C10.9732 15.0339 10.4176 14.545 10.0621 14.545C9.92872 14.545 9.61761 14.6784 9.39539 14.8561Z" fill="white"/>
<path d="M44.5067 14.9896C43.9067 15.6563 44.2845 16.6341 45.1734 16.7229C45.64 16.7674 46.3067 17.2563 47.4622 18.3896C49.1067 20.0118 49.3067 20.3896 48.7289 20.6341C48.3289 20.7896 48.2845 21.9007 48.6622 22.2785C49.04 22.6563 49.8622 22.6118 50.2622 22.1896C50.7067 21.7452 50.7067 21.1229 50.2845 20.6785C50.1067 20.5007 49.9511 20.2118 49.9511 20.0563C49.9511 19.9007 49.1511 18.9674 48.1734 17.9896C46.9289 16.7452 46.3956 16.0563 46.3956 15.6785C46.3956 14.6563 45.1956 14.2118 44.5067 14.9896Z" fill="white"/>
<path d="M20.44 15.3675C18.9067 15.7009 18.7733 15.7675 18.24 16.6342C17.9289 17.1231 16.8845 18.7675 15.9067 20.2564C14.4622 22.4564 14.1956 23.0342 14.3733 23.3675C14.8845 24.2342 15.2845 25.5009 15.1289 25.7231C15.04 25.8564 14.8622 26.1231 14.7067 26.3231C14.5511 26.5009 13.9067 27.3453 13.2845 28.212L12.1733 29.7675L13.5733 31.212C14.3289 32.012 15.4178 33.1453 15.9956 33.7675L17.04 34.8786L16.8178 35.9898C16.7067 36.5898 16.5511 37.3898 16.4845 37.7675C16.4178 38.1231 16.2845 38.8342 16.1733 39.3231L15.9733 40.212L17.8178 42.0786L19.6845 43.9453L20.64 43.1898C21.1733 42.7675 21.6622 42.3898 21.7289 42.3231C21.7956 42.2564 22.84 41.4564 24.0622 40.5453C25.2622 39.6342 26.3956 38.7675 26.5733 38.6342C26.8845 38.412 26.9733 38.0564 27.1956 35.9898L27.3067 34.8786L26.0178 34.1009C23.9289 32.8342 21.4622 30.3453 23.24 31.3009C23.5733 31.4786 24.6845 31.9231 25.7289 32.3009L27.64 32.9898L29.7511 32.2342C30.9289 31.812 32.1067 31.3675 32.3733 31.2342C33.9067 30.412 31.7067 32.4786 29.3289 34.0786C28.0845 34.9231 27.9289 35.1009 28.04 35.612C28.1511 36.2564 28.4622 38.1231 28.4845 38.3453C28.5067 38.4564 29.8178 39.4786 34.4622 42.9453L35.7511 43.9231L37.5289 42.0564C39.3956 40.0786 39.3289 40.2564 38.9511 38.3231C38.8845 38.012 38.7511 37.212 38.64 36.5453C38.5289 35.8786 38.3956 35.212 38.3511 35.0564C38.3289 34.9231 39.3511 33.7009 40.6845 32.3675C41.9956 31.0564 43.0622 29.8786 43.0622 29.7898C43.0622 29.6786 42.3956 28.7009 41.5956 27.5898L40.1067 25.5898L40.5956 24.212L41.0845 22.812L39.8178 20.8564C39.1289 19.7675 38.1067 18.212 37.5956 17.3898C36.4845 15.7009 36.5511 15.7453 35.4622 15.5675C34.9956 15.5009 34.1733 15.3453 33.5956 15.212L32.5733 14.9898L30.1067 16.7231L27.64 18.4786L25.04 16.7453C23.5956 15.7675 22.3289 15.012 22.24 15.012C22.1511 15.0342 21.3289 15.1898 20.44 15.3675ZM24.9511 17.6786C26.3067 18.5898 27.4622 19.3453 27.5511 19.3898C27.6178 19.4342 28.3289 19.012 29.1067 18.4564C32.9289 15.7231 32.5956 15.8786 33.9511 16.1231C34.6178 16.2342 35.3956 16.3898 35.6622 16.4342C35.9289 16.5009 36.3511 16.9231 36.64 17.3675C36.9067 17.8342 37.8178 19.2786 38.6622 20.5898L40.2178 22.9453L39.7067 24.3009L39.2178 25.6786L40.2845 27.212C40.8622 28.0564 41.5289 28.9453 41.7511 29.1898C42.1511 29.612 42.1067 29.6786 39.7956 32.0786L37.4622 34.5453L37.64 35.612C37.7289 36.1898 37.8178 36.7453 37.8622 36.8786C37.8845 36.9898 38.0178 37.7231 38.1511 38.5009L38.4178 39.9009L37.24 41.1231C36.5956 41.7898 36.04 42.4564 35.9956 42.5675C35.9511 42.6786 35.84 42.7675 35.7511 42.7675C35.64 42.7675 34.1733 41.7009 32.4845 40.412C29.3511 38.0342 29.24 37.8786 28.9511 36.1675C28.84 35.4786 28.9289 35.3898 30.24 34.5009C31.4178 33.7009 36.0178 29.212 35.6622 29.212C35.6178 29.212 35.1067 29.412 34.5289 29.6786C33.9511 29.9231 33.3067 30.1675 33.1067 30.212C32.9067 30.2564 31.5956 30.7009 30.2178 31.212L27.7289 32.1675L25.8845 31.4786C24.8845 31.1231 23.1067 30.4786 21.9511 30.0342C20.7956 29.612 19.7956 29.3009 19.7511 29.3675C19.5289 29.5453 23.9067 33.7009 25.1956 34.5453L26.5289 35.4342L26.3289 36.7009L26.1067 37.9898L22.9067 40.412L19.6845 42.8342L18.3956 41.412C16.9956 39.9009 16.9289 39.7009 17.2845 37.8564C17.4178 37.1898 17.5733 36.3453 17.64 35.9898C17.6845 35.612 17.7956 35.1675 17.8622 34.9675C17.9289 34.7231 17.1956 33.7898 15.5956 32.1231L13.24 29.6564L14.7067 27.6786L16.1733 25.6786L15.6845 24.3453C15.1289 22.7675 14.9733 23.1453 17.5733 19.212C19.3956 16.4564 19.3956 16.4564 20.5067 16.212C21.1289 16.0786 21.8178 15.9675 22.0622 15.9898C22.3289 16.012 23.6178 16.7675 24.9511 17.6786Z" fill="white"/>
<path d="M20.6178 25.0788C21.5289 25.7677 22.4401 26.3232 22.6623 26.3232C22.9734 26.3232 23.9512 25.101 23.9512 24.7232C23.9512 24.6121 22.6623 24.3677 21.2845 24.2121C21.1067 24.1899 20.5067 24.0788 19.9512 23.9899L18.9512 23.8121L20.6178 25.0788Z" fill="white"/>
<path d="M35.262 23.9899C35.1953 24.0344 34.7064 24.1455 34.1508 24.2121C33.6175 24.2788 32.7508 24.4121 32.2175 24.501L31.2842 24.6566L31.8397 25.4788C32.1508 25.9455 32.5508 26.3232 32.7286 26.3232C33.0175 26.3232 36.1731 24.1677 36.1731 23.9677C36.1731 23.8344 35.3731 23.8566 35.262 23.9899Z" fill="white"/>
<path d="M12.662 21.3229L9.50648 24.5451L9.59537 28.434C9.66204 30.6784 9.61759 32.3229 9.50648 32.3229C9.39537 32.3229 9.19537 32.5451 9.03981 32.7895C8.5287 33.7673 9.61759 34.8562 10.5731 34.3451C11.1954 34.0117 11.3065 33.3006 10.8176 32.6784C10.4398 32.1895 10.3954 31.7451 10.3954 28.4117V24.6784L12.1287 22.9895C13.7287 21.434 16.3065 18.1006 15.8843 18.1006C15.8398 18.1006 14.3731 19.5451 12.662 21.3229ZM10.3065 33.1006C10.3731 33.2784 10.3731 33.5229 10.2843 33.6562C10.062 34.0117 9.50648 33.5006 9.66204 33.0784C9.81759 32.6784 10.1509 32.6784 10.3065 33.1006Z" fill="white"/>
<path d="M39.64 18.5677C40.6844 20.2566 41.7289 21.5899 43.1511 22.9899L44.84 24.6344V28.4566C44.84 31.5677 44.7733 32.3233 44.5066 32.5455C43.9955 32.9677 44.1066 33.8122 44.7289 34.2344C45.24 34.5677 45.3289 34.5677 45.84 34.2344C46.4622 33.8122 46.5733 32.9677 46.0622 32.5455C45.7955 32.3233 45.7289 31.5677 45.7289 28.3677V24.4566L42.7955 21.4566C39.9955 18.5899 39.1955 17.8566 39.64 18.5677ZM45.6622 33.101C45.8177 33.5455 45.6177 33.7455 45.1955 33.5899C44.9955 33.501 44.9066 33.301 44.9733 33.101C45.1511 32.6788 45.4844 32.6788 45.6622 33.101Z" fill="white"/>
<path d="M3.81772 24.4342C3.63994 24.723 3.52883 25.0786 3.61772 25.2119C3.83994 25.5675 2.86217 26.5453 2.28439 26.5453C1.28439 26.5453 0.662166 27.5453 1.1955 28.3008C1.86217 29.2342 3.5955 28.5897 3.21772 27.5453C3.06217 27.1675 4.1955 26.1008 4.77328 26.1008C5.30661 26.1008 5.95106 25.5675 5.95106 25.1453C5.95106 24.9897 5.7955 24.6342 5.5955 24.3675C5.12883 23.7008 4.28439 23.723 3.81772 24.4342Z" fill="white"/>
<path d="M49.8622 24.1675C49.5956 24.3675 49.4845 24.6786 49.5511 25.1008C49.5956 25.6341 49.7733 25.8119 50.3289 25.9897C51.2845 26.3008 52.1289 27.123 52.2178 27.8341C52.2622 28.123 52.4845 28.523 52.7289 28.6786C53.3289 29.0786 54.2622 28.6341 54.3511 27.9008C54.4622 27.2119 53.7733 26.4786 53.1289 26.6119C52.4845 26.723 51.5956 25.8119 51.6845 25.123C51.8178 24.123 50.7067 23.5453 49.8622 24.1675Z" fill="white"/>
<path d="M7.24016 30.856C7.01794 31.0116 6.84016 31.3894 6.84016 31.7005C6.84016 32.3671 5.81794 33.3449 5.08461 33.3894C4.41794 33.4116 4.15128 33.8116 4.21794 34.656C4.30683 35.5671 5.28461 35.9449 5.95128 35.3227C6.19572 35.1005 6.3735 34.7449 6.35128 34.5449C6.28461 34.1449 7.41794 32.6782 7.66239 32.8338C7.7735 32.9005 8.06239 32.856 8.35128 32.7449C9.01794 32.5005 9.06239 31.1227 8.41794 30.7671C7.86239 30.4782 7.70683 30.5005 7.24016 30.856Z" fill="white"/>
<path d="M46.751 30.9007C46.0843 31.5674 46.5288 32.8118 47.4621 32.8785C48.1288 32.9229 49.0621 33.8563 49.0621 34.4563C49.0621 35.0563 49.6177 35.6562 50.151 35.6562C50.6399 35.6562 51.2843 34.9674 51.2843 34.4785C51.2843 33.9229 50.4177 33.1451 50.0177 33.3229C49.5066 33.5007 48.6177 32.5896 48.6177 31.8563C48.6177 31.4785 48.4399 31.1007 48.1288 30.9007C47.5066 30.4563 47.1732 30.4563 46.751 30.9007Z" fill="white"/>
<path d="M12.3956 33.7005C12.3956 35.9671 12.24 36.3227 11.2845 36.3227C10.5733 36.3227 10.1733 36.7005 10.1733 37.3227C10.1733 37.8783 10.8178 38.5449 11.3511 38.5449C11.8845 38.5449 12.4178 37.8783 12.3511 37.3227C12.3289 37.056 12.4622 36.656 12.6845 36.456C13.1956 35.9227 13.24 32.3005 12.7289 31.8783C12.44 31.6338 12.3956 31.856 12.3956 33.7005Z" fill="white"/>
<path d="M42.44 32.1007C42.2845 32.3452 42.1733 33.2785 42.1733 34.2785C42.1733 35.7674 42.24 36.1007 42.6178 36.434C42.8845 36.6563 43.0178 36.9896 42.9511 37.1674C42.8845 37.3452 42.9956 37.7229 43.1733 38.0118C43.64 38.7229 44.5067 38.7007 44.9733 37.9896C45.3067 37.4785 45.3067 37.3896 44.9733 36.8785C44.7511 36.5452 44.3956 36.3229 44.1067 36.3229C43.2178 36.3229 43.0622 35.9229 43.0622 33.7229C43.0622 32.5896 42.9956 31.6563 42.8845 31.6563C42.7956 31.6563 42.5956 31.8563 42.44 32.1007Z" fill="white"/>
<path d="M14.1732 35.4337V37.5448L12.0621 39.6559L9.95096 41.767V43.2337C9.95096 44.2781 9.86208 44.7893 9.61763 44.9893C8.92874 45.567 9.50652 46.9893 10.4399 46.9893C11.2843 46.9893 11.8399 45.5448 11.1732 44.9893C10.951 44.7893 10.8399 44.2781 10.8399 43.3226V41.9448L12.9065 39.967L14.951 37.967L14.8843 36.1004C14.8399 34.9448 14.7065 34.0781 14.5065 33.7893C14.1954 33.3893 14.1732 33.5226 14.1732 35.4337ZM10.7287 45.4337C10.8176 45.567 10.751 45.8337 10.5954 46.0115C10.351 46.3226 10.3065 46.3226 10.1287 46.0115C9.79541 45.4337 10.3954 44.8781 10.7287 45.4337Z" fill="white"/>
<path d="M40.7955 33.8122C40.4844 34.1455 40.3955 34.6566 40.3955 36.1455V38.0344L42.4622 40.0122L44.5288 41.99L44.5066 43.3233C44.5066 44.2566 44.3955 44.7677 44.1511 45.0122C43.6622 45.5011 43.8622 46.5233 44.5066 46.8122C45.4844 47.2566 46.4622 46.19 45.9511 45.2122C45.8177 44.9677 45.6177 44.7677 45.5066 44.7677C45.3733 44.7677 45.2844 44.1011 45.2844 43.2566V41.7677L43.2844 39.7677L41.3066 37.79L41.24 35.59C41.1733 33.4788 41.1511 33.4122 40.7955 33.8122ZM45.24 45.7011C45.1955 45.99 45.0844 46.2122 44.9511 46.2122C44.84 46.2122 44.7066 45.99 44.6622 45.7011C44.6177 45.3677 44.7066 45.2122 44.9511 45.2122C45.1955 45.2122 45.2844 45.3677 45.24 45.7011Z" fill="white"/>
<path d="M8.30672 34.9005C8.10672 35.0782 7.95117 35.456 7.95117 35.7449C7.95117 36.0338 7.50672 36.656 6.84006 37.3227C5.77339 38.3671 5.72895 38.4782 5.72895 39.6338C5.72895 40.5893 5.61783 40.9671 5.24006 41.3671C4.77339 41.856 4.77339 41.9449 5.0845 42.5005C5.55117 43.3449 6.57339 43.3449 7.04006 42.5005C7.35117 41.9449 7.35117 41.856 6.8845 41.3671C6.55117 41.0116 6.39561 40.5671 6.39561 39.9449C6.39561 39.1449 6.55117 38.8782 7.50672 37.8782C8.21783 37.1227 8.75117 36.7671 8.95117 36.856C9.37339 37.0116 10.1734 36.2338 10.1734 35.6782C10.1734 35.2338 9.41783 34.5449 8.90672 34.5449C8.77339 34.5449 8.4845 34.7005 8.30672 34.9005ZM6.30672 42.2338C6.19561 42.5227 6.0845 42.5449 5.90672 42.3671C5.77339 42.2338 5.72895 41.9671 5.81783 41.7449C5.92895 41.456 6.04006 41.4338 6.21783 41.6116C6.35117 41.7449 6.39561 42.0116 6.30672 42.2338Z" fill="white"/>
<path d="M45.6619 34.8564C45.0175 35.3452 45.0175 36.0341 45.6397 36.523C45.9508 36.7675 46.3286 36.923 46.4619 36.8564C46.6175 36.8119 47.1953 37.2341 47.773 37.8119C48.6397 38.723 48.8175 39.0341 48.8842 39.923C48.9286 40.723 48.8619 41.0119 48.573 41.1897C47.773 41.7008 48.3064 43.2119 49.2842 43.2119C50.2175 43.2119 50.773 41.8119 50.0619 41.2119C49.8397 41.0341 49.7286 40.523 49.7286 39.7008C49.7286 38.5008 49.6842 38.4341 48.5508 37.3452C47.8619 36.6786 47.4175 36.0564 47.4619 35.8341C47.5508 35.4119 46.773 34.5452 46.3508 34.5452C46.1953 34.5452 45.8842 34.7008 45.6619 34.8564ZM46.7953 35.8119C46.8397 35.9897 46.6842 36.1008 46.4175 36.1008C46.1508 36.1008 45.9508 35.9675 45.9508 35.7452C45.9508 35.3452 46.6397 35.4119 46.7953 35.8119ZM49.5508 41.7008C49.7508 42.2119 49.5064 42.5897 49.173 42.323C48.9953 42.1897 48.9286 41.923 48.9953 41.7452C49.1286 41.3675 49.4175 41.3452 49.5508 41.7008Z" fill="white"/>
<path d="M25.84 41.0115C24.9733 41.5004 23.64 42.2781 22.84 42.7004C22.04 43.1448 21.1955 43.6115 20.9511 43.7448C20.7066 43.8781 20.4844 44.0115 20.44 44.0115C20.4178 44.0337 21.1066 45.167 21.9955 46.5448C23.44 48.7892 23.6178 48.9892 23.8844 48.6337C24.04 48.4115 24.1733 48.1004 24.1733 47.9448C24.1733 47.7892 24.1955 47.6559 24.24 47.6559C24.2844 47.6559 25.04 48.367 25.9289 49.2115C26.8178 50.0781 27.64 50.767 27.7511 50.7226C27.84 50.6781 28.64 49.967 29.5066 49.1448L31.0622 47.6115L31.3066 48.3004C31.5733 49.0337 31.84 49.1892 32.0178 48.7004C32.0844 48.5226 32.7511 47.4559 33.4844 46.3226C34.24 45.167 34.84 44.167 34.84 44.1004C34.84 44.0115 34.5733 43.8115 34.24 43.6337C33.8844 43.4781 33.1733 43.0781 32.6178 42.7448C30.5733 41.5892 27.7511 40.1004 27.5733 40.1004C27.4622 40.1004 26.6844 40.5004 25.84 41.0115ZM28.7733 41.567C29.3511 41.9004 30.4844 42.5226 31.2844 42.967C32.0844 43.4115 32.9066 43.8559 33.1511 43.9892C33.7066 44.2781 33.6844 44.4337 32.6844 46.0337C31.84 47.4115 31.5066 47.7226 31.5066 47.1226C31.5066 46.3448 30.9511 46.6115 29.3955 48.1226L27.7289 49.7226L27.1289 49.1892C26.8178 48.9004 26.04 48.1892 25.4178 47.5892C24.2622 46.5004 23.9511 46.3448 23.9511 46.8559C23.9511 47.6337 23.5066 47.3226 22.6178 45.9226C22.1066 45.1004 21.7066 44.3892 21.7289 44.3226C21.7511 44.2559 22.3955 43.8781 23.1289 43.4781C23.8844 43.0781 24.9511 42.4781 25.5066 42.1448C26.5289 41.567 27.5733 40.9892 27.6622 40.9892C27.6844 40.9892 28.1955 41.2559 28.7733 41.567Z" fill="white"/>
<path d="M12.0844 41.4781C11.6177 42.1448 11.6399 42.4781 12.1733 42.8115C12.5733 43.0559 12.6177 43.3226 12.6177 45.1004C12.5955 46.7226 12.5288 47.1893 12.1955 47.6115C11.951 47.9004 11.6177 48.0559 11.4399 47.967C10.5733 47.6559 9.70661 48.7893 10.1733 49.6559C10.6622 50.5893 12.1733 50.0781 12.3288 48.9226C12.3733 48.6559 12.5955 48.3004 12.8399 48.1226C13.2399 47.8559 13.2844 47.567 13.2844 45.3893C13.2844 43.4559 13.351 42.9448 13.6177 42.8559C14.0177 42.7004 14.0622 41.6337 13.6844 41.2559C13.2622 40.8337 12.4622 40.9448 12.0844 41.4781ZM13.2177 42.0115C13.4177 42.567 12.9288 42.9004 12.6399 42.367C12.4177 41.9448 12.5066 41.6559 12.8844 41.6559C12.9955 41.6559 13.1288 41.8115 13.2177 42.0115Z" fill="white"/>
<path d="M14.8844 41.256C14.6844 41.456 14.6177 42.9671 14.6177 46.656C14.6177 52.056 14.5733 52.3227 13.6177 52.3227C13.0622 52.3227 12.3955 52.9671 12.3955 53.4783C12.3955 53.9449 13.1066 54.5449 13.6844 54.5449C14.2177 54.5449 14.9511 53.5894 14.7288 53.2116C14.64 53.0783 14.7733 52.7449 15.04 52.456C15.4622 52.0116 15.4844 51.7227 15.5066 46.7671C15.5066 43.9005 15.5288 41.4116 15.5066 41.256C15.5066 40.9227 15.24 40.9005 14.8844 41.256Z" fill="white"/>
<path d="M39.7732 41.2783C39.6176 41.456 39.5732 41.6338 39.6399 41.7005C39.7065 41.7671 39.751 44.1449 39.7288 46.9671C39.7288 51.8783 39.7288 52.1005 40.1732 52.3671C40.4399 52.5449 40.6176 52.9005 40.6176 53.2783C40.6176 54.056 41.0843 54.5449 41.7732 54.5449C42.4621 54.5449 42.8399 54.1449 42.8399 53.4338C42.8399 52.7005 42.4621 52.3227 41.7065 52.3227C41.3732 52.3227 40.9954 52.1894 40.8621 52.0338C40.7065 51.8338 40.5954 49.8783 40.5732 46.4338C40.5065 41.1671 40.3954 40.5005 39.7732 41.2783Z" fill="white"/>
<path d="M41.5068 41.4118C41.1957 42.0118 41.218 42.3451 41.6402 42.7895C41.9291 43.1229 41.9957 43.634 41.9735 45.3673C41.9291 47.4562 41.9513 47.5895 42.4846 48.1007C42.818 48.3895 43.0624 48.834 43.0624 49.1007C43.0624 49.3451 43.1735 49.6784 43.3291 49.834C43.6624 50.1673 44.6846 50.1673 45.018 49.834C45.6846 49.1673 45.018 47.7895 44.0624 47.9229C43.0624 48.0562 42.8402 47.5673 42.8402 45.1895C42.8402 43.9229 42.9291 42.9895 43.0624 42.9895C43.1735 42.9895 43.3735 42.7895 43.5068 42.5229C43.7068 42.1673 43.6846 41.9451 43.3957 41.5229C42.9513 40.8562 41.8624 40.7895 41.5068 41.4118ZM42.8402 42.0784C42.8402 42.6118 42.2624 42.8562 42.0846 42.3895C41.9068 41.9673 42.1068 41.6562 42.5291 41.6562C42.7068 41.6562 42.8402 41.8562 42.8402 42.0784ZM44.4846 48.9007C44.6624 49.3895 44.6624 49.434 44.3068 49.434C43.9068 49.434 43.6624 49.0784 43.8402 48.7673C44.0402 48.434 44.3291 48.5007 44.4846 48.9007Z" fill="white"/>
<path d="M17.4622 46.0338C17.5067 47.4782 17.64 48.7671 17.7733 48.9227C17.8844 49.0782 17.9289 49.3005 17.84 49.4338C17.7511 49.5671 17.8622 49.9227 18.04 50.2116C18.7733 51.3449 20.4844 50.5227 20.04 49.256C19.8844 48.7893 19.64 48.6338 19.0622 48.5449L18.2844 48.4338V46.3005C18.2844 44.3227 18.0622 43.4338 17.5289 43.4338C17.4622 43.4338 17.4178 44.6116 17.4622 46.0338Z" fill="white"/>
<path d="M37.2846 43.8561C37.1735 44.1006 37.0623 45.2117 37.0623 46.3228C37.0623 47.745 36.9735 48.3672 36.7957 48.4117C36.6401 48.4784 36.2401 48.5672 35.929 48.6339C35.1957 48.7895 34.9512 49.5672 35.4179 50.2561C36.0179 51.1895 37.5068 50.6561 37.5068 49.4784C37.5068 49.2339 37.6179 48.945 37.729 48.8784C38.0179 48.7006 38.0179 43.4339 37.729 43.4339C37.6179 43.4339 37.4179 43.6339 37.2846 43.8561Z" fill="white"/>
<path d="M21.3291 49.0341C20.6402 49.723 21.3291 51.0785 22.3068 50.9452C22.6624 50.9007 23.0846 51.1452 23.6846 51.723L24.5735 52.5896L22.5957 54.4785L20.618 56.3896V58.323C20.618 59.7896 20.5291 60.3452 20.2846 60.5452C19.3068 61.3674 20.4402 62.9007 21.618 62.3674C22.2624 62.0785 22.3957 61.0118 21.8402 60.5452C21.5957 60.3452 21.5068 59.8118 21.5068 58.5674V56.8785L23.5068 54.8785C24.6179 53.7896 25.5068 52.7896 25.5068 52.6785C25.5068 52.5452 25.0402 51.9674 24.4624 51.3896C23.8846 50.8118 23.3068 50.0118 23.1957 49.6118C22.9957 49.0341 22.818 48.8563 22.2846 48.8118C21.9068 48.7674 21.4846 48.8785 21.3291 49.0341ZM22.5291 49.6785C22.7068 49.9896 22.1291 50.3674 21.8624 50.1007C21.6624 49.9007 21.8624 49.4341 22.1735 49.4341C22.2846 49.4341 22.4402 49.5452 22.5291 49.6785ZM21.4402 61.123C21.618 61.5674 21.2624 61.923 20.8624 61.6785C20.5291 61.4563 20.6846 60.7674 21.0624 60.7674C21.1957 60.7674 21.3513 60.923 21.4402 61.123Z" fill="white"/>
<path d="M32.4401 48.9675C32.2846 49.0564 32.129 49.4119 32.0846 49.7231C32.0401 50.0786 31.5735 50.7231 30.8179 51.4342L29.6401 52.5453L31.7068 54.6342L33.7735 56.7008L33.7957 58.4564C33.8179 59.5231 33.7512 60.3008 33.5957 60.4342C33.4401 60.5453 33.2846 60.9231 33.1957 61.2564C33.0846 61.7453 33.1735 61.9453 33.5957 62.2342C34.6624 62.9008 35.8401 61.9231 35.2624 60.8564C35.1068 60.5675 34.9068 60.3231 34.7957 60.3231C34.7068 60.3231 34.6179 59.4564 34.6179 58.3675V56.4342L32.729 54.5453L30.8401 52.6786L31.7512 51.7453C32.2624 51.2342 32.7957 50.8564 32.9735 50.9231C33.4401 51.1008 34.1068 50.6119 34.2179 50.0119C34.3957 49.0786 33.2846 48.4342 32.4401 48.9675ZM33.4179 49.6786C33.4846 49.8119 33.4401 50.0342 33.3068 50.1675C33.1068 50.3675 32.9957 50.3453 32.8401 50.1008C32.6401 49.7675 32.7512 49.4342 33.0624 49.4342C33.1735 49.4342 33.329 49.5453 33.4179 49.6786ZM34.6179 61.2119C34.6179 61.4564 34.4624 61.6564 34.2846 61.6564C34.1068 61.6564 33.9512 61.4564 33.9512 61.2119C33.9512 60.9675 34.1068 60.7675 34.2846 60.7675C34.4624 60.7675 34.6179 60.9675 34.6179 61.2119Z" fill="white"/>
<path d="M19.5067 51.6786C19.3511 51.923 19.3067 52.2563 19.3511 52.4119C19.4178 52.5674 18.8622 53.3008 18.1511 54.0119C17.1733 54.9674 16.84 55.4563 16.9067 55.7897C16.9511 56.0786 16.84 56.3674 16.5733 56.523C16.3289 56.6786 16.1733 57.0341 16.1733 57.4341C16.1733 58.3008 16.9956 58.7452 17.84 58.3674C18.5511 58.0341 18.6178 56.9008 17.9511 56.5452C17.7067 56.4119 17.5067 56.2119 17.5067 56.0786C17.5067 55.9674 18.0845 55.3008 18.7956 54.6119C19.6622 53.723 20.2178 53.3674 20.5511 53.4119C20.8622 53.4341 21.1733 53.2563 21.4178 52.9008C21.7511 52.3674 21.7511 52.2786 21.4178 51.7674C20.9511 51.0563 19.8622 50.9897 19.5067 51.6786ZM20.7289 52.323C20.7289 52.4786 20.5733 52.6341 20.3733 52.6786C20.04 52.723 19.9956 52.5897 20.1511 51.923C20.1956 51.7008 20.7289 52.0786 20.7289 52.323ZM17.6845 57.2563C17.5289 57.6786 16.84 57.7452 16.84 57.3452C16.84 57.123 17.04 56.9897 17.3067 56.9897C17.5733 56.9897 17.7289 57.1008 17.6845 57.2563Z" fill="white"/>
<path d="M33.9955 51.4789C33.3289 52.1456 33.9733 53.59 34.8178 53.3678C35.1955 53.2789 35.5511 53.5234 36.4622 54.4789C37.0844 55.1456 37.64 55.79 37.6844 55.8789C37.7289 55.99 37.5289 56.3678 37.2622 56.7456C36.7955 57.39 36.7955 57.4345 37.1511 57.9678C37.5955 58.6567 38.3955 58.7234 38.9067 58.1456C39.4178 57.59 39.3733 57.1456 38.8178 56.6345C38.5511 56.39 38.4178 56.0567 38.4844 55.79C38.5733 55.4789 38.24 54.99 37.2844 54.0123C36.5067 53.2345 35.9511 52.4789 35.9511 52.2123C35.9511 51.9456 35.84 51.6345 35.6844 51.4789C35.3511 51.1456 34.3289 51.1456 33.9955 51.4789ZM38.2844 57.2789C38.2844 57.8567 37.84 57.8345 37.7733 57.2345C37.7067 56.8789 37.7955 56.7456 37.9955 56.8123C38.1511 56.8789 38.2844 57.0789 38.2844 57.2789Z" fill="white"/>
<path d="M25.2844 55.19C25.1733 55.4344 25.0622 55.79 25.0622 55.99C25.0622 56.19 24.751 56.6122 24.3733 56.9233C23.9955 57.2566 23.5955 57.7233 23.4844 57.9677C23.3733 58.2344 23.1733 58.59 23.0399 58.79C22.6177 59.3455 22.9733 60.3011 23.6622 60.4566C23.9733 60.5455 24.3955 60.5011 24.5955 60.39C25.0844 60.0788 25.1955 58.8122 24.751 58.6344C24.551 58.5677 24.3955 58.3677 24.3955 58.2122C24.3955 57.7455 25.6622 56.79 26.1288 56.9233C26.5955 57.0344 27.2844 56.4788 27.2844 55.9677C27.2844 55.2566 26.8177 54.7677 26.1733 54.7677C25.751 54.7677 25.4399 54.9233 25.2844 55.19ZM24.2844 59.3233C24.2844 59.5455 24.1733 59.7677 24.0399 59.8122C23.751 59.9011 23.4399 59.2788 23.6399 58.9677C23.8399 58.6344 24.2844 58.8788 24.2844 59.3233Z" fill="white"/>
<path d="M28.4398 55.0341C28.062 55.4119 28.1065 56.4341 28.4843 56.7674C28.662 56.9008 29.0398 56.9896 29.3065 56.9452C29.6398 56.9008 30.0398 57.1008 30.4398 57.523L31.0843 58.1674L30.6398 58.5896C30.062 59.123 30.0398 59.7008 30.6176 60.2119C31.1509 60.7008 32.062 60.523 32.4176 59.8563C32.6176 59.4563 32.5732 59.2563 32.1954 58.7452C31.9287 58.4119 31.7287 58.0341 31.7287 57.923C31.7287 57.8341 31.3732 57.4119 30.9509 56.9896C30.5065 56.5674 30.2176 56.1008 30.2843 55.923C30.3509 55.7674 30.2843 55.4341 30.1732 55.1896C29.9065 54.7008 28.862 54.6119 28.4398 55.0341ZM31.6176 59.2785C31.6176 59.8563 31.1732 59.8341 31.1065 59.2341C31.0398 58.8785 31.1287 58.7452 31.3287 58.8119C31.4843 58.8785 31.6176 59.0785 31.6176 59.2785Z" fill="white"/>
</svg>
