<svg width="21" height="24" viewBox="0 0 21 24" fill="none" xmlns="http://www.w3.org/2000/svg">
<g id="Logo">
<g id="Group">
<path id="Vector" d="M7.89844 0.871257C7.8151 0.971257 7.57344 0.996257 6.69844 0.996257H5.60677L4.85677 1.74626C4.35677 2.25459 4.04844 2.49626 3.92344 2.49626C3.7401 2.49626 3.39844 2.75459 3.39844 2.89626C3.39844 3.06292 3.67344 3.32959 3.84844 3.32959C4.08177 3.32959 4.35677 3.04626 4.2901 2.87959C4.25677 2.80459 4.49844 2.50459 4.9651 2.04626L5.6901 1.32959H6.7151C7.6151 1.32959 7.77344 1.35459 7.95677 1.48792C8.34844 1.80459 8.80677 1.37126 8.53177 0.95459C8.37344 0.721257 8.05677 0.67959 7.89844 0.871257Z" fill="black"/>
<path id="Vector_2" d="M13.2969 0.837923C13.1219 0.937923 13.0969 1.32959 13.2469 1.47959C13.3886 1.62126 13.8053 1.60459 13.8636 1.45459C13.9053 1.35459 14.1136 1.32959 15.0136 1.32959H16.1053L16.7969 2.02126C17.2886 2.52126 17.4803 2.76292 17.4803 2.92126C17.4803 3.17959 17.6219 3.32959 17.8553 3.32959C18.0636 3.32959 18.3136 3.08792 18.3136 2.89626C18.3136 2.72959 18.0469 2.49626 17.8469 2.49626C17.7553 2.49626 17.3636 2.17959 16.9386 1.74626L16.1886 0.996256H15.0553C14.1469 0.996256 13.8969 0.971256 13.8136 0.871256C13.6969 0.72959 13.5053 0.712923 13.2969 0.837923Z" fill="black"/>
<path id="Vector_3" d="M7.54049 2.20488C7.38216 2.35488 7.46549 2.72988 7.67383 2.86322C7.78216 2.92988 7.88216 2.92155 8.07383 2.80488C8.24049 2.71322 8.49883 2.66322 8.84049 2.66322C9.26549 2.67155 9.39883 2.70488 9.59049 2.87155C9.72383 2.98822 9.81549 3.15488 9.81549 3.27988C9.81549 3.41322 9.89049 3.54655 10.0238 3.62988C10.2155 3.75488 10.2488 3.75488 10.4405 3.62988C10.5655 3.54655 10.6488 3.41322 10.6488 3.29655C10.6488 3.05488 10.3738 2.79655 10.1572 2.85488C10.0405 2.87988 9.92383 2.81322 9.75716 2.61322C9.53216 2.33822 9.50716 2.32988 8.89049 2.32988C8.42383 2.32988 8.22383 2.29655 8.14883 2.20488C8.01549 2.04655 7.69883 2.04655 7.54049 2.20488ZM8.04883 2.47155C8.06549 2.53822 8.00716 2.57988 7.90716 2.57988C7.80716 2.57988 7.73216 2.52988 7.73216 2.44655C7.73216 2.29655 7.99049 2.32155 8.04883 2.47155Z" fill="black"/>
<path id="Vector_4" d="M13.565 2.20475C13.49 2.29642 13.29 2.32975 12.865 2.32975C12.29 2.32975 12.2567 2.33809 11.9817 2.62142C11.8317 2.77975 11.6733 2.88809 11.6317 2.86309C11.515 2.78809 11.2317 2.91309 11.14 3.08809C11.0067 3.33809 11.2483 3.66309 11.565 3.66309C11.8233 3.66309 12.0317 3.41309 11.9567 3.20475C11.9317 3.14642 12.015 3.00475 12.1317 2.88809C12.3233 2.70475 12.4483 2.67142 12.915 2.65475C13.34 2.63809 13.4983 2.67142 13.6067 2.77142C13.79 2.95475 14.0067 2.94642 14.1733 2.76309C14.34 2.57975 14.3567 2.32142 14.215 2.17975C14.0733 2.03809 13.69 2.05475 13.565 2.20475Z" fill="black"/>
<path id="Vector_5" d="M4.8978 2.97126C4.73113 3.03792 4.6478 3.17126 4.6478 3.37126C4.6478 3.57959 3.20613 5.03792 3.0728 4.96292C2.9478 4.87959 2.66446 5.05459 2.60613 5.24626C2.53113 5.47126 2.76446 5.82959 2.98113 5.82959C3.20613 5.82959 3.4978 5.52126 3.4478 5.34626C3.3728 5.12959 4.7728 3.76292 5.10613 3.72959C5.43946 3.69626 5.58113 3.32959 5.35613 3.07959C5.20613 2.91292 5.11446 2.88792 4.8978 2.97126Z" fill="black"/>
<path id="Vector_6" d="M16.4639 3.00459C16.2889 3.10459 16.2639 3.49626 16.4139 3.64626C16.4723 3.70459 16.5889 3.74626 16.6889 3.74626C16.9223 3.74626 18.3639 5.17959 18.3306 5.37126C18.2889 5.54626 18.5473 5.82959 18.7389 5.82959C18.9473 5.82959 19.1473 5.60459 19.1473 5.37126C19.1473 5.14626 18.7973 4.86292 18.6389 4.95459C18.5889 4.99626 18.2556 4.72126 17.8139 4.28792C17.2723 3.75459 17.0973 3.52126 17.1223 3.40459C17.1723 3.21292 16.9306 2.91292 16.7389 2.91292C16.6639 2.91292 16.5389 2.95459 16.4639 3.00459Z" fill="black"/>
<path id="Vector_7" d="M5.85651 3.66309C5.63151 3.89642 5.45651 3.99642 5.29818 3.99642C4.85651 3.99642 4.74818 4.63809 5.16484 4.77975C5.43984 4.87975 5.73151 4.66309 5.73151 4.37142C5.73151 4.27975 5.85651 4.07975 6.00651 3.92975L6.28151 3.66309H7.36484H8.43984L9.25651 4.47975C9.69818 4.92142 10.0648 5.35475 10.0648 5.42975C10.0648 5.53809 10.2232 5.66309 10.3648 5.66309C10.3815 5.66309 10.3982 5.56309 10.3982 5.42975C10.3982 5.24642 10.2065 5.00475 9.45651 4.26309L8.52318 3.32975H7.34818H6.18151L5.85651 3.66309Z" fill="black"/>
<path id="Vector_8" d="M12.2901 4.22959C11.4984 5.02959 11.3984 5.15459 11.3984 5.41292L11.4068 5.70459L11.6234 5.45459C11.7401 5.31292 12.1651 4.85459 12.5734 4.42959L13.2984 3.66292H14.3734H15.4484L15.7568 3.97959C15.9234 4.15459 16.0651 4.37126 16.0651 4.46292C16.0651 4.67959 16.2234 4.82959 16.4401 4.82959C16.6484 4.82959 16.8984 4.58792 16.8984 4.39626C16.8984 4.21292 16.6234 3.99626 16.3901 3.99626C16.2568 3.99626 16.0651 3.87126 15.8568 3.66292L15.5318 3.32959H14.3568H13.1901L12.2901 4.22959Z" fill="black"/>
<path id="Vector_9" d="M5.68949 5.21289C4.92283 6.00456 4.63949 6.24622 4.48116 6.24622C4.03949 6.24622 3.90616 6.72122 4.27283 6.96289C4.46449 7.08789 4.49783 7.08789 4.68949 6.96289C4.80616 6.88789 4.89783 6.74622 4.89783 6.63789C4.89783 6.51289 5.20616 6.13789 5.88116 5.47122L6.85616 4.49622H7.40616C7.88116 4.49622 7.98116 4.52122 8.14783 4.70456C8.33116 4.89622 8.73116 4.99622 8.73116 4.84622C8.73116 4.81289 8.58949 4.63789 8.41449 4.47122C8.09783 4.16289 8.09783 4.16289 7.39783 4.17122H6.68949L5.68949 5.21289Z" fill="black"/>
<path id="Vector_10" d="M13.3157 4.53792C12.974 4.88792 12.9574 4.91292 13.149 4.91292C13.2574 4.91292 13.449 4.81292 13.5824 4.68792C13.7907 4.48792 13.8657 4.47126 14.374 4.48792L14.9407 4.50459L15.924 5.47959C16.5324 6.08792 16.8824 6.49626 16.8574 6.57126C16.8074 6.70459 17.124 7.07959 17.2907 7.07959C17.4407 7.07959 17.7324 6.77959 17.7324 6.62126C17.7324 6.42959 17.424 6.16292 17.249 6.20459C17.1407 6.22126 16.7907 5.92959 16.0574 5.19626L15.024 4.16292H14.3574H13.6824L13.3157 4.53792ZM17.399 6.62959C17.399 6.76292 17.1824 6.78792 17.1074 6.66292C17.0824 6.61292 17.074 6.54626 17.1074 6.49626C17.174 6.38792 17.399 6.48792 17.399 6.62959Z" fill="black"/>
<path id="Vector_11" d="M5.13176 6.72959L3.31509 8.55459V9.22959C3.31509 9.61292 3.28175 9.91292 3.23175 9.91292C3.08175 9.91292 2.98175 10.2296 3.05675 10.4379C3.14842 10.6629 3.36509 10.7546 3.62342 10.6546C3.84009 10.5713 3.92342 10.1963 3.74842 10.0296C3.65675 9.92959 3.62342 9.74626 3.64009 9.30459L3.65675 8.70459L5.37342 6.97959C6.75676 5.59626 7.14842 5.24626 7.37342 5.20459C7.75676 5.13792 7.68176 4.96292 7.26509 4.92959C6.94009 4.91292 6.92342 4.92959 5.13176 6.72959Z" fill="black"/>
<path id="Vector_12" d="M14.1066 4.9963C14.0566 5.07964 14.3899 5.2463 14.5899 5.2463C14.6483 5.2463 15.4733 6.0213 16.4233 6.97964L18.1483 8.70464V9.27964C18.1483 9.6963 18.1066 9.8963 18.0149 10.0046C17.8399 10.1963 17.9149 10.538 18.1566 10.663C18.5649 10.888 18.9399 10.238 18.5566 9.96297C18.3983 9.85464 18.3899 9.77964 18.4066 9.21297L18.4399 8.57964L16.6066 6.7463C14.8816 5.0213 14.7566 4.91297 14.4649 4.91297C14.2983 4.91297 14.1316 4.95464 14.1066 4.9963Z" fill="black"/>
<path id="Vector_13" d="M4.02315 5.1963C3.93148 5.26297 3.85648 5.40463 3.85648 5.5213C3.84815 5.65463 3.63981 5.9213 3.20648 6.3463C2.85648 6.6963 2.56481 7.02963 2.56481 7.0963C2.56481 7.1713 2.50648 7.2713 2.43981 7.32963C2.28981 7.45463 2.27315 7.83797 2.41481 7.97963C2.56481 8.12963 2.85648 8.10463 3.00648 7.92963C3.19815 7.7213 3.18148 7.53797 2.98148 7.3463C2.80648 7.18797 2.81481 7.18797 3.44815 6.5463C3.87315 6.1213 4.14815 5.91297 4.28148 5.91297C4.50648 5.91297 4.73981 5.6213 4.67315 5.4213C4.61481 5.26297 4.40648 5.07963 4.27315 5.07963C4.22315 5.07963 4.10648 5.12963 4.02315 5.1963Z" fill="black"/>
<path id="Vector_14" d="M17.1903 5.24623C16.9653 5.49623 17.107 5.86289 17.4403 5.89623C17.6153 5.91289 17.8653 6.09623 18.2986 6.52122C18.9153 7.12956 18.9903 7.27123 18.7736 7.36289C18.6236 7.42123 18.607 7.83789 18.7486 7.97956C18.8903 8.12123 19.1986 8.10456 19.3486 7.94623C19.5153 7.77956 19.5153 7.54623 19.357 7.37956C19.2903 7.31289 19.232 7.20456 19.232 7.14623C19.232 7.08789 18.932 6.73789 18.5653 6.37122C18.0986 5.90456 17.8986 5.64623 17.8986 5.50456C17.8986 5.12123 17.4486 4.95456 17.1903 5.24623Z" fill="black"/>
<path id="Vector_15" d="M8.16445 5.38783C7.58945 5.51283 7.53945 5.53782 7.33945 5.86283C7.22279 6.04616 6.83112 6.66282 6.46445 7.22116C5.92279 8.04616 5.82279 8.26283 5.88945 8.38783C6.08112 8.71283 6.23112 9.18783 6.17279 9.27116C6.13945 9.32116 6.07279 9.42116 6.01445 9.49616C5.95612 9.56283 5.71445 9.87949 5.48112 10.2045L5.06445 10.7878L5.58945 11.3295C5.87279 11.6295 6.28112 12.0545 6.49779 12.2878L6.88945 12.7045L6.80612 13.1212C6.76445 13.3462 6.70612 13.6462 6.68112 13.7878C6.65612 13.9212 6.60612 14.1878 6.56445 14.3712L6.48945 14.7045L7.18112 15.4045L7.88112 16.1045L8.23945 15.8212C8.43945 15.6628 8.62279 15.5212 8.64779 15.4962C8.67279 15.4712 9.06445 15.1712 9.52279 14.8295C9.97279 14.4878 10.3978 14.1628 10.4645 14.1128C10.5811 14.0295 10.6145 13.8962 10.6978 13.1212L10.7395 12.7045L10.2561 12.4128C9.47279 11.9378 8.54779 11.0045 9.21445 11.3628C9.33945 11.4295 9.75612 11.5962 10.1478 11.7378L10.8645 11.9962L11.6561 11.7128C12.0978 11.5545 12.5395 11.3878 12.6395 11.3378C13.2145 11.0295 12.3895 11.8045 11.4978 12.4045C11.0311 12.7212 10.9728 12.7878 11.0145 12.9795C11.0561 13.2212 11.1728 13.9212 11.1811 14.0045C11.1895 14.0462 11.6811 14.4295 13.4228 15.7295L13.9061 16.0962L14.5728 15.3962C15.2728 14.6545 15.2478 14.7212 15.1061 13.9962C15.0811 13.8795 15.0311 13.5795 14.9895 13.3295C14.9478 13.0795 14.8978 12.8295 14.8811 12.7712C14.8728 12.7212 15.2561 12.2628 15.7561 11.7628C16.2478 11.2712 16.6478 10.8295 16.6478 10.7962C16.6478 10.7545 16.3978 10.3878 16.0978 9.97116L15.5395 9.22116L15.7228 8.70449L15.9061 8.17949L15.4311 7.44616C15.1728 7.03782 14.7895 6.45449 14.5978 6.14616C14.1811 5.51283 14.2061 5.52949 13.7978 5.46282C13.6228 5.43783 13.3145 5.37949 13.0978 5.32949L12.7145 5.24616L11.7895 5.89616L10.8645 6.55449L9.88945 5.90449C9.34779 5.53782 8.87279 5.25449 8.83945 5.25449C8.80612 5.26283 8.49779 5.32116 8.16445 5.38783ZM9.85612 6.25449C10.3645 6.59616 10.7978 6.87949 10.8311 6.89616C10.8561 6.91282 11.1228 6.75449 11.4145 6.54616C12.8478 5.52116 12.7228 5.57949 13.2311 5.67116C13.4811 5.71282 13.7728 5.77116 13.8728 5.78782C13.9728 5.81283 14.1311 5.97116 14.2395 6.13783C14.3395 6.31283 14.6811 6.85449 14.9978 7.34616L15.5811 8.22949L15.3895 8.73782L15.2061 9.25449L15.6061 9.82949C15.8228 10.1462 16.0728 10.4795 16.1561 10.5712C16.3061 10.7295 16.2895 10.7545 15.4228 11.6545L14.5478 12.5795L14.6145 12.9795C14.6478 13.1962 14.6811 13.4045 14.6978 13.4545C14.7061 13.4962 14.7561 13.7712 14.8061 14.0628L14.9061 14.5878L14.4645 15.0462C14.2228 15.2962 14.0145 15.5462 13.9978 15.5878C13.9811 15.6295 13.9395 15.6628 13.9061 15.6628C13.8645 15.6628 13.3145 15.2628 12.6811 14.7795C11.5061 13.8878 11.4645 13.8295 11.3561 13.1878C11.3145 12.9295 11.3478 12.8962 11.8395 12.5628C12.2811 12.2628 14.0061 10.5795 13.8728 10.5795C13.8561 10.5795 13.6645 10.6545 13.4478 10.7545C13.2311 10.8462 12.9895 10.9378 12.9145 10.9545C12.8395 10.9712 12.3478 11.1378 11.8311 11.3295L10.8978 11.6878L10.2061 11.4295C9.83112 11.2962 9.16445 11.0545 8.73112 10.8878C8.29779 10.7295 7.92279 10.6128 7.90612 10.6378C7.82279 10.7045 9.46445 12.2628 9.94779 12.5795L10.4478 12.9128L10.3728 13.3878L10.2895 13.8712L9.08945 14.7795L7.88112 15.6878L7.39779 15.1545C6.87279 14.5878 6.84779 14.5128 6.98112 13.8212C7.03112 13.5712 7.08945 13.2545 7.11445 13.1212C7.13112 12.9795 7.17279 12.8128 7.19779 12.7378C7.22279 12.6462 6.94779 12.2962 6.34779 11.6712L5.46445 10.7462L6.01445 10.0045L6.56445 9.25449L6.38112 8.75449C6.17279 8.16283 6.11445 8.30449 7.08945 6.82949C7.77279 5.79616 7.77279 5.79616 8.18945 5.70449C8.42279 5.65449 8.68112 5.61283 8.77279 5.62116C8.87279 5.62949 9.35612 5.91282 9.85612 6.25449Z" fill="black"/>
<path id="Vector_16" d="M8.23145 9.02992C8.57311 9.28825 8.91478 9.49658 8.99811 9.49658C9.11478 9.49658 9.48145 9.03825 9.48145 8.89658C9.48145 8.85492 8.99811 8.76325 8.48145 8.70492C8.41478 8.69658 8.18978 8.65492 7.98145 8.62158L7.60645 8.55492L8.23145 9.02992Z" fill="black"/>
<path id="Vector_17" d="M13.7231 8.62158C13.6981 8.63825 13.5148 8.67992 13.3064 8.70492C13.1064 8.72992 12.7814 8.77992 12.5814 8.81325L12.2314 8.87158L12.4398 9.17992C12.5564 9.35492 12.7064 9.49658 12.7731 9.49658C12.8814 9.49658 14.0648 8.68825 14.0648 8.61325C14.0648 8.56325 13.7648 8.57158 13.7231 8.62158Z" fill="black"/>
<path id="Vector_18" d="M5.24814 7.62144L4.06481 8.82977L4.09814 10.2881C4.12314 11.1298 4.10647 11.7464 4.06481 11.7464C4.02314 11.7464 3.94814 11.8298 3.88981 11.9214C3.69814 12.2881 4.10647 12.6964 4.46481 12.5048C4.69814 12.3798 4.73981 12.1131 4.55647 11.8798C4.41481 11.6964 4.39814 11.5298 4.39814 10.2798V8.87977L5.04814 8.24644C5.64814 7.6631 6.61481 6.4131 6.45647 6.4131C6.43981 6.4131 5.88981 6.95477 5.24814 7.62144ZM4.36481 12.0381C4.38981 12.1048 4.38981 12.1964 4.35647 12.2464C4.27314 12.3798 4.06481 12.1881 4.12314 12.0298C4.18147 11.8798 4.30647 11.8798 4.36481 12.0381Z" fill="black"/>
<path id="Vector_19" d="M15.3644 6.58789C15.7561 7.22122 16.1478 7.72122 16.6811 8.24622L17.3144 8.86289V10.2962C17.3144 11.4629 17.2894 11.7462 17.1894 11.8296C16.9978 11.9879 17.0394 12.3046 17.2728 12.4629C17.4644 12.5879 17.4978 12.5879 17.6894 12.4629C17.9228 12.3046 17.9644 11.9879 17.7728 11.8296C17.6728 11.7462 17.6478 11.4629 17.6478 10.2629V8.79622L16.5478 7.67122C15.4978 6.59622 15.1978 6.32122 15.3644 6.58789ZM17.6228 12.0379C17.6811 12.2046 17.6061 12.2796 17.4478 12.2212C17.3728 12.1879 17.3394 12.1129 17.3644 12.0379C17.4311 11.8796 17.5561 11.8796 17.6228 12.0379Z" fill="black"/>
<path id="Vector_20" d="M1.93165 8.78805C1.86498 8.89639 1.82331 9.02972 1.85665 9.07972C1.93998 9.21305 1.57331 9.57972 1.35665 9.57972C0.981646 9.57972 0.748312 9.95472 0.948312 10.2381C1.19831 10.5881 1.84831 10.3464 1.70665 9.95472C1.64831 9.81305 2.07331 9.41305 2.28998 9.41305C2.48998 9.41305 2.73165 9.21305 2.73165 9.05472C2.73165 8.99639 2.67331 8.86305 2.59831 8.76305C2.42331 8.51305 2.10665 8.52139 1.93165 8.78805Z" fill="black"/>
<path id="Vector_21" d="M19.198 8.68793C19.098 8.76293 19.0563 8.87959 19.0813 9.03793C19.098 9.23793 19.1646 9.30459 19.373 9.37126C19.7313 9.48793 20.048 9.79626 20.0813 10.0629C20.098 10.1713 20.1813 10.3213 20.273 10.3796C20.498 10.5296 20.848 10.3629 20.8813 10.0879C20.923 9.82959 20.6646 9.55459 20.423 9.60459C20.1813 9.64626 19.848 9.30459 19.8813 9.04626C19.9313 8.67126 19.5146 8.45459 19.198 8.68793Z" fill="black"/>
<path id="Vector_22" d="M3.21518 11.196C3.13185 11.2543 3.06518 11.396 3.06518 11.5127C3.06518 11.7627 2.68185 12.1293 2.40685 12.146C2.15685 12.1543 2.05685 12.3043 2.08185 12.621C2.11518 12.9627 2.48185 13.1043 2.73185 12.871C2.82352 12.7877 2.89018 12.6543 2.88185 12.5793C2.85685 12.4293 3.28185 11.8793 3.37352 11.9377C3.41518 11.9627 3.52352 11.946 3.63185 11.9043C3.88185 11.8127 3.89852 11.296 3.65685 11.1627C3.44852 11.0543 3.39018 11.0627 3.21518 11.196Z" fill="black"/>
<path id="Vector_23" d="M18.0319 11.2128C17.7819 11.4628 17.9485 11.9294 18.2985 11.9544C18.5485 11.9711 18.8985 12.3211 18.8985 12.5461C18.8985 12.7711 19.1069 12.9961 19.3069 12.9961C19.4902 12.9961 19.7319 12.7378 19.7319 12.5544C19.7319 12.3461 19.4069 12.0544 19.2569 12.1211C19.0652 12.1878 18.7319 11.8461 18.7319 11.5711C18.7319 11.4294 18.6652 11.2878 18.5485 11.2128C18.3152 11.0461 18.1902 11.0461 18.0319 11.2128Z" fill="black"/>
<path id="Vector_24" d="M5.14779 12.2629C5.14779 13.1129 5.08945 13.2463 4.73112 13.2463C4.46445 13.2463 4.31445 13.3879 4.31445 13.6213C4.31445 13.8296 4.55612 14.0796 4.75612 14.0796C4.95612 14.0796 5.15612 13.8296 5.13112 13.6213C5.12279 13.5213 5.17279 13.3713 5.25612 13.2963C5.44779 13.0963 5.46445 11.7379 5.27279 11.5796C5.16445 11.4879 5.14779 11.5713 5.14779 12.2629Z" fill="black"/>
<path id="Vector_25" d="M16.4145 11.6631C16.3561 11.7548 16.3145 12.1048 16.3145 12.4798C16.3145 13.0381 16.3395 13.1631 16.4811 13.2881C16.5811 13.3715 16.6311 13.4965 16.6061 13.5631C16.5811 13.6298 16.6228 13.7715 16.6895 13.8798C16.8645 14.1465 17.1895 14.1381 17.3645 13.8715C17.4895 13.6798 17.4895 13.6465 17.3645 13.4548C17.2811 13.3298 17.1478 13.2465 17.0395 13.2465C16.7061 13.2465 16.6478 13.0965 16.6478 12.2715C16.6478 11.8465 16.6228 11.4965 16.5811 11.4965C16.5478 11.4965 16.4728 11.5715 16.4145 11.6631Z" fill="black"/>
<path id="Vector_26" d="M5.81598 12.9128V13.7044L5.02432 14.4961L4.23265 15.2878V15.8378C4.23265 16.2294 4.19932 16.4211 4.10765 16.4961C3.84932 16.7128 4.06598 17.2461 4.41598 17.2461C4.73265 17.2461 4.94098 16.7044 4.69098 16.4961C4.60765 16.4211 4.56598 16.2294 4.56598 15.8711V15.3544L5.34098 14.6128L6.10765 13.8628L6.08265 13.1628C6.06598 12.7294 6.01598 12.4044 5.94098 12.2961C5.82432 12.1461 5.81598 12.1961 5.81598 12.9128ZM4.52432 16.6628C4.55765 16.7128 4.53265 16.8128 4.47432 16.8794C4.38265 16.9961 4.36598 16.9961 4.29932 16.8794C4.17432 16.6628 4.39932 16.4544 4.52432 16.6628Z" fill="black"/>
<path id="Vector_27" d="M15.7984 12.3048C15.6818 12.4298 15.6484 12.6215 15.6484 13.1798V13.8881L16.4234 14.6298L17.1984 15.3715L17.1901 15.8715C17.1901 16.2215 17.1484 16.4131 17.0568 16.5048C16.8734 16.6881 16.9484 17.0715 17.1901 17.1798C17.5568 17.3465 17.9234 16.9465 17.7318 16.5798C17.6818 16.4881 17.6068 16.4131 17.5651 16.4131C17.5151 16.4131 17.4818 16.1631 17.4818 15.8465V15.2881L16.7318 14.5381L15.9901 13.7965L15.9651 12.9715C15.9401 12.1798 15.9318 12.1548 15.7984 12.3048ZM17.4651 16.7631C17.4484 16.8715 17.4068 16.9548 17.3568 16.9548C17.3151 16.9548 17.2651 16.8715 17.2484 16.7631C17.2318 16.6381 17.2651 16.5798 17.3568 16.5798C17.4484 16.5798 17.4818 16.6381 17.4651 16.7631Z" fill="black"/>
<path id="Vector_28" d="M3.61484 12.7128C3.53984 12.7795 3.4815 12.9211 3.4815 13.0295C3.4815 13.1378 3.31484 13.3711 3.06484 13.6211C2.66484 14.0128 2.64817 14.0545 2.64817 14.4878C2.64817 14.8461 2.6065 14.9878 2.46484 15.1378C2.28984 15.3211 2.28984 15.3545 2.4065 15.5628C2.5815 15.8795 2.96484 15.8795 3.13984 15.5628C3.2565 15.3545 3.2565 15.3211 3.0815 15.1378C2.9565 15.0045 2.89817 14.8378 2.89817 14.6045C2.89817 14.3045 2.9565 14.2045 3.31484 13.8295C3.5815 13.5461 3.7815 13.4128 3.8565 13.4461C4.01484 13.5045 4.31484 13.2128 4.31484 13.0045C4.31484 12.8378 4.0315 12.5795 3.83984 12.5795C3.78984 12.5795 3.6815 12.6378 3.61484 12.7128ZM2.86484 15.4628C2.82317 15.5711 2.7815 15.5795 2.71484 15.5128C2.66484 15.4628 2.64817 15.3628 2.6815 15.2795C2.72317 15.1711 2.76484 15.1628 2.8315 15.2295C2.8815 15.2795 2.89817 15.3795 2.86484 15.4628Z" fill="black"/>
<path id="Vector_29" d="M17.6227 12.6963C17.3811 12.8796 17.3811 13.1379 17.6144 13.3213C17.7311 13.4129 17.8727 13.4713 17.9227 13.4463C17.9811 13.4296 18.1977 13.5879 18.4144 13.8046C18.7394 14.1463 18.8061 14.2629 18.8311 14.5963C18.8477 14.8963 18.8227 15.0046 18.7144 15.0713C18.4144 15.2629 18.6144 15.8296 18.9811 15.8296C19.3311 15.8296 19.5394 15.3046 19.2727 15.0796C19.1894 15.0129 19.1477 14.8213 19.1477 14.5129C19.1477 14.0629 19.1311 14.0379 18.7061 13.6296C18.4477 13.3796 18.2811 13.1463 18.2977 13.0629C18.3311 12.9046 18.0394 12.5796 17.8811 12.5796C17.8227 12.5796 17.7061 12.6379 17.6227 12.6963ZM18.0477 13.0546C18.0644 13.1213 18.0061 13.1629 17.9061 13.1629C17.8061 13.1629 17.7311 13.1129 17.7311 13.0296C17.7311 12.8796 17.9894 12.9046 18.0477 13.0546ZM19.0811 15.2629C19.1561 15.4546 19.0644 15.5963 18.9394 15.4963C18.8727 15.4463 18.8477 15.3463 18.8727 15.2796C18.9227 15.1379 19.0311 15.1296 19.0811 15.2629Z" fill="black"/>
<path id="Vector_30" d="M10.1912 15.005C9.86621 15.1884 9.36621 15.48 9.06621 15.6384C8.76621 15.805 8.44955 15.98 8.35788 16.03C8.26621 16.08 8.18288 16.13 8.16621 16.13C8.15788 16.1384 8.41621 16.5634 8.74955 17.08C9.29121 17.9217 9.35788 17.9967 9.45788 17.8634C9.51621 17.78 9.56621 17.6634 9.56621 17.605C9.56621 17.5467 9.57455 17.4967 9.59121 17.4967C9.60788 17.4967 9.89121 17.7634 10.2245 18.08C10.5579 18.405 10.8662 18.6634 10.9079 18.6467C10.9412 18.63 11.2412 18.3634 11.5662 18.055L12.1495 17.48L12.2412 17.7384C12.3412 18.0134 12.4412 18.0717 12.5079 17.8884C12.5329 17.8217 12.7829 17.4217 13.0579 16.9967C13.3412 16.5634 13.5662 16.1884 13.5662 16.1634C13.5662 16.13 13.4662 16.055 13.3412 15.9884C13.2079 15.93 12.9412 15.78 12.7329 15.655C11.9662 15.2217 10.9079 14.6634 10.8412 14.6634C10.7995 14.6634 10.5079 14.8134 10.1912 15.005ZM11.2912 15.2134C11.5079 15.3384 11.9329 15.5717 12.2329 15.7384C12.5329 15.905 12.8412 16.0717 12.9329 16.1217C13.1412 16.23 13.1329 16.2884 12.7579 16.8884C12.4412 17.405 12.3162 17.5217 12.3162 17.2967C12.3162 17.005 12.1079 17.105 11.5245 17.6717L10.8995 18.2717L10.6745 18.0717C10.5579 17.9634 10.2662 17.6967 10.0329 17.4717C9.59955 17.0634 9.48288 17.005 9.48288 17.1967C9.48288 17.4884 9.31621 17.3717 8.98288 16.8467C8.79121 16.5384 8.64121 16.2717 8.64955 16.2467C8.65788 16.2217 8.89955 16.08 9.17455 15.93C9.45788 15.78 9.85788 15.555 10.0662 15.43C10.4495 15.2134 10.8412 14.9967 10.8745 14.9967C10.8829 14.9967 11.0745 15.0967 11.2912 15.2134Z" fill="black"/>
<path id="Vector_31" d="M5.03134 15.1797C4.85634 15.4297 4.86467 15.5547 5.06467 15.6797C5.21467 15.7713 5.23134 15.8713 5.23134 16.538C5.22301 17.1463 5.19801 17.3213 5.07301 17.4797C4.98134 17.588 4.85634 17.6463 4.78967 17.613C4.46467 17.4963 4.13967 17.9213 4.31467 18.2463C4.49801 18.5963 5.06467 18.4047 5.12301 17.9713C5.13967 17.8713 5.22301 17.738 5.31467 17.6713C5.46467 17.5713 5.48134 17.463 5.48134 16.6463C5.48134 15.9213 5.50634 15.7297 5.60634 15.6963C5.75634 15.638 5.77301 15.238 5.63134 15.0963C5.47301 14.938 5.17301 14.9797 5.03134 15.1797ZM5.45634 15.3797C5.53134 15.588 5.34801 15.713 5.23967 15.513C5.15634 15.3547 5.18967 15.2463 5.33134 15.2463C5.37301 15.2463 5.42301 15.3047 5.45634 15.3797Z" fill="black"/>
<path id="Vector_32" d="M6.08177 15.0963C6.00677 15.1713 5.98177 15.7379 5.98177 17.1213C5.98177 19.1463 5.9651 19.2463 5.60677 19.2463C5.39844 19.2463 5.14844 19.4879 5.14844 19.6796C5.14844 19.8546 5.4151 20.0796 5.63177 20.0796C5.83177 20.0796 6.10677 19.7213 6.02344 19.5796C5.9901 19.5296 6.0401 19.4046 6.1401 19.2963C6.29844 19.1296 6.30677 19.0213 6.3151 17.1629C6.3151 16.0879 6.32344 15.1546 6.3151 15.0963C6.3151 14.9713 6.2151 14.9629 6.08177 15.0963Z" fill="black"/>
<path id="Vector_33" d="M15.4148 15.1046C15.3564 15.1713 15.3398 15.2379 15.3648 15.2629C15.3898 15.2879 15.4064 16.1796 15.3981 17.2379C15.3981 19.0796 15.3981 19.1629 15.5648 19.2629C15.6648 19.3296 15.7314 19.4629 15.7314 19.6046C15.7314 19.8963 15.9064 20.0796 16.1648 20.0796C16.4231 20.0796 16.5648 19.9296 16.5648 19.6629C16.5648 19.3879 16.4231 19.2463 16.1398 19.2463C16.0148 19.2463 15.8731 19.1963 15.8231 19.1379C15.7648 19.0629 15.7231 18.3296 15.7148 17.0379C15.6898 15.0629 15.6481 14.8129 15.4148 15.1046Z" fill="black"/>
<path id="Vector_34" d="M16.0637 15.1547C15.947 15.3797 15.9553 15.5047 16.1137 15.6713C16.222 15.7963 16.247 15.988 16.2387 16.638C16.222 17.4213 16.2303 17.4713 16.4303 17.663C16.5553 17.7713 16.647 17.938 16.647 18.038C16.647 18.1297 16.6887 18.2547 16.747 18.313C16.872 18.438 17.2553 18.438 17.3803 18.313C17.6303 18.063 17.3803 17.5463 17.022 17.5963C16.647 17.6463 16.5637 17.463 16.5637 16.5713C16.5637 16.0963 16.597 15.7463 16.647 15.7463C16.6887 15.7463 16.7637 15.6713 16.8137 15.5713C16.8887 15.438 16.8803 15.3547 16.772 15.1963C16.6053 14.9463 16.197 14.9213 16.0637 15.1547ZM16.5637 15.4047C16.5637 15.6047 16.347 15.6963 16.2803 15.5213C16.2137 15.363 16.2887 15.2463 16.447 15.2463C16.5137 15.2463 16.5637 15.3213 16.5637 15.4047ZM17.1803 17.963C17.247 18.1463 17.247 18.163 17.1137 18.163C16.9637 18.163 16.872 18.0297 16.9387 17.913C17.0137 17.788 17.122 17.813 17.1803 17.963Z" fill="black"/>
<path id="Vector_35" d="M7.0487 16.888C7.06537 17.4297 7.11537 17.913 7.16537 17.9714C7.20703 18.0297 7.2237 18.113 7.19037 18.163C7.15703 18.213 7.1987 18.3464 7.26537 18.4547C7.54037 18.8797 8.18203 18.5714 8.01537 18.0964C7.95703 17.9214 7.86537 17.863 7.6487 17.8297L7.35703 17.788V16.988C7.35703 16.2464 7.2737 15.913 7.0737 15.913C7.0487 15.913 7.03203 16.3547 7.0487 16.888Z" fill="black"/>
<path id="Vector_36" d="M14.4817 16.0713C14.44 16.163 14.3984 16.5796 14.3984 16.9963C14.3984 17.5296 14.365 17.763 14.2984 17.7796C14.24 17.8046 14.09 17.838 13.9734 17.863C13.6984 17.9213 13.6067 18.213 13.7817 18.4713C14.0067 18.8213 14.565 18.6213 14.565 18.1796C14.565 18.088 14.6067 17.9796 14.6484 17.9546C14.7567 17.888 14.7567 15.913 14.6484 15.913C14.6067 15.913 14.5317 15.988 14.4817 16.0713Z" fill="black"/>
<path id="Vector_37" d="M8.49858 18.0129C8.24025 18.2712 8.49858 18.7796 8.86525 18.7296C8.99858 18.7129 9.15691 18.8046 9.38191 19.0212L9.71525 19.3462L8.97358 20.0546L8.23191 20.7712V21.4962C8.23191 22.0462 8.19858 22.2546 8.10691 22.3296C7.74025 22.6379 8.16525 23.2129 8.60691 23.0129C8.84858 22.9046 8.89858 22.5046 8.69025 22.3296C8.59858 22.2546 8.56525 22.0546 8.56525 21.5879V20.9546L9.31525 20.2046C9.73191 19.7962 10.0652 19.4212 10.0652 19.3796C10.0652 19.3296 9.89025 19.1129 9.67358 18.8962C9.45691 18.6796 9.24025 18.3796 9.19858 18.2296C9.12358 18.0129 9.05691 17.9462 8.85691 17.9296C8.71525 17.9129 8.55691 17.9546 8.49858 18.0129ZM8.94858 18.2546C9.01525 18.3712 8.79858 18.5129 8.69858 18.4129C8.62358 18.3379 8.69858 18.1629 8.81525 18.1629C8.85691 18.1629 8.91525 18.2046 8.94858 18.2546ZM8.54025 22.5462C8.60691 22.7129 8.47358 22.8462 8.32358 22.7546C8.19858 22.6712 8.25691 22.4129 8.39858 22.4129C8.44858 22.4129 8.50691 22.4712 8.54025 22.5462Z" fill="black"/>
<path id="Vector_38" d="M12.6652 17.9882C12.6069 18.0215 12.5486 18.1548 12.5319 18.2715C12.5152 18.4048 12.3402 18.6465 12.0569 18.9132L11.6152 19.3298L12.3902 20.1132L13.1652 20.8882L13.1736 21.5465C13.1819 21.9465 13.1569 22.2382 13.0986 22.2882C13.0402 22.3298 12.9819 22.4715 12.9486 22.5965C12.9069 22.7798 12.9402 22.8548 13.0986 22.9632C13.4986 23.2132 13.9402 22.8465 13.7236 22.4465C13.6652 22.3382 13.5902 22.2465 13.5486 22.2465C13.5152 22.2465 13.4819 21.9215 13.4819 21.5132V20.7882L12.7736 20.0798L12.0652 19.3798L12.4069 19.0298C12.5986 18.8382 12.7986 18.6965 12.8652 18.7215C13.0402 18.7882 13.2902 18.6048 13.3319 18.3798C13.3986 18.0298 12.9819 17.7882 12.6652 17.9882ZM13.0319 18.2548C13.0569 18.3048 13.0402 18.3882 12.9902 18.4382C12.9152 18.5132 12.8736 18.5048 12.8152 18.4132C12.7402 18.2882 12.7819 18.1632 12.8986 18.1632C12.9402 18.1632 12.9986 18.2048 13.0319 18.2548ZM13.4819 22.5798C13.4819 22.6715 13.4236 22.7465 13.3569 22.7465C13.2902 22.7465 13.2319 22.6715 13.2319 22.5798C13.2319 22.4882 13.2902 22.4132 13.3569 22.4132C13.4236 22.4132 13.4819 22.4882 13.4819 22.5798Z" fill="black"/>
<path id="Vector_39" d="M7.81445 19.0048C7.75612 19.0965 7.73945 19.2215 7.75612 19.2798C7.78112 19.3382 7.57279 19.6132 7.30612 19.8798C6.93945 20.2382 6.81445 20.4215 6.83945 20.5465C6.85612 20.6548 6.81445 20.7632 6.71445 20.8215C6.62279 20.8798 6.56445 21.0132 6.56445 21.1632C6.56445 21.4882 6.87279 21.6548 7.18945 21.5132C7.45612 21.3882 7.48112 20.9632 7.23112 20.8298C7.13945 20.7798 7.06445 20.7048 7.06445 20.6548C7.06445 20.6132 7.28112 20.3632 7.54779 20.1048C7.87279 19.7715 8.08112 19.6382 8.20612 19.6548C8.32279 19.6632 8.43945 19.5965 8.53112 19.4632C8.65612 19.2632 8.65612 19.2298 8.53112 19.0382C8.35612 18.7715 7.94779 18.7465 7.81445 19.0048ZM8.27279 19.2465C8.27279 19.3048 8.21445 19.3632 8.13945 19.3798C8.01445 19.3965 7.99779 19.3465 8.05612 19.0965C8.07279 19.0132 8.27279 19.1548 8.27279 19.2465ZM7.13112 21.0965C7.07279 21.2548 6.81445 21.2798 6.81445 21.1298C6.81445 21.0465 6.88945 20.9965 6.98945 20.9965C7.08945 20.9965 7.14779 21.0382 7.13112 21.0965Z" fill="black"/>
<path id="Vector_40" d="M13.2481 18.9297C12.9981 19.1797 13.2398 19.7214 13.5565 19.6381C13.6981 19.6047 13.8315 19.6964 14.1731 20.0547C14.4065 20.3047 14.6148 20.5464 14.6315 20.5797C14.6481 20.6214 14.5731 20.7631 14.4731 20.9047C14.2981 21.1464 14.2981 21.1631 14.4315 21.3631C14.5981 21.6214 14.8981 21.6464 15.0898 21.4297C15.2815 21.2214 15.2648 21.0547 15.0565 20.8631C14.9565 20.7714 14.9065 20.6464 14.9315 20.5464C14.9648 20.4297 14.8398 20.2464 14.4815 19.8797C14.1898 19.5881 13.9815 19.3047 13.9815 19.2047C13.9815 19.1047 13.9398 18.9881 13.8815 18.9297C13.7565 18.8047 13.3731 18.8047 13.2481 18.9297ZM14.8565 21.1047C14.8565 21.3214 14.6898 21.3131 14.6648 21.0881C14.6398 20.9547 14.6731 20.9047 14.7481 20.9297C14.8065 20.9547 14.8565 21.0297 14.8565 21.1047Z" fill="black"/>
<path id="Vector_41" d="M9.98219 20.3212C9.94052 20.4129 9.89886 20.5462 9.89886 20.6212C9.89886 20.6962 9.78219 20.8546 9.64052 20.9712C9.49886 21.0962 9.34886 21.2712 9.30719 21.3629C9.26552 21.4629 9.19052 21.5962 9.14052 21.6712C8.98219 21.8796 9.11552 22.2379 9.37386 22.2962C9.49052 22.3296 9.64886 22.3129 9.72386 22.2712C9.90719 22.1546 9.94886 21.6796 9.78219 21.6129C9.70719 21.5879 9.64886 21.5129 9.64886 21.4546C9.64886 21.2796 10.1239 20.9212 10.2989 20.9712C10.4739 21.0129 10.7322 20.8046 10.7322 20.6129C10.7322 20.3462 10.5572 20.1629 10.3155 20.1629C10.1572 20.1629 10.0405 20.2212 9.98219 20.3212ZM9.60719 21.8712C9.60719 21.9546 9.56552 22.0379 9.51552 22.0546C9.40719 22.0879 9.29052 21.8546 9.36552 21.7379C9.44052 21.6129 9.60719 21.7046 9.60719 21.8712Z" fill="black"/>
<path id="Vector_42" d="M11.1637 20.263C11.022 20.4047 11.0387 20.788 11.1804 20.913C11.247 20.963 11.3887 20.9964 11.4887 20.9797C11.6137 20.963 11.7637 21.038 11.9137 21.1964L12.1554 21.438L11.9887 21.5964C11.772 21.7964 11.7637 22.013 11.9804 22.2047C12.1804 22.388 12.522 22.3214 12.6554 22.0714C12.7304 21.9214 12.7137 21.8464 12.572 21.6547C12.472 21.5297 12.397 21.388 12.397 21.3464C12.397 21.313 12.2637 21.1547 12.1054 20.9964C11.9387 20.838 11.8304 20.663 11.8554 20.5964C11.8804 20.538 11.8554 20.413 11.8137 20.3214C11.7137 20.138 11.322 20.1047 11.1637 20.263ZM12.3554 21.8547C12.3554 22.0714 12.1887 22.063 12.1637 21.838C12.1387 21.7047 12.172 21.6547 12.247 21.6797C12.3054 21.7047 12.3554 21.7797 12.3554 21.8547Z" fill="black"/>
</g>
</g>
</svg>
