<svg width="1840" height="1657" viewBox="0 0 1440 1557" fill="none" xmlns="http://www.w3.org/2000/svg">
<g opacity="0.05">
<rect width="1812" height="1812" transform="translate(-196 -172)" fill="#181818"/>
<path fill-rule="evenodd" clip-rule="evenodd" d="M166.398 156.431C150.497 72.5937 76.8401 9.2002 -11.6233 9.2002C-13.379 9.2002 -14.8022 10.6235 -14.8022 12.3791C-14.8022 100.843 48.5912 174.5 132.428 190.4C48.5912 206.301 -14.8022 279.958 -14.8022 368.421C-14.8022 370.177 -13.379 371.6 -11.6233 371.6C76.8401 371.6 150.497 308.207 166.398 224.37C182.298 308.207 255.955 371.6 344.419 371.6C346.174 371.6 347.598 370.177 347.598 368.421C347.598 279.958 284.204 206.301 200.367 190.4C284.204 174.5 347.598 100.843 347.598 12.3791C347.598 10.6235 346.174 9.2002 344.419 9.2002C255.955 9.2002 182.298 72.5937 166.398 156.431ZM169.606 193.608C171.297 287.624 247.195 363.522 341.211 365.213C339.519 271.198 263.621 195.299 169.606 193.608ZM341.211 15.5869C247.195 17.2785 171.297 93.1768 169.606 187.192C263.621 185.501 339.519 109.602 341.211 15.5869ZM163.19 193.608C161.498 287.624 85.6 363.522 -8.41552 365.213C-6.72398 271.198 69.1744 195.299 163.19 193.608ZM-8.41552 15.5869C85.6 17.2785 161.498 93.1768 163.19 187.192C69.1744 185.501 -6.72399 109.602 -8.41552 15.5869Z" fill="url(#paint0_radial_403_38650)"/>
<path fill-rule="evenodd" clip-rule="evenodd" d="M528.798 156.431C512.897 72.5937 439.24 9.2002 350.777 9.2002C349.021 9.2002 347.598 10.6235 347.598 12.3791C347.598 100.843 410.991 174.5 494.828 190.4C410.991 206.301 347.598 279.958 347.598 368.421C347.598 370.177 349.021 371.6 350.777 371.6C439.24 371.6 512.897 308.207 528.798 224.37C544.698 308.207 618.355 371.6 706.819 371.6C708.574 371.6 709.998 370.177 709.998 368.421C709.998 279.958 646.604 206.301 562.767 190.4C646.604 174.5 709.998 100.843 709.998 12.3791C709.998 10.6235 708.574 9.2002 706.819 9.2002C618.355 9.2002 544.698 72.5937 528.798 156.431ZM532.006 193.608C533.697 287.624 609.595 363.522 703.611 365.213C701.919 271.198 626.021 195.299 532.006 193.608ZM703.611 15.5869C609.595 17.2785 533.697 93.1768 532.006 187.192C626.021 185.501 701.919 109.602 703.611 15.5869ZM525.59 193.608C523.898 287.624 448 363.522 353.985 365.213C355.676 271.198 431.574 195.299 525.59 193.608ZM353.985 15.5869C448 17.2785 523.898 93.1768 525.59 187.192C431.574 185.501 355.676 109.602 353.985 15.5869Z" fill="url(#paint1_radial_403_38650)"/>
<path fill-rule="evenodd" clip-rule="evenodd" d="M891.198 156.431C875.297 72.5937 801.64 9.2002 713.177 9.2002C711.421 9.2002 709.998 10.6235 709.998 12.3791C709.998 100.843 773.391 174.5 857.228 190.4C773.391 206.301 709.998 279.958 709.998 368.421C709.998 370.177 711.421 371.6 713.177 371.6C801.64 371.6 875.297 308.207 891.198 224.37C907.098 308.207 980.755 371.6 1069.22 371.6C1070.97 371.6 1072.4 370.177 1072.4 368.421C1072.4 279.958 1009 206.301 925.167 190.4C1009 174.5 1072.4 100.843 1072.4 12.3791C1072.4 10.6235 1070.97 9.2002 1069.22 9.2002C980.755 9.2002 907.098 72.5937 891.198 156.431ZM894.406 193.608C896.097 287.624 971.995 363.522 1066.01 365.213C1064.32 271.198 988.421 195.299 894.406 193.608ZM1066.01 15.5869C971.995 17.2785 896.097 93.1768 894.406 187.192C988.421 185.501 1064.32 109.602 1066.01 15.5869ZM887.99 193.608C886.298 287.624 810.4 363.522 716.385 365.213C718.076 271.198 793.974 195.299 887.99 193.608ZM716.385 15.5869C810.4 17.2785 886.298 93.1768 887.99 187.192C793.974 185.501 718.076 109.602 716.385 15.5869Z" fill="url(#paint2_radial_403_38650)"/>
<path fill-rule="evenodd" clip-rule="evenodd" d="M1253.6 156.431C1237.7 72.5937 1164.04 9.2002 1075.58 9.2002C1073.82 9.2002 1072.4 10.6235 1072.4 12.3791C1072.4 100.843 1135.79 174.5 1219.63 190.4C1135.79 206.301 1072.4 279.958 1072.4 368.421C1072.4 370.177 1073.82 371.6 1075.58 371.6C1164.04 371.6 1237.7 308.207 1253.6 224.37C1269.5 308.207 1343.16 371.6 1431.62 371.6C1433.37 371.6 1434.8 370.177 1434.8 368.421C1434.8 279.958 1371.4 206.301 1287.57 190.4C1371.4 174.5 1434.8 100.843 1434.8 12.3791C1434.8 10.6235 1433.37 9.2002 1431.62 9.2002C1343.16 9.2002 1269.5 72.5937 1253.6 156.431ZM1256.81 193.608C1258.5 287.624 1334.4 363.522 1428.41 365.213C1426.72 271.198 1350.82 195.299 1256.81 193.608ZM1428.41 15.5869C1334.4 17.2785 1258.5 93.1768 1256.81 187.192C1350.82 185.501 1426.72 109.602 1428.41 15.5869ZM1250.39 193.608C1248.7 287.624 1172.8 363.522 1078.78 365.213C1080.48 271.198 1156.37 195.299 1250.39 193.608ZM1078.78 15.5869C1172.8 17.2785 1248.7 93.1768 1250.39 187.192C1156.37 185.501 1080.48 109.602 1078.78 15.5869Z" fill="url(#paint3_radial_403_38650)"/>
<path fill-rule="evenodd" clip-rule="evenodd" d="M166.398 586.77C150.497 670.607 76.8401 734 -11.6233 734C-13.379 734 -14.8022 732.577 -14.8022 730.821C-14.8022 642.358 48.5912 568.701 132.428 552.8C48.5912 536.899 -14.8022 463.242 -14.8022 374.779C-14.8022 373.023 -13.379 371.6 -11.6233 371.6C76.8401 371.6 150.497 434.993 166.398 518.83C182.298 434.994 255.955 371.6 344.419 371.6C346.174 371.6 347.598 373.023 347.598 374.779C347.598 463.242 284.204 536.899 200.367 552.8C284.204 568.701 347.598 642.358 347.598 730.821C347.598 732.577 346.174 734 344.419 734C255.955 734 182.298 670.607 166.398 586.77ZM169.606 549.592C171.297 455.577 247.195 379.678 341.211 377.987C339.519 472.002 263.621 547.901 169.606 549.592ZM341.211 727.613C247.195 725.922 171.297 650.023 169.606 556.008C263.621 557.699 339.519 633.598 341.211 727.613ZM163.19 549.592C161.498 455.577 85.6 379.678 -8.41552 377.987C-6.72398 472.002 69.1744 547.901 163.19 549.592ZM-8.41552 727.613C85.6 725.922 161.498 650.023 163.19 556.008C69.1744 557.699 -6.72399 633.598 -8.41552 727.613Z" fill="url(#paint4_radial_403_38650)"/>
<path fill-rule="evenodd" clip-rule="evenodd" d="M528.798 586.77C512.897 670.607 439.24 734 350.777 734C349.021 734 347.598 732.577 347.598 730.821C347.598 642.358 410.991 568.701 494.828 552.8C410.991 536.899 347.598 463.242 347.598 374.779C347.598 373.023 349.021 371.6 350.777 371.6C439.24 371.6 512.897 434.993 528.798 518.83C544.698 434.994 618.355 371.6 706.819 371.6C708.574 371.6 709.998 373.023 709.998 374.779C709.998 463.242 646.604 536.899 562.767 552.8C646.604 568.701 709.998 642.358 709.998 730.821C709.998 732.577 708.574 734 706.819 734C618.355 734 544.698 670.607 528.798 586.77ZM532.006 549.592C533.697 455.577 609.595 379.678 703.611 377.987C701.919 472.002 626.021 547.901 532.006 549.592ZM703.611 727.613C609.595 725.922 533.697 650.023 532.006 556.008C626.021 557.699 701.919 633.598 703.611 727.613ZM525.59 549.592C523.898 455.577 448 379.678 353.985 377.987C355.676 472.002 431.574 547.901 525.59 549.592ZM353.985 727.613C448 725.922 523.898 650.023 525.59 556.008C431.574 557.699 355.676 633.598 353.985 727.613Z" fill="url(#paint5_radial_403_38650)"/>
<path fill-rule="evenodd" clip-rule="evenodd" d="M891.198 586.77C875.297 670.607 801.64 734 713.177 734C711.421 734 709.998 732.577 709.998 730.821C709.998 642.358 773.391 568.701 857.228 552.8C773.391 536.899 709.998 463.242 709.998 374.779C709.998 373.023 711.421 371.6 713.177 371.6C801.64 371.6 875.297 434.993 891.198 518.83C907.098 434.994 980.755 371.6 1069.22 371.6C1070.97 371.6 1072.4 373.023 1072.4 374.779C1072.4 463.242 1009 536.899 925.167 552.8C1009 568.701 1072.4 642.358 1072.4 730.821C1072.4 732.577 1070.97 734 1069.22 734C980.755 734 907.098 670.607 891.198 586.77ZM894.406 549.592C896.097 455.577 971.995 379.678 1066.01 377.987C1064.32 472.002 988.421 547.901 894.406 549.592ZM1066.01 727.613C971.995 725.922 896.097 650.023 894.406 556.008C988.421 557.699 1064.32 633.598 1066.01 727.613ZM887.99 549.592C886.298 455.577 810.4 379.678 716.385 377.987C718.076 472.002 793.974 547.901 887.99 549.592ZM716.385 727.613C810.4 725.922 886.298 650.023 887.99 556.008C793.974 557.699 718.076 633.598 716.385 727.613Z" fill="url(#paint6_radial_403_38650)"/>
<path fill-rule="evenodd" clip-rule="evenodd" d="M1253.6 586.77C1237.7 670.607 1164.04 734 1075.58 734C1073.82 734 1072.4 732.577 1072.4 730.821C1072.4 642.358 1135.79 568.701 1219.63 552.8C1135.79 536.899 1072.4 463.242 1072.4 374.779C1072.4 373.023 1073.82 371.6 1075.58 371.6C1164.04 371.6 1237.7 434.993 1253.6 518.83C1269.5 434.994 1343.16 371.6 1431.62 371.6C1433.37 371.6 1434.8 373.023 1434.8 374.779C1434.8 463.242 1371.4 536.899 1287.57 552.8C1371.4 568.701 1434.8 642.358 1434.8 730.821C1434.8 732.577 1433.37 734 1431.62 734C1343.16 734 1269.5 670.607 1253.6 586.77ZM1256.81 549.592C1258.5 455.577 1334.4 379.678 1428.41 377.987C1426.72 472.002 1350.82 547.901 1256.81 549.592ZM1428.41 727.613C1334.4 725.922 1258.5 650.023 1256.81 556.008C1350.82 557.699 1426.72 633.598 1428.41 727.613ZM1250.39 549.592C1248.7 455.577 1172.8 379.678 1078.78 377.987C1080.48 472.002 1156.37 547.901 1250.39 549.592ZM1078.78 727.613C1172.8 725.922 1248.7 650.023 1250.39 556.008C1156.37 557.699 1080.48 633.598 1078.78 727.613Z" fill="url(#paint7_radial_403_38650)"/>
<path fill-rule="evenodd" clip-rule="evenodd" d="M166.398 881.23C150.497 797.393 76.8401 734 -11.6233 734C-13.379 734 -14.8022 735.423 -14.8022 737.179C-14.8022 825.642 48.5912 899.299 132.428 915.2C48.5912 931.101 -14.8022 1004.76 -14.8022 1093.22C-14.8022 1094.98 -13.379 1096.4 -11.6233 1096.4C76.8401 1096.4 150.497 1033.01 166.398 949.17C182.298 1033.01 255.955 1096.4 344.419 1096.4C346.174 1096.4 347.598 1094.98 347.598 1093.22C347.598 1004.76 284.204 931.101 200.367 915.2C284.204 899.299 347.598 825.642 347.598 737.179C347.598 735.423 346.174 734 344.419 734C255.955 734 182.298 797.393 166.398 881.23ZM169.606 918.408C171.297 1012.42 247.195 1088.32 341.211 1090.01C339.519 995.998 263.621 920.099 169.606 918.408ZM341.211 740.387C247.195 742.078 171.297 817.977 169.606 911.992C263.621 910.301 339.519 834.402 341.211 740.387ZM163.19 918.408C161.498 1012.42 85.6 1088.32 -8.41552 1090.01C-6.72398 995.998 69.1744 920.099 163.19 918.408ZM-8.41552 740.387C85.6 742.078 161.498 817.977 163.19 911.992C69.1744 910.301 -6.72399 834.402 -8.41552 740.387Z" fill="url(#paint8_radial_403_38650)"/>
<path fill-rule="evenodd" clip-rule="evenodd" d="M528.798 881.23C512.897 797.393 439.24 734 350.777 734C349.021 734 347.598 735.423 347.598 737.179C347.598 825.642 410.991 899.299 494.828 915.2C410.991 931.101 347.598 1004.76 347.598 1093.22C347.598 1094.98 349.021 1096.4 350.777 1096.4C439.24 1096.4 512.897 1033.01 528.798 949.17C544.698 1033.01 618.355 1096.4 706.819 1096.4C708.574 1096.4 709.998 1094.98 709.998 1093.22C709.998 1004.76 646.604 931.101 562.767 915.2C646.604 899.299 709.998 825.642 709.998 737.179C709.998 735.423 708.574 734 706.819 734C618.355 734 544.698 797.393 528.798 881.23ZM532.006 918.408C533.697 1012.42 609.595 1088.32 703.611 1090.01C701.919 995.998 626.021 920.099 532.006 918.408ZM703.611 740.387C609.595 742.078 533.697 817.977 532.006 911.992C626.021 910.301 701.919 834.402 703.611 740.387ZM525.59 918.408C523.898 1012.42 448 1088.32 353.985 1090.01C355.676 995.998 431.574 920.099 525.59 918.408ZM353.985 740.387C448 742.078 523.898 817.977 525.59 911.992C431.574 910.301 355.676 834.402 353.985 740.387Z" fill="url(#paint9_radial_403_38650)"/>
<path fill-rule="evenodd" clip-rule="evenodd" d="M891.198 881.23C875.297 797.393 801.64 734 713.177 734C711.421 734 709.998 735.423 709.998 737.179C709.998 825.642 773.391 899.299 857.228 915.2C773.391 931.101 709.998 1004.76 709.998 1093.22C709.998 1094.98 711.421 1096.4 713.177 1096.4C801.64 1096.4 875.297 1033.01 891.198 949.17C907.098 1033.01 980.755 1096.4 1069.22 1096.4C1070.97 1096.4 1072.4 1094.98 1072.4 1093.22C1072.4 1004.76 1009 931.101 925.167 915.2C1009 899.299 1072.4 825.642 1072.4 737.179C1072.4 735.423 1070.97 734 1069.22 734C980.755 734 907.098 797.393 891.198 881.23ZM894.406 918.408C896.097 1012.42 971.995 1088.32 1066.01 1090.01C1064.32 995.998 988.421 920.099 894.406 918.408ZM1066.01 740.387C971.995 742.078 896.097 817.977 894.406 911.992C988.421 910.301 1064.32 834.402 1066.01 740.387ZM887.99 918.408C886.298 1012.42 810.4 1088.32 716.385 1090.01C718.076 995.998 793.974 920.099 887.99 918.408ZM716.385 740.387C810.4 742.078 886.298 817.977 887.99 911.992C793.974 910.301 718.076 834.402 716.385 740.387Z" fill="url(#paint10_radial_403_38650)"/>
<path fill-rule="evenodd" clip-rule="evenodd" d="M1253.6 881.23C1237.7 797.393 1164.04 734 1075.58 734C1073.82 734 1072.4 735.423 1072.4 737.179C1072.4 825.642 1135.79 899.299 1219.63 915.2C1135.79 931.101 1072.4 1004.76 1072.4 1093.22C1072.4 1094.98 1073.82 1096.4 1075.58 1096.4C1164.04 1096.4 1237.7 1033.01 1253.6 949.17C1269.5 1033.01 1343.16 1096.4 1431.62 1096.4C1433.37 1096.4 1434.8 1094.98 1434.8 1093.22C1434.8 1004.76 1371.4 931.101 1287.57 915.2C1371.4 899.299 1434.8 825.642 1434.8 737.179C1434.8 735.423 1433.37 734 1431.62 734C1343.16 734 1269.5 797.393 1253.6 881.23ZM1256.81 918.408C1258.5 1012.42 1334.4 1088.32 1428.41 1090.01C1426.72 995.998 1350.82 920.099 1256.81 918.408ZM1428.41 740.387C1334.4 742.078 1258.5 817.977 1256.81 911.992C1350.82 910.301 1426.72 834.402 1428.41 740.387ZM1250.39 918.408C1248.7 1012.42 1172.8 1088.32 1078.78 1090.01C1080.48 995.998 1156.37 920.099 1250.39 918.408ZM1078.78 740.387C1172.8 742.078 1248.7 817.977 1250.39 911.992C1156.37 910.301 1080.48 834.402 1078.78 740.387Z" fill="url(#paint11_radial_403_38650)"/>
<path fill-rule="evenodd" clip-rule="evenodd" d="M166.398 1243.63C150.497 1159.79 76.8401 1096.4 -11.6233 1096.4C-13.379 1096.4 -14.8022 1097.82 -14.8022 1099.58C-14.8022 1188.04 48.5912 1261.7 132.428 1277.6C48.5912 1293.5 -14.8022 1367.16 -14.8022 1455.62C-14.8022 1457.38 -13.379 1458.8 -11.6233 1458.8C76.8401 1458.8 150.497 1395.41 166.398 1311.57C182.298 1395.41 255.955 1458.8 344.419 1458.8C346.174 1458.8 347.598 1457.38 347.598 1455.62C347.598 1367.16 284.204 1293.5 200.367 1277.6C284.204 1261.7 347.598 1188.04 347.598 1099.58C347.598 1097.82 346.174 1096.4 344.419 1096.4C255.955 1096.4 182.298 1159.79 166.398 1243.63ZM169.606 1280.81C171.297 1374.82 247.195 1450.72 341.211 1452.41C339.519 1358.4 263.621 1282.5 169.606 1280.81ZM341.211 1102.79C247.195 1104.48 171.297 1180.38 169.606 1274.39C263.621 1272.7 339.519 1196.8 341.211 1102.79ZM163.19 1280.81C161.498 1374.82 85.6 1450.72 -8.41552 1452.41C-6.72398 1358.4 69.1744 1282.5 163.19 1280.81ZM-8.41552 1102.79C85.6 1104.48 161.498 1180.38 163.19 1274.39C69.1744 1272.7 -6.72399 1196.8 -8.41552 1102.79Z" fill="url(#paint12_radial_403_38650)"/>
<path fill-rule="evenodd" clip-rule="evenodd" d="M528.798 1243.63C512.897 1159.79 439.24 1096.4 350.777 1096.4C349.021 1096.4 347.598 1097.82 347.598 1099.58C347.598 1188.04 410.991 1261.7 494.828 1277.6C410.991 1293.5 347.598 1367.16 347.598 1455.62C347.598 1457.38 349.021 1458.8 350.777 1458.8C439.24 1458.8 512.897 1395.41 528.798 1311.57C544.698 1395.41 618.355 1458.8 706.819 1458.8C708.574 1458.8 709.998 1457.38 709.998 1455.62C709.998 1367.16 646.604 1293.5 562.767 1277.6C646.604 1261.7 709.998 1188.04 709.998 1099.58C709.998 1097.82 708.574 1096.4 706.819 1096.4C618.355 1096.4 544.698 1159.79 528.798 1243.63ZM532.006 1280.81C533.697 1374.82 609.595 1450.72 703.611 1452.41C701.919 1358.4 626.021 1282.5 532.006 1280.81ZM703.611 1102.79C609.595 1104.48 533.697 1180.38 532.006 1274.39C626.021 1272.7 701.919 1196.8 703.611 1102.79ZM525.59 1280.81C523.898 1374.82 448 1450.72 353.985 1452.41C355.676 1358.4 431.574 1282.5 525.59 1280.81ZM353.985 1102.79C448 1104.48 523.898 1180.38 525.59 1274.39C431.574 1272.7 355.676 1196.8 353.985 1102.79Z" fill="url(#paint13_radial_403_38650)"/>
<path fill-rule="evenodd" clip-rule="evenodd" d="M891.198 1243.63C875.297 1159.79 801.64 1096.4 713.177 1096.4C711.421 1096.4 709.998 1097.82 709.998 1099.58C709.998 1188.04 773.391 1261.7 857.228 1277.6C773.391 1293.5 709.998 1367.16 709.998 1455.62C709.998 1457.38 711.421 1458.8 713.177 1458.8C801.64 1458.8 875.297 1395.41 891.198 1311.57C907.098 1395.41 980.755 1458.8 1069.22 1458.8C1070.97 1458.8 1072.4 1457.38 1072.4 1455.62C1072.4 1367.16 1009 1293.5 925.167 1277.6C1009 1261.7 1072.4 1188.04 1072.4 1099.58C1072.4 1097.82 1070.97 1096.4 1069.22 1096.4C980.755 1096.4 907.098 1159.79 891.198 1243.63ZM894.406 1280.81C896.097 1374.82 971.995 1450.72 1066.01 1452.41C1064.32 1358.4 988.421 1282.5 894.406 1280.81ZM1066.01 1102.79C971.995 1104.48 896.097 1180.38 894.406 1274.39C988.421 1272.7 1064.32 1196.8 1066.01 1102.79ZM887.99 1280.81C886.298 1374.82 810.4 1450.72 716.385 1452.41C718.076 1358.4 793.974 1282.5 887.99 1280.81ZM716.385 1102.79C810.4 1104.48 886.298 1180.38 887.99 1274.39C793.974 1272.7 718.076 1196.8 716.385 1102.79Z" fill="url(#paint14_radial_403_38650)"/>
<path fill-rule="evenodd" clip-rule="evenodd" d="M1253.6 1243.63C1237.7 1159.79 1164.04 1096.4 1075.58 1096.4C1073.82 1096.4 1072.4 1097.82 1072.4 1099.58C1072.4 1188.04 1135.79 1261.7 1219.63 1277.6C1135.79 1293.5 1072.4 1367.16 1072.4 1455.62C1072.4 1457.38 1073.82 1458.8 1075.58 1458.8C1164.04 1458.8 1237.7 1395.41 1253.6 1311.57C1269.5 1395.41 1343.16 1458.8 1431.62 1458.8C1433.37 1458.8 1434.8 1457.38 1434.8 1455.62C1434.8 1367.16 1371.4 1293.5 1287.57 1277.6C1371.4 1261.7 1434.8 1188.04 1434.8 1099.58C1434.8 1097.82 1433.37 1096.4 1431.62 1096.4C1343.16 1096.4 1269.5 1159.79 1253.6 1243.63ZM1256.81 1280.81C1258.5 1374.82 1334.4 1450.72 1428.41 1452.41C1426.72 1358.4 1350.82 1282.5 1256.81 1280.81ZM1428.41 1102.79C1334.4 1104.48 1258.5 1180.38 1256.81 1274.39C1350.82 1272.7 1426.72 1196.8 1428.41 1102.79ZM1250.39 1280.81C1248.7 1374.82 1172.8 1450.72 1078.78 1452.41C1080.48 1358.4 1156.37 1282.5 1250.39 1280.81ZM1078.78 1102.79C1172.8 1104.48 1248.7 1180.38 1250.39 1274.39C1156.37 1272.7 1080.48 1196.8 1078.78 1102.79Z" fill="url(#paint15_radial_403_38650)"/>
</g>
<defs>
<radialGradient id="paint0_radial_403_38650" cx="0" cy="0" r="1" gradientUnits="userSpaceOnUse" gradientTransform="translate(166.398 190.4) rotate(90) scale(181.2)">
<stop stop-color="white"/>
<stop offset="1" stop-color="white" stop-opacity="0.24"/>
</radialGradient>
<radialGradient id="paint1_radial_403_38650" cx="0" cy="0" r="1" gradientUnits="userSpaceOnUse" gradientTransform="translate(528.798 190.4) rotate(90) scale(181.2)">
<stop stop-color="white"/>
<stop offset="1" stop-color="white" stop-opacity="0.24"/>
</radialGradient>
<radialGradient id="paint2_radial_403_38650" cx="0" cy="0" r="1" gradientUnits="userSpaceOnUse" gradientTransform="translate(891.198 190.4) rotate(90) scale(181.2)">
<stop stop-color="white"/>
<stop offset="1" stop-color="white" stop-opacity="0.24"/>
</radialGradient>
<radialGradient id="paint3_radial_403_38650" cx="0" cy="0" r="1" gradientUnits="userSpaceOnUse" gradientTransform="translate(1253.6 190.4) rotate(90) scale(181.2)">
<stop stop-color="white"/>
<stop offset="1" stop-color="white" stop-opacity="0.24"/>
</radialGradient>
<radialGradient id="paint4_radial_403_38650" cx="0" cy="0" r="1" gradientUnits="userSpaceOnUse" gradientTransform="translate(166.398 552.8) rotate(-90) scale(181.2)">
<stop stop-color="white"/>
<stop offset="1" stop-color="white" stop-opacity="0.24"/>
</radialGradient>
<radialGradient id="paint5_radial_403_38650" cx="0" cy="0" r="1" gradientUnits="userSpaceOnUse" gradientTransform="translate(528.798 552.8) rotate(-90) scale(181.2)">
<stop stop-color="white"/>
<stop offset="1" stop-color="white" stop-opacity="0.24"/>
</radialGradient>
<radialGradient id="paint6_radial_403_38650" cx="0" cy="0" r="1" gradientUnits="userSpaceOnUse" gradientTransform="translate(891.198 552.8) rotate(-90) scale(181.2)">
<stop stop-color="white"/>
<stop offset="1" stop-color="white" stop-opacity="0.24"/>
</radialGradient>
<radialGradient id="paint7_radial_403_38650" cx="0" cy="0" r="1" gradientUnits="userSpaceOnUse" gradientTransform="translate(1253.6 552.8) rotate(-90) scale(181.2)">
<stop stop-color="white"/>
<stop offset="1" stop-color="white" stop-opacity="0.24"/>
</radialGradient>
<radialGradient id="paint8_radial_403_38650" cx="0" cy="0" r="1" gradientUnits="userSpaceOnUse" gradientTransform="translate(166.398 915.2) rotate(90) scale(181.2)">
<stop stop-color="white"/>
<stop offset="1" stop-color="white" stop-opacity="0.24"/>
</radialGradient>
<radialGradient id="paint9_radial_403_38650" cx="0" cy="0" r="1" gradientUnits="userSpaceOnUse" gradientTransform="translate(528.798 915.2) rotate(90) scale(181.2)">
<stop stop-color="white"/>
<stop offset="1" stop-color="white" stop-opacity="0.24"/>
</radialGradient>
<radialGradient id="paint10_radial_403_38650" cx="0" cy="0" r="1" gradientUnits="userSpaceOnUse" gradientTransform="translate(891.198 915.2) rotate(90) scale(181.2)">
<stop stop-color="white"/>
<stop offset="1" stop-color="white" stop-opacity="0.24"/>
</radialGradient>
<radialGradient id="paint11_radial_403_38650" cx="0" cy="0" r="1" gradientUnits="userSpaceOnUse" gradientTransform="translate(1253.6 915.2) rotate(90) scale(181.2)">
<stop stop-color="white"/>
<stop offset="1" stop-color="white" stop-opacity="0.24"/>
</radialGradient>
<radialGradient id="paint12_radial_403_38650" cx="0" cy="0" r="1" gradientUnits="userSpaceOnUse" gradientTransform="translate(166.398 1277.6) rotate(90) scale(181.2)">
<stop stop-color="white"/>
<stop offset="1" stop-color="white" stop-opacity="0.24"/>
</radialGradient>
<radialGradient id="paint13_radial_403_38650" cx="0" cy="0" r="1" gradientUnits="userSpaceOnUse" gradientTransform="translate(528.798 1277.6) rotate(90) scale(181.2)">
<stop stop-color="white"/>
<stop offset="1" stop-color="white" stop-opacity="0.24"/>
</radialGradient>
<radialGradient id="paint14_radial_403_38650" cx="0" cy="0" r="1" gradientUnits="userSpaceOnUse" gradientTransform="translate(891.198 1277.6) rotate(90) scale(181.2)">
<stop stop-color="white"/>
<stop offset="1" stop-color="white" stop-opacity="0.24"/>
</radialGradient>
<radialGradient id="paint15_radial_403_38650" cx="0" cy="0" r="1" gradientUnits="userSpaceOnUse" gradientTransform="translate(1253.6 1277.6) rotate(90) scale(181.2)">
<stop stop-color="white"/>
<stop offset="1" stop-color="white" stop-opacity="0.24"/>
</radialGradient>
</defs>
</svg>
