<svg width="644" height="776" viewBox="0 0 644 776" fill="none" xmlns="http://www.w3.org/2000/svg">
<circle cx="289.638" cy="327.072" r="202.598" transform="rotate(-65.0944 289.638 327.072)" stroke="white" stroke-width="0.362175"/>
<circle cx="290.575" cy="359.448" r="188.114" transform="rotate(-65.0944 290.575 359.448)" stroke="white" stroke-width="0.362175"/>
<circle cx="291.519" cy="391.814" r="173.63" transform="rotate(-65.0944 291.519 391.814)" stroke="white" stroke-width="0.362175"/>
<circle cx="292.455" cy="424.189" r="159.145" transform="rotate(-65.0944 292.455 424.189)" stroke="white" stroke-width="0.362175"/>
<circle cx="293.392" cy="456.566" r="144.661" transform="rotate(-65.0944 293.392 456.566)" stroke="white" stroke-width="0.362175"/>
<circle cx="294.329" cy="488.942" r="130.177" transform="rotate(-65.0944 294.329 488.942)" stroke="white" stroke-width="0.362175"/>
<circle cx="295.265" cy="521.318" r="115.693" transform="rotate(-65.0944 295.265 521.318)" stroke="white" stroke-width="0.362175"/>
<circle cx="296.202" cy="553.695" r="101.208" transform="rotate(-65.0944 296.202 553.695)" stroke="white" stroke-width="0.362175"/>
<circle cx="294.09" cy="592.637" r="86.7242" transform="rotate(-65.0944 294.09 592.637)" stroke="white" stroke-width="0.362175"/>
<circle cx="295.034" cy="625.001" r="72.24" transform="rotate(-65.0944 295.034 625.001)" stroke="white" stroke-width="0.362175"/>
<circle cx="292.923" cy="663.943" r="57.7558" transform="rotate(-65.0944 292.923 663.943)" stroke="white" stroke-width="0.362175"/>
<circle cx="293.86" cy="696.32" r="43.2716" transform="rotate(-65.0944 293.86 696.32)" stroke="white" stroke-width="0.362175"/>
<circle cx="294.795" cy="728.695" r="28.7873" transform="rotate(-65.0944 294.795 728.695)" stroke="white" stroke-width="0.362175"/>
<path d="M266.232 83.0098C265.391 84.019 262.952 84.2713 254.121 84.2713H243.104L235.535 91.8403C230.489 96.9704 227.378 99.4093 226.116 99.4093C224.266 99.4093 220.818 102.016 220.818 103.446C220.818 105.128 223.593 107.819 225.359 107.819C227.714 107.819 230.489 104.96 229.816 103.278C229.48 102.521 231.919 99.4934 236.629 94.8679L243.945 87.6353H254.29C263.372 87.6353 264.97 87.8876 266.821 89.2332C270.773 92.429 275.399 88.0558 272.624 83.8508C271.026 81.4959 267.83 81.0754 266.232 83.0098Z" fill="white"/>
<path d="M320.729 82.6733C318.963 83.6826 318.711 87.6353 320.225 89.1491C321.654 90.5788 325.859 90.4106 326.448 88.8968C326.869 87.8876 328.971 87.6353 338.054 87.6353H349.071L356.051 94.6156C361.013 99.6616 362.948 102.101 362.948 103.698C362.948 106.306 364.377 107.819 366.732 107.819C368.835 107.819 371.358 105.38 371.358 103.446C371.358 101.764 368.666 99.4093 366.648 99.4093C365.723 99.4093 361.77 96.2135 357.481 91.8403L349.912 84.2713H338.474C329.307 84.2713 326.784 84.019 325.943 83.0098C324.766 81.58 322.832 81.4118 320.729 82.6733Z" fill="white"/>
<path d="M262.615 96.4657C261.017 97.9795 261.858 101.764 263.961 103.11C265.054 103.782 266.063 103.698 267.998 102.521C269.68 101.596 272.287 101.091 275.735 101.091C280.024 101.175 281.37 101.512 283.304 103.194C284.65 104.371 285.575 106.053 285.575 107.315C285.575 108.66 286.332 110.006 287.677 110.847C289.611 112.108 289.948 112.108 291.882 110.847C293.144 110.006 293.985 108.66 293.985 107.483C293.985 105.044 291.209 102.437 289.023 103.026C287.845 103.278 286.668 102.605 284.986 100.587C282.715 97.8113 282.463 97.7272 276.24 97.7272C271.53 97.7272 269.511 97.3908 268.755 96.4657C267.409 94.8678 264.213 94.8678 262.615 96.4657ZM267.745 99.1569C267.914 99.8297 267.325 100.25 266.316 100.25C265.306 100.25 264.55 99.7456 264.55 98.9046C264.55 97.3908 267.157 97.6431 267.745 99.1569Z" fill="white"/>
<path d="M323.422 96.466C322.665 97.3911 320.646 97.7275 316.357 97.7275C310.554 97.7275 310.218 97.8116 307.443 100.671C305.929 102.269 304.331 103.362 303.91 103.11C302.733 102.353 299.874 103.615 298.949 105.381C297.603 107.904 300.042 111.184 303.238 111.184C305.845 111.184 307.947 108.661 307.19 106.558C306.938 105.969 307.779 104.54 308.956 103.362C310.891 101.512 312.152 101.176 316.862 101.007C321.151 100.839 322.749 101.176 323.842 102.185C325.692 104.035 327.879 103.951 329.561 102.101C331.243 100.251 331.411 97.6434 329.982 96.2137C328.552 94.784 324.683 94.9522 323.422 96.466Z" fill="white"/>
<path d="M235.959 104.202C234.277 104.875 233.436 106.221 233.436 108.239C233.436 110.342 218.887 125.059 217.541 124.302C216.28 123.461 213.42 125.228 212.831 127.162C212.075 129.433 214.429 133.049 216.616 133.049C218.887 133.049 221.83 129.937 221.326 128.171C220.569 125.984 234.697 112.192 238.061 111.856C241.426 111.519 242.855 107.819 240.584 105.296C239.071 103.614 238.146 103.361 235.959 104.202Z" fill="white"/>
<path d="M352.69 104.539C350.924 105.548 350.671 109.501 352.185 111.015C352.774 111.603 353.951 112.024 354.96 112.024C357.315 112.024 371.865 126.489 371.528 128.423C371.108 130.189 373.715 133.049 375.649 133.049C377.752 133.049 379.77 130.778 379.77 128.423C379.77 126.153 376.238 123.293 374.64 124.218C374.135 124.639 370.771 121.863 366.314 117.49C360.847 112.108 359.081 109.753 359.334 108.576C359.838 106.641 357.399 103.614 355.465 103.614C354.708 103.614 353.447 104.034 352.69 104.539Z" fill="white"/>
<path d="M245.628 111.183C243.357 113.538 241.591 114.547 239.993 114.547C235.536 114.547 234.442 121.023 238.647 122.453C241.423 123.462 244.366 121.275 244.366 118.332C244.366 117.407 245.628 115.388 247.141 113.874L249.917 111.183H260.85H271.699L279.94 119.425C284.398 123.882 288.098 128.255 288.098 129.012C288.098 130.106 289.696 131.367 291.126 131.367C291.294 131.367 291.462 130.358 291.462 129.012C291.462 127.162 289.528 124.723 281.959 117.238L272.54 107.819H260.681H248.907L245.628 111.183Z" fill="white"/>
<path d="M310.556 116.901C302.567 124.975 301.557 126.236 301.557 128.844L301.642 131.787L303.828 129.264C305.006 127.834 309.295 123.209 313.416 118.92L320.732 111.183H331.581H342.43L345.542 114.378C347.224 116.144 348.654 118.331 348.654 119.256C348.654 121.443 350.252 122.957 352.438 122.957C354.541 122.957 357.064 120.518 357.064 118.583C357.064 116.733 354.288 114.547 351.934 114.547C350.588 114.547 348.654 113.285 346.551 111.183L343.271 107.819H331.413H319.639L310.556 116.901Z" fill="white"/>
<path d="M243.947 126.825C236.209 134.815 233.35 137.254 231.752 137.254C227.295 137.254 225.949 142.048 229.65 144.486C231.584 145.748 231.92 145.748 233.855 144.486C235.032 143.73 235.957 142.3 235.957 141.207C235.957 139.945 239.069 136.161 245.881 129.433L255.721 119.593H261.271C266.065 119.593 267.074 119.845 268.756 121.695C270.606 123.63 274.643 124.639 274.643 123.125C274.643 122.789 273.214 121.023 271.447 119.341C268.252 116.229 268.252 116.229 261.187 116.313H254.039L243.947 126.825Z" fill="white"/>
<path d="M320.9 120.013C317.452 123.546 317.284 123.798 319.218 123.798C320.311 123.798 322.246 122.789 323.591 121.527C325.694 119.509 326.451 119.341 331.581 119.509L337.3 119.677L347.224 129.517C353.363 135.656 356.895 139.777 356.643 140.534C356.138 141.88 359.334 145.664 361.016 145.664C362.53 145.664 365.473 142.636 365.473 141.039C365.473 139.104 362.362 136.413 360.595 136.834C359.502 137.002 355.97 134.058 348.569 126.657L338.141 116.229H331.413H324.601L320.9 120.013ZM362.109 141.123C362.109 142.468 359.923 142.721 359.166 141.459C358.913 140.954 358.829 140.282 359.166 139.777C359.839 138.684 362.109 139.693 362.109 141.123Z" fill="white"/>
<path d="M238.314 142.132L219.98 160.55V167.362C219.98 171.231 219.643 174.258 219.139 174.258C217.625 174.258 216.616 177.454 217.373 179.557C218.298 181.827 220.484 182.753 223.091 181.743C225.278 180.902 226.119 177.118 224.353 175.436C223.428 174.427 223.091 172.576 223.26 168.119L223.428 162.064L240.753 144.655C254.713 130.695 258.666 127.162 260.937 126.742C264.805 126.069 264.048 124.303 259.843 123.966C256.563 123.798 256.395 123.966 238.314 142.132Z" fill="white"/>
<path d="M328.891 124.639C328.386 125.48 331.75 127.162 333.769 127.162C334.357 127.162 342.683 134.984 352.271 144.655L369.679 162.064V167.867C369.679 172.072 369.259 174.09 368.334 175.184C366.568 177.118 367.325 180.566 369.764 181.828C373.884 184.098 377.669 177.538 373.8 174.763C372.202 173.67 372.118 172.913 372.287 167.194L372.623 160.803L354.121 142.3C336.712 124.892 335.451 123.798 332.507 123.798C330.825 123.798 329.143 124.219 328.891 124.639Z" fill="white"/>
<path d="M227.131 126.658C226.206 127.331 225.449 128.76 225.449 129.938C225.365 131.283 223.262 133.974 218.889 138.264C215.357 141.796 212.413 145.16 212.413 145.833C212.413 146.589 211.824 147.599 211.152 148.187C209.638 149.449 209.47 153.318 210.899 154.747C212.413 156.261 215.357 156.009 216.87 154.243C218.805 152.14 218.637 150.29 216.618 148.356C214.852 146.758 214.936 146.758 221.328 140.282C225.617 135.993 228.392 133.89 229.738 133.89C232.008 133.89 234.363 130.947 233.69 128.928C233.102 127.331 230.999 125.48 229.654 125.48C229.149 125.48 227.972 125.985 227.131 126.658Z" fill="white"/>
<path d="M360.004 127.162C357.734 129.685 359.163 133.385 362.527 133.722C364.293 133.89 366.816 135.74 371.19 140.029C377.413 146.168 378.17 147.598 375.983 148.523C374.47 149.112 374.301 153.317 375.731 154.747C377.161 156.176 380.272 156.008 381.786 154.41C383.468 152.728 383.468 150.373 381.87 148.691C381.198 148.019 380.609 146.925 380.609 146.337C380.609 145.748 377.581 142.216 373.881 138.515C369.171 133.806 367.153 131.199 367.153 129.769C367.153 125.9 362.611 124.218 360.004 127.162Z" fill="white"/>
<path d="M268.926 128.592C263.123 129.854 262.619 130.106 260.6 133.386C259.423 135.236 255.47 141.459 251.77 147.094C246.303 155.42 245.294 157.607 245.967 158.868C247.901 162.148 249.415 166.942 248.826 167.783C248.49 168.287 247.817 169.297 247.228 170.054C246.64 170.726 244.201 173.922 241.846 177.202L237.641 183.089L242.939 188.556C245.799 191.583 249.92 195.872 252.106 198.227L256.059 202.432L255.218 206.637C254.797 208.908 254.209 211.936 253.956 213.365C253.704 214.711 253.199 217.402 252.779 219.252L252.022 222.616L259.002 229.681L266.067 236.745L269.683 233.886C271.701 232.288 273.552 230.858 273.804 230.606C274.056 230.353 278.009 227.326 282.635 223.878C287.176 220.43 291.465 217.15 292.138 216.645C293.315 215.804 293.652 214.459 294.493 206.637L294.913 202.432L290.035 199.489C282.13 194.695 272.795 185.276 279.523 188.892C280.784 189.565 284.989 191.247 288.942 192.677L296.175 195.284L304.164 192.424C308.622 190.826 313.079 189.144 314.088 188.64C319.891 185.528 311.565 193.349 302.566 199.405C297.857 202.6 297.268 203.273 297.688 205.208C298.109 207.646 299.286 214.711 299.37 215.552C299.455 215.972 304.417 219.841 321.993 232.961L326.871 236.661L333.599 229.597C340.664 222.112 340.411 222.784 338.982 215.468C338.729 214.29 338.225 211.263 337.804 208.74C337.384 206.217 336.879 203.694 336.711 203.105C336.627 202.6 340.496 197.975 345.542 192.929C350.503 187.967 354.54 183.51 354.54 183.173C354.54 182.753 352.017 179.052 348.99 174.847L343.355 167.278L345.205 162.064L347.055 156.766L342.262 149.365C339.655 145.244 335.786 139.357 333.852 136.245C329.647 129.854 329.899 130.022 325.778 129.349C324.012 129.097 320.9 128.508 318.714 128.003L314.845 127.162L305.51 133.722L296.175 140.366L286.335 133.806C280.868 130.106 276.075 127.247 275.738 127.247C275.402 127.331 272.29 127.919 268.926 128.592ZM285.999 137.339C291.129 140.787 295.502 143.646 295.838 143.814C296.091 143.982 298.782 142.385 301.725 140.282C316.191 129.938 314.929 130.526 320.059 131.452C322.582 131.872 325.526 132.461 326.535 132.629C327.544 132.881 329.142 134.479 330.235 136.161C331.244 137.927 334.693 143.394 337.888 148.356L343.775 157.27L341.841 162.4L339.991 167.615L344.028 173.418C346.214 176.613 348.737 179.977 349.578 180.903C351.092 182.5 350.924 182.753 342.178 191.836L333.347 201.171L334.02 205.208C334.356 207.394 334.693 209.497 334.861 210.001C334.945 210.422 335.45 213.197 335.954 216.141L336.963 221.439L332.506 226.064C330.067 228.587 327.965 231.11 327.796 231.531C327.628 231.951 327.208 232.288 326.871 232.288C326.451 232.288 320.9 228.251 314.509 223.373C302.65 214.374 302.23 213.786 301.137 207.31C300.716 204.703 301.052 204.367 306.014 201.002C310.472 197.975 327.88 180.987 326.535 180.987C326.367 180.987 324.432 181.744 322.246 182.753C320.059 183.678 317.62 184.603 316.863 184.771C316.106 184.939 311.145 186.621 305.93 188.556L296.511 192.172L289.531 189.565C285.746 188.219 279.018 185.78 274.645 184.098C270.272 182.5 266.487 181.323 266.319 181.575C265.478 182.248 282.046 197.975 286.924 201.171L291.97 204.535L291.213 209.328L290.372 214.206L278.261 223.373L266.067 232.54L261.189 227.158C255.891 221.439 255.638 220.682 256.984 213.702C257.489 211.179 258.077 207.983 258.33 206.637C258.498 205.208 258.918 203.526 259.171 202.769C259.423 201.843 256.648 198.311 250.592 192.004L241.678 182.669L247.228 175.184L252.779 167.615L250.929 162.569C248.826 156.598 248.238 158.027 258.077 143.141C264.973 132.713 264.973 132.713 269.178 131.788C271.533 131.283 274.14 130.863 275.065 130.947C276.075 131.031 280.953 133.89 285.999 137.339Z" fill="white"/>
<path d="M269.598 165.344C273.046 167.951 276.494 170.054 277.335 170.054C278.512 170.054 282.213 165.428 282.213 163.998C282.213 163.578 277.335 162.653 272.121 162.064C271.448 161.98 269.177 161.56 267.075 161.223L263.29 160.55L269.598 165.344Z" fill="white"/>
<path d="M325.023 161.223C324.771 161.391 322.92 161.812 320.818 162.064C318.8 162.316 315.52 162.821 313.501 163.157L309.969 163.746L312.072 166.858C313.249 168.624 314.763 170.054 315.436 170.054C316.529 170.054 328.471 161.896 328.471 161.139C328.471 160.634 325.443 160.719 325.023 161.223Z" fill="white"/>
<path d="M239.493 151.131L227.551 163.325L227.887 178.043C228.139 186.537 227.971 192.76 227.551 192.76C227.13 192.76 226.373 193.601 225.785 194.526C223.85 198.227 227.971 202.348 231.587 200.413C233.942 199.152 234.363 196.461 232.513 194.106C231.083 192.256 230.915 190.574 230.915 177.959V163.83L237.474 157.438C243.53 151.551 253.285 138.936 251.687 138.936C251.519 138.936 245.969 144.403 239.493 151.131ZM230.578 195.704C230.831 196.376 230.831 197.302 230.494 197.806C229.653 199.152 227.551 197.217 228.139 195.62C228.728 194.106 229.99 194.106 230.578 195.704Z" fill="white"/>
<path d="M341.589 140.703C345.542 147.094 349.495 152.14 354.877 157.439L361.269 163.662V178.127C361.269 189.901 361.017 192.761 360.007 193.602C358.073 195.2 358.494 198.395 360.848 199.993C362.783 201.255 363.119 201.255 365.053 199.993C367.408 198.395 367.829 195.2 365.894 193.602C364.885 192.761 364.633 189.901 364.633 177.791V162.989L353.532 151.636C342.935 140.787 339.907 138.011 341.589 140.703ZM364.381 195.704C364.969 197.386 364.212 198.143 362.614 197.554C361.858 197.218 361.521 196.461 361.773 195.704C362.446 194.106 363.708 194.106 364.381 195.704Z" fill="white"/>
<path d="M206.018 162.904C205.345 163.998 204.924 165.343 205.261 165.848C206.102 167.193 202.401 170.894 200.215 170.894C196.43 170.894 194.075 174.678 196.094 177.538C198.617 181.07 205.177 178.631 203.747 174.678C203.158 173.249 207.447 169.212 209.634 169.212C211.652 169.212 214.091 167.193 214.091 165.596C214.091 165.007 213.503 163.661 212.746 162.652C210.98 160.129 207.784 160.213 206.018 162.904Z" fill="white"/>
<path d="M380.27 161.895C379.261 162.652 378.84 163.829 379.093 165.427C379.261 167.446 379.934 168.119 382.036 168.791C385.652 169.969 388.848 173.08 389.185 175.772C389.353 176.865 390.194 178.379 391.119 178.967C393.39 180.481 396.922 178.799 397.258 176.024C397.679 173.417 395.072 170.642 392.633 171.146C390.194 171.567 386.83 168.119 387.166 165.511C387.671 161.727 383.466 159.54 380.27 161.895Z" fill="white"/>
<path d="M218.967 187.209C218.126 187.798 217.453 189.228 217.453 190.405C217.453 192.928 213.584 196.629 210.809 196.797C208.286 196.881 207.277 198.395 207.529 201.591C207.865 205.039 211.566 206.468 214.089 204.114C215.014 203.273 215.687 201.927 215.603 201.17C215.35 199.656 219.639 194.106 220.565 194.694C220.985 194.947 222.078 194.778 223.172 194.358C225.695 193.433 225.863 188.219 223.424 186.873C221.321 185.78 220.733 185.864 218.967 187.209Z" fill="white"/>
<path d="M368.5 187.378C365.977 189.901 367.659 194.61 371.191 194.862C373.714 195.031 377.246 198.563 377.246 200.834C377.246 203.104 379.349 205.375 381.367 205.375C383.217 205.375 385.656 202.768 385.656 200.918C385.656 198.815 382.376 195.872 380.863 196.544C378.928 197.217 375.564 193.769 375.564 190.994C375.564 189.564 374.891 188.134 373.714 187.378C371.359 185.696 370.098 185.696 368.5 187.378Z" fill="white"/>
<path d="M238.482 197.975C238.482 206.553 237.893 207.899 234.277 207.899C231.586 207.899 230.072 209.328 230.072 211.683C230.072 213.786 232.511 216.309 234.529 216.309C236.548 216.309 238.566 213.786 238.314 211.683C238.23 210.674 238.734 209.16 239.575 208.403C241.51 206.385 241.678 192.676 239.744 191.079C238.65 190.153 238.482 190.994 238.482 197.975Z" fill="white"/>
<path d="M352.186 191.919C351.597 192.844 351.177 196.376 351.177 200.161C351.177 205.796 351.429 207.057 352.859 208.319C353.868 209.16 354.372 210.421 354.12 211.094C353.868 211.767 354.288 213.196 354.961 214.29C356.727 216.981 360.007 216.897 361.773 214.206C363.035 212.271 363.035 211.935 361.773 210.001C360.932 208.739 359.587 207.898 358.493 207.898C355.129 207.898 354.541 206.384 354.541 198.058C354.541 193.769 354.288 190.237 353.868 190.237C353.531 190.237 352.774 190.994 352.186 191.919Z" fill="white"/>
<path d="M245.207 204.534V212.524L237.217 220.514L229.228 228.503V234.054C229.228 238.006 228.891 239.941 227.966 240.698C225.359 242.884 227.546 248.267 231.078 248.267C234.274 248.267 236.376 242.8 233.853 240.698C233.012 239.941 232.592 238.006 232.592 234.39V229.176L240.413 221.691L248.15 214.122L247.898 207.057C247.73 202.684 247.225 199.404 246.468 198.311C245.291 196.797 245.207 197.302 245.207 204.534ZM232.171 242.38C232.508 242.884 232.255 243.893 231.667 244.566C230.742 245.744 230.573 245.744 229.901 244.566C228.639 242.38 230.91 240.277 232.171 242.38Z" fill="white"/>
<path d="M345.957 198.395C344.78 199.656 344.443 201.59 344.443 207.225V214.374L352.265 221.859L360.086 229.344L360.002 234.39C360.002 237.922 359.581 239.856 358.656 240.781C356.806 242.631 357.563 246.5 360.002 247.593C363.702 249.275 367.403 245.239 365.468 241.538C364.964 240.613 364.207 239.856 363.786 239.856C363.282 239.856 362.945 237.333 362.945 234.137V228.503L355.376 220.934L347.891 213.449L347.639 205.123C347.387 197.133 347.303 196.881 345.957 198.395ZM362.777 243.388C362.609 244.482 362.188 245.323 361.684 245.323C361.263 245.323 360.759 244.482 360.59 243.388C360.422 242.127 360.759 241.538 361.684 241.538C362.609 241.538 362.945 242.127 362.777 243.388Z" fill="white"/>
<path d="M223.004 202.516C222.247 203.188 221.659 204.618 221.659 205.711C221.659 206.805 219.977 209.16 217.454 211.683C213.417 215.635 213.248 216.056 213.248 220.429C213.248 224.045 212.828 225.475 211.398 226.989C209.632 228.839 209.632 229.175 210.81 231.278C212.576 234.474 216.444 234.474 218.21 231.278C219.388 229.175 219.388 228.839 217.622 226.989C216.36 225.643 215.772 223.961 215.772 221.606C215.772 218.579 216.36 217.57 219.977 213.785C222.668 210.926 224.686 209.58 225.443 209.916C227.041 210.505 230.069 207.562 230.069 205.459C230.069 203.777 227.209 201.17 225.275 201.17C224.77 201.17 223.677 201.759 223.004 202.516ZM215.435 230.269C215.015 231.362 214.594 231.446 213.921 230.773C213.417 230.269 213.248 229.26 213.585 228.419C214.005 227.325 214.426 227.241 215.099 227.914C215.603 228.419 215.772 229.428 215.435 230.269Z" fill="white"/>
<path d="M364.378 202.348C361.939 204.198 361.939 206.805 364.294 208.656C365.472 209.581 366.901 210.169 367.406 209.917C367.995 209.749 370.181 211.347 372.368 213.533C375.648 216.981 376.321 218.159 376.573 221.523C376.741 224.55 376.489 225.644 375.395 226.317C372.368 228.251 374.386 233.97 378.087 233.97C381.619 233.97 383.721 228.671 381.03 226.401C380.189 225.728 379.769 223.794 379.769 220.682C379.769 216.14 379.6 215.888 375.311 211.767C372.704 209.244 371.022 206.889 371.19 206.048C371.527 204.451 368.583 201.171 366.985 201.171C366.397 201.171 365.219 201.759 364.378 202.348ZM368.667 205.964C368.836 206.637 368.247 207.058 367.238 207.058C366.228 207.058 365.472 206.553 365.472 205.712C365.472 204.198 368.079 204.451 368.667 205.964ZM379.096 228.251C379.853 230.185 378.928 231.615 377.666 230.606C376.993 230.101 376.741 229.092 376.993 228.419C377.498 226.989 378.591 226.905 379.096 228.251Z" fill="white"/>
<path d="M289.36 225.644C286.081 227.494 281.035 230.438 278.007 232.035C274.979 233.717 271.784 235.484 270.858 235.988C269.933 236.493 269.092 236.997 268.924 236.997C268.84 237.081 271.447 241.371 274.811 246.585C280.278 255.079 280.95 255.836 281.96 254.49C282.548 253.649 283.053 252.472 283.053 251.883C283.053 251.294 283.137 250.79 283.305 250.79C283.473 250.79 286.333 253.481 289.697 256.677C293.061 259.957 296.173 262.564 296.593 262.396C296.929 262.227 299.957 259.536 303.237 256.424L309.124 250.622L310.049 253.229C311.058 256.004 312.068 256.593 312.74 254.742C312.993 254.07 315.516 250.033 318.291 245.744C321.15 241.371 323.421 237.586 323.421 237.334C323.421 236.997 322.412 236.24 321.15 235.568C319.805 234.979 317.114 233.465 315.011 232.204C307.274 227.83 296.593 222.196 295.92 222.196C295.5 222.196 292.556 223.709 289.36 225.644ZM300.462 227.746C302.648 229.008 306.937 231.363 309.965 233.045C312.993 234.727 316.104 236.409 317.029 236.913C319.132 238.007 319.048 238.595 315.263 244.65C312.068 249.865 310.806 251.042 310.806 248.771C310.806 245.828 308.704 246.837 302.817 252.556L296.509 258.611L294.238 256.593C293.061 255.499 290.117 252.808 287.763 250.537C283.389 246.417 282.212 245.828 282.212 247.762C282.212 250.706 280.53 249.528 277.166 244.23C275.232 241.118 273.718 238.427 273.802 238.175C273.886 237.922 276.325 236.493 279.1 234.979C281.96 233.465 285.996 231.194 288.099 229.933C291.968 227.746 295.92 225.56 296.257 225.56C296.341 225.56 298.275 226.569 300.462 227.746Z" fill="white"/>
<path d="M237.305 227.41C235.538 229.933 235.623 231.194 237.641 232.456C239.155 233.381 239.323 234.39 239.323 241.118C239.239 247.258 238.987 249.024 237.725 250.622C236.8 251.715 235.538 252.304 234.866 251.967C231.586 250.79 228.306 255.079 230.072 258.359C231.922 261.891 237.641 259.957 238.23 255.583C238.398 254.574 239.239 253.229 240.164 252.556C241.678 251.547 241.846 250.453 241.846 242.212C241.846 234.895 242.098 232.96 243.107 232.624C244.621 232.035 244.789 227.999 243.36 226.569C241.762 224.971 238.734 225.391 237.305 227.41ZM241.594 229.428C242.351 231.531 240.5 232.792 239.407 230.774C238.566 229.176 238.902 228.083 240.332 228.083C240.753 228.083 241.257 228.671 241.594 229.428Z" fill="white"/>
<path d="M247.896 226.568C247.139 227.325 246.886 233.044 246.886 247.005C246.886 267.441 246.718 268.45 243.102 268.45C240.999 268.45 238.476 270.889 238.476 272.824C238.476 274.59 241.168 276.86 243.354 276.86C245.373 276.86 248.148 273.244 247.307 271.814C246.97 271.31 247.475 270.048 248.484 268.955C250.082 267.273 250.166 266.18 250.25 247.425C250.25 236.576 250.334 227.157 250.25 226.568C250.25 225.307 249.241 225.223 247.896 226.568Z" fill="white"/>
<path d="M342.089 226.652C341.5 227.325 341.332 227.998 341.584 228.25C341.837 228.503 342.005 237.501 341.921 248.182C341.921 266.768 341.921 267.609 343.603 268.619C344.612 269.291 345.285 270.637 345.285 272.067C345.285 275.01 347.051 276.86 349.658 276.86C352.265 276.86 353.695 275.347 353.695 272.655C353.695 269.88 352.265 268.45 349.406 268.45C348.144 268.45 346.715 267.946 346.21 267.357C345.621 266.6 345.201 259.199 345.117 246.164C344.864 226.232 344.444 223.709 342.089 226.652Z" fill="white"/>
<path d="M348.651 227.157C347.474 229.428 347.558 230.69 349.156 232.372C350.249 233.633 350.501 235.567 350.417 242.127C350.249 250.033 350.333 250.537 352.351 252.472C353.613 253.565 354.538 255.247 354.538 256.256C354.538 257.181 354.959 258.443 355.547 259.031C356.809 260.293 360.677 260.293 361.939 259.031C364.462 256.508 361.939 251.294 358.323 251.799C354.538 252.303 353.697 250.453 353.697 241.454C353.697 236.661 354.033 233.129 354.538 233.129C354.959 233.129 355.715 232.372 356.22 231.362C356.977 230.017 356.893 229.176 355.8 227.578C354.118 225.055 349.997 224.803 348.651 227.157ZM353.697 229.68C353.697 231.699 351.51 232.624 350.838 230.858C350.165 229.26 350.922 228.083 352.52 228.083C353.192 228.083 353.697 228.839 353.697 229.68ZM359.92 255.499C360.593 257.349 360.593 257.518 359.248 257.518C357.734 257.518 356.809 256.172 357.482 254.995C358.238 253.733 359.332 253.985 359.92 255.499Z" fill="white"/>
<path d="M257.651 244.65C257.82 250.117 258.324 254.995 258.829 255.583C259.249 256.172 259.417 257.013 259.081 257.518C258.745 258.022 259.165 259.368 259.838 260.461C262.613 264.75 269.089 261.639 267.407 256.845C266.818 255.079 265.893 254.49 263.707 254.154L260.763 253.733V245.659C260.763 238.175 259.922 234.811 257.904 234.811C257.651 234.811 257.483 239.268 257.651 244.65Z" fill="white"/>
<path d="M332.674 236.408C332.253 237.333 331.833 241.538 331.833 245.743C331.833 251.126 331.496 253.481 330.823 253.649C330.235 253.901 328.721 254.238 327.544 254.49C324.768 255.079 323.843 258.022 325.609 260.629C327.88 264.161 333.515 262.143 333.515 257.686C333.515 256.761 333.935 255.667 334.356 255.415C335.449 254.742 335.449 234.81 334.356 234.81C333.935 234.81 333.178 235.567 332.674 236.408Z" fill="white"/>
<path d="M272.291 256.004C269.684 258.611 272.291 263.741 275.992 263.236C277.337 263.068 278.935 263.993 281.206 266.18L284.57 269.46L277.085 276.608L269.6 283.841V291.158C269.6 296.708 269.264 298.811 268.339 299.568C264.638 302.68 268.927 308.482 273.385 306.464C275.823 305.371 276.328 301.334 274.226 299.568C273.3 298.811 272.964 296.793 272.964 292.083V285.691L280.533 278.122C284.738 274.001 288.102 270.217 288.102 269.796C288.102 269.292 286.336 267.105 284.149 264.918C281.963 262.732 279.776 259.704 279.356 258.19C278.599 256.004 277.926 255.331 275.908 255.163C274.478 254.995 272.88 255.415 272.291 256.004ZM276.833 258.443C277.505 259.62 275.319 261.05 274.31 260.041C273.553 259.284 274.31 257.518 275.487 257.518C275.908 257.518 276.496 257.938 276.833 258.443ZM272.712 301.754C273.385 303.436 272.039 304.782 270.525 303.857C269.264 303.016 269.852 300.409 271.282 300.409C271.787 300.409 272.375 300.998 272.712 301.754Z" fill="white"/>
<path d="M314.342 255.751C313.753 256.088 313.165 257.433 312.997 258.611C312.828 259.956 311.062 262.395 308.203 265.086L303.745 269.291L311.567 277.197L319.388 285.018L319.472 291.662C319.556 295.699 319.304 298.642 318.715 299.147C318.127 299.568 317.538 300.997 317.202 302.259C316.781 304.109 317.117 304.866 318.715 305.959C322.752 308.482 327.209 304.782 325.023 300.745C324.434 299.652 323.677 298.727 323.257 298.727C322.92 298.727 322.584 295.447 322.584 291.326V284.009L315.435 276.861L308.287 269.796L311.735 266.264C313.669 264.33 315.688 262.9 316.361 263.152C318.127 263.825 320.65 261.975 321.07 259.704C321.743 256.172 317.538 253.733 314.342 255.751ZM318.043 258.443C318.295 258.947 318.127 259.788 317.622 260.293C316.865 261.05 316.445 260.966 315.856 260.04C315.099 258.779 315.52 257.517 316.697 257.517C317.117 257.517 317.706 257.938 318.043 258.443ZM322.584 302.091C322.584 303.016 321.995 303.773 321.322 303.773C320.65 303.773 320.061 303.016 320.061 302.091C320.061 301.165 320.65 300.409 321.322 300.409C321.995 300.409 322.584 301.165 322.584 302.091Z" fill="white"/>
<path d="M265.395 266.012C264.806 266.937 264.638 268.199 264.806 268.787C265.058 269.376 262.956 272.151 260.265 274.842C256.564 278.459 255.303 280.309 255.555 281.57C255.723 282.664 255.303 283.757 254.294 284.346C253.368 284.934 252.78 286.28 252.78 287.794C252.78 291.074 255.891 292.756 259.087 291.326C261.779 290.065 262.031 285.775 259.508 284.43C258.583 283.925 257.826 283.168 257.826 282.664C257.826 282.243 260.012 279.72 262.704 277.113C265.984 273.749 268.086 272.404 269.348 272.572C270.525 272.656 271.702 271.983 272.627 270.637C273.889 268.619 273.889 268.283 272.627 266.348C270.861 263.657 266.74 263.405 265.395 266.012ZM270.02 268.451C270.02 269.04 269.432 269.628 268.675 269.796C267.413 269.965 267.245 269.46 267.834 266.937C268.002 266.096 270.02 267.526 270.02 268.451ZM258.499 287.121C257.91 288.719 255.303 288.971 255.303 287.457C255.303 286.616 256.06 286.112 257.069 286.112C258.078 286.112 258.667 286.532 258.499 287.121Z" fill="white"/>
<path d="M320.224 265.255C317.701 267.778 320.14 273.244 323.335 272.403C324.765 272.067 326.111 272.992 329.559 276.608C331.914 279.131 334.016 281.57 334.184 281.907C334.353 282.327 333.596 283.757 332.586 285.187C330.82 287.626 330.82 287.794 332.166 289.812C333.848 292.419 336.876 292.672 338.81 290.485C340.744 288.382 340.576 286.7 338.473 284.766C337.464 283.841 336.96 282.579 337.212 281.57C337.548 280.393 336.287 278.543 332.671 274.842C329.727 271.899 327.624 269.039 327.624 268.03C327.624 267.021 327.204 265.844 326.615 265.255C325.354 263.993 321.485 263.993 320.224 265.255ZM336.455 287.205C336.455 289.392 334.773 289.308 334.521 287.037C334.268 285.691 334.605 285.187 335.362 285.439C335.95 285.691 336.455 286.448 336.455 287.205Z" fill="white"/>
<path d="M287.257 279.299C286.837 280.225 286.416 281.57 286.416 282.327C286.416 283.084 285.239 284.682 283.809 285.859C282.379 287.121 280.866 288.887 280.445 289.812C280.025 290.821 279.268 292.167 278.763 292.924C277.165 295.026 278.511 298.642 281.118 299.231C282.295 299.568 283.893 299.399 284.65 298.979C286.5 297.801 286.921 293.008 285.239 292.335C284.482 292.083 283.893 291.326 283.893 290.737C283.893 288.971 288.687 285.355 290.453 285.859C292.219 286.28 294.826 284.177 294.826 282.243C294.826 279.552 293.06 277.702 290.621 277.702C289.023 277.702 287.846 278.29 287.257 279.299ZM283.473 294.942C283.473 295.783 283.052 296.624 282.548 296.792C281.454 297.129 280.277 294.774 281.034 293.596C281.791 292.335 283.473 293.26 283.473 294.942Z" fill="white"/>
<path d="M299.2 278.712C297.771 280.141 297.939 284.01 299.368 285.271C300.041 285.776 301.471 286.112 302.48 285.944C303.742 285.776 305.255 286.533 306.769 288.131L309.208 290.57L307.526 292.168C305.34 294.186 305.255 296.373 307.442 298.307C309.46 300.157 312.909 299.484 314.254 296.961C315.011 295.447 314.843 294.691 313.413 292.756C312.404 291.495 311.647 290.065 311.647 289.645C311.647 289.308 310.301 287.71 308.704 286.112C307.022 284.514 305.928 282.748 306.181 282.076C306.433 281.487 306.181 280.225 305.76 279.3C304.751 277.45 300.798 277.114 299.2 278.712ZM311.227 294.775C311.227 296.961 309.545 296.877 309.292 294.606C309.04 293.261 309.376 292.756 310.133 293.009C310.722 293.261 311.227 294.018 311.227 294.775Z" fill="white"/>
</svg>
