<svg width="644" height="776" viewBox="0 0 644 776" fill="none" xmlns="http://www.w3.org/2000/svg">
<circle cx="289.427" cy="327.592" r="202.598" transform="rotate(-65.0944 289.427 327.592)" stroke="url(#paint0_linear_712_46779)" stroke-width="0.362175"/>
<circle cx="290.364" cy="359.969" r="188.114" transform="rotate(-65.0944 290.364 359.969)" stroke="url(#paint1_linear_712_46779)" stroke-width="0.362175"/>
<circle cx="291.308" cy="392.334" r="173.63" transform="rotate(-65.0944 291.308 392.334)" stroke="url(#paint2_linear_712_46779)" stroke-width="0.362175"/>
<circle cx="292.243" cy="424.71" r="159.145" transform="rotate(-65.0944 292.243 424.71)" stroke="url(#paint3_linear_712_46779)" stroke-width="0.362175"/>
<circle cx="293.18" cy="457.086" r="144.661" transform="rotate(-65.0944 293.18 457.086)" stroke="url(#paint4_linear_712_46779)" stroke-width="0.362175"/>
<circle cx="294.118" cy="489.463" r="130.177" transform="rotate(-65.0944 294.118 489.463)" stroke="url(#paint5_linear_712_46779)" stroke-width="0.362175"/>
<circle cx="295.053" cy="521.838" r="115.693" transform="rotate(-65.0944 295.053 521.838)" stroke="url(#paint6_linear_712_46779)" stroke-width="0.362175"/>
<circle cx="295.991" cy="554.216" r="101.208" transform="rotate(-65.0944 295.991 554.216)" stroke="url(#paint7_linear_712_46779)" stroke-width="0.362175"/>
<circle cx="293.879" cy="593.157" r="86.7242" transform="rotate(-65.0944 293.879 593.157)" stroke="url(#paint8_linear_712_46779)" stroke-width="0.362175"/>
<circle cx="294.823" cy="625.521" r="72.24" transform="rotate(-65.0944 294.823 625.521)" stroke="url(#paint9_linear_712_46779)" stroke-width="0.362175"/>
<circle cx="292.711" cy="664.464" r="57.7558" transform="rotate(-65.0944 292.711 664.464)" stroke="url(#paint10_linear_712_46779)" stroke-width="0.362175"/>
<circle cx="293.649" cy="696.84" r="43.2716" transform="rotate(-65.0944 293.649 696.84)" stroke="url(#paint11_linear_712_46779)" stroke-width="0.362175"/>
<circle cx="294.584" cy="729.216" r="28.7873" transform="rotate(-65.0944 294.584 729.216)" stroke="url(#paint12_linear_712_46779)" stroke-width="0.362175"/>
<path d="M266.021 83.5303C265.18 84.5395 262.741 84.7918 253.91 84.7918H242.893L235.324 92.3608C230.278 97.4909 227.166 99.9298 225.905 99.9298C224.055 99.9298 220.606 102.537 220.606 103.967C220.606 105.649 223.382 108.34 225.148 108.34C227.503 108.34 230.278 105.48 229.605 103.798C229.269 103.042 231.708 100.014 236.417 95.3884L243.734 88.1558H254.078C263.161 88.1558 264.759 88.4081 266.609 89.7537C270.562 92.9495 275.188 88.5763 272.412 84.3713C270.814 82.0165 267.619 81.596 266.021 83.5303Z" fill="url(#paint13_linear_712_46779)"/>
<path d="M320.518 83.1939C318.752 84.2031 318.499 88.1558 320.013 89.6696C321.443 91.0993 325.648 90.9311 326.236 89.4173C326.657 88.4081 328.759 88.1558 337.842 88.1558H348.859L355.84 95.1361C360.802 100.182 362.736 102.621 362.736 104.219C362.736 106.826 364.166 108.34 366.52 108.34C368.623 108.34 371.146 105.901 371.146 103.967C371.146 102.285 368.455 99.9298 366.436 99.9298C365.511 99.9298 361.559 96.734 357.269 92.3608L349.7 84.7918H338.263C329.096 84.7918 326.573 84.5395 325.732 83.5303C324.554 82.1006 322.62 81.9324 320.518 83.1939Z" fill="url(#paint14_linear_712_46779)"/>
<path d="M262.404 96.9862C260.806 98.5 261.647 102.285 263.749 103.63C264.843 104.303 265.852 104.219 267.786 103.041C269.468 102.116 272.075 101.612 275.523 101.612C279.812 101.696 281.158 102.032 283.092 103.714C284.438 104.892 285.363 106.574 285.363 107.835C285.363 109.181 286.12 110.526 287.466 111.367C289.4 112.629 289.736 112.629 291.671 111.367C292.932 110.526 293.773 109.181 293.773 108.003C293.773 105.564 290.998 102.957 288.811 103.546C287.634 103.798 286.456 103.126 284.774 101.107C282.504 98.3318 282.251 98.2477 276.028 98.2477C271.318 98.2477 269.3 97.9113 268.543 96.9862C267.197 95.3883 264.002 95.3883 262.404 96.9862ZM267.534 99.6774C267.702 100.35 267.113 100.771 266.104 100.771C265.095 100.771 264.338 100.266 264.338 99.4251C264.338 97.9113 266.945 98.1636 267.534 99.6774Z" fill="url(#paint15_linear_712_46779)"/>
<path d="M323.211 96.9866C322.454 97.9117 320.435 98.2481 316.146 98.2481C310.343 98.2481 310.007 98.3322 307.231 101.192C305.718 102.789 304.12 103.883 303.699 103.63C302.522 102.874 299.662 104.135 298.737 105.901C297.392 108.424 299.831 111.704 303.026 111.704C305.634 111.704 307.736 109.181 306.979 107.079C306.727 106.49 307.568 105.06 308.745 103.883C310.68 102.033 311.941 101.696 316.651 101.528C320.94 101.36 322.538 101.696 323.631 102.705C325.481 104.556 327.668 104.471 329.35 102.621C331.032 100.771 331.2 98.164 329.77 96.7343C328.341 95.3045 324.472 95.4727 323.211 96.9866Z" fill="url(#paint16_linear_712_46779)"/>
<path d="M235.747 104.723C234.065 105.396 233.224 106.741 233.224 108.76C233.224 110.862 218.675 125.58 217.329 124.823C216.068 123.982 213.208 125.748 212.62 127.682C211.863 129.953 214.218 133.569 216.404 133.569C218.675 133.569 221.618 130.458 221.114 128.692C220.357 126.505 234.486 112.712 237.85 112.376C241.214 112.04 242.644 108.339 240.373 105.816C238.859 104.134 237.934 103.882 235.747 104.723Z" fill="url(#paint17_linear_712_46779)"/>
<path d="M352.478 105.059C350.712 106.069 350.46 110.021 351.973 111.535C352.562 112.124 353.74 112.544 354.749 112.544C357.104 112.544 371.653 127.01 371.317 128.944C370.896 130.71 373.503 133.569 375.437 133.569C377.54 133.569 379.558 131.299 379.558 128.944C379.558 126.673 376.026 123.814 374.428 124.739C373.924 125.159 370.56 122.384 366.102 118.011C360.636 112.628 358.87 110.274 359.122 109.096C359.627 107.162 357.188 104.134 355.253 104.134C354.496 104.134 353.235 104.555 352.478 105.059Z" fill="url(#paint18_linear_712_46779)"/>
<path d="M245.416 111.704C243.145 114.058 241.379 115.068 239.781 115.068C235.324 115.068 234.231 121.543 238.436 122.973C241.211 123.982 244.154 121.796 244.154 118.852C244.154 117.927 245.416 115.909 246.93 114.395L249.705 111.704H260.638H271.487L279.729 119.945C284.186 124.403 287.887 128.776 287.887 129.533C287.887 130.626 289.485 131.888 290.914 131.888C291.082 131.888 291.251 130.878 291.251 129.533C291.251 127.683 289.316 125.244 281.747 117.759L272.328 108.34H260.47H248.696L245.416 111.704Z" fill="url(#paint19_linear_712_46779)"/>
<path d="M310.345 117.422C302.355 125.495 301.346 126.757 301.346 129.364L301.43 132.308L303.617 129.785C304.794 128.355 309.083 123.729 313.204 119.44L320.521 111.703H331.37H342.219L345.331 114.899C347.013 116.665 348.442 118.852 348.442 119.777C348.442 121.963 350.04 123.477 352.227 123.477C354.329 123.477 356.852 121.038 356.852 119.104C356.852 117.254 354.077 115.067 351.722 115.067C350.377 115.067 348.442 113.806 346.34 111.703L343.06 108.339H331.202H319.428L310.345 117.422Z" fill="url(#paint20_linear_712_46779)"/>
<path d="M243.735 127.346C235.998 135.335 233.139 137.774 231.541 137.774C227.083 137.774 225.738 142.568 229.438 145.007C231.373 146.269 231.709 146.269 233.643 145.007C234.821 144.25 235.746 142.82 235.746 141.727C235.746 140.466 238.857 136.681 245.67 129.953L255.509 120.113H261.06C265.854 120.113 266.863 120.366 268.545 122.216C270.395 124.15 274.432 125.159 274.432 123.646C274.432 123.309 273.002 121.543 271.236 119.861C268.04 116.749 268.04 116.749 260.976 116.833H253.827L243.735 127.346Z" fill="url(#paint21_linear_712_46779)"/>
<path d="M320.689 120.534C317.241 124.066 317.073 124.318 319.007 124.318C320.1 124.318 322.034 123.309 323.38 122.048C325.483 120.029 326.239 119.861 331.37 120.029L337.088 120.198L347.012 130.037C353.152 136.177 356.684 140.298 356.431 141.054C355.927 142.4 359.123 146.185 360.805 146.185C362.318 146.185 365.262 143.157 365.262 141.559C365.262 139.625 362.15 136.934 360.384 137.354C359.291 137.522 355.759 134.579 348.358 127.178L337.929 116.749H331.201H324.389L320.689 120.534ZM361.898 141.643C361.898 142.989 359.711 143.241 358.954 141.98C358.702 141.475 358.618 140.802 358.954 140.298C359.627 139.204 361.898 140.213 361.898 141.643Z" fill="url(#paint22_linear_712_46779)"/>
<path d="M238.102 142.653L219.768 161.071V167.883C219.768 171.751 219.432 174.779 218.927 174.779C217.414 174.779 216.404 177.975 217.161 180.077C218.086 182.348 220.273 183.273 222.88 182.264C225.067 181.423 225.908 177.638 224.142 175.956C223.216 174.947 222.88 173.097 223.048 168.64L223.216 162.584L240.541 145.176C254.502 131.215 258.454 127.683 260.725 127.262C264.594 126.59 263.837 124.823 259.632 124.487C256.352 124.319 256.184 124.487 238.102 142.653Z" fill="url(#paint23_linear_712_46779)"/>
<path d="M328.679 125.16C328.175 126.001 331.539 127.683 333.557 127.683C334.146 127.683 342.472 135.504 352.059 145.176L369.468 162.585V168.387C369.468 172.592 369.047 174.611 368.122 175.704C366.356 177.638 367.113 181.087 369.552 182.348C373.673 184.619 377.458 178.059 373.589 175.284C371.991 174.19 371.907 173.433 372.075 167.715L372.411 161.323L353.909 142.821C336.501 125.412 335.239 124.319 332.296 124.319C330.614 124.319 328.932 124.739 328.679 125.16Z" fill="url(#paint24_linear_712_46779)"/>
<path d="M226.919 127.178C225.994 127.851 225.237 129.281 225.237 130.458C225.153 131.804 223.051 134.495 218.677 138.784C215.145 142.316 212.202 145.68 212.202 146.353C212.202 147.11 211.613 148.119 210.94 148.708C209.426 149.969 209.258 153.838 210.688 155.268C212.202 156.782 215.145 156.529 216.659 154.763C218.593 152.661 218.425 150.81 216.407 148.876C214.641 147.278 214.725 147.278 221.116 140.802C225.405 136.513 228.181 134.411 229.526 134.411C231.797 134.411 234.152 131.467 233.479 129.449C232.89 127.851 230.788 126.001 229.442 126.001C228.938 126.001 227.76 126.505 226.919 127.178Z" fill="url(#paint25_linear_712_46779)"/>
<path d="M359.793 127.682C357.522 130.205 358.952 133.906 362.316 134.242C364.082 134.41 366.605 136.26 370.978 140.55C377.201 146.689 377.958 148.119 375.772 149.044C374.258 149.632 374.09 153.837 375.519 155.267C376.949 156.697 380.061 156.529 381.575 154.931C383.257 153.249 383.257 150.894 381.659 149.212C380.986 148.539 380.397 147.446 380.397 146.857C380.397 146.268 377.37 142.736 373.669 139.036C368.96 134.326 366.941 131.719 366.941 130.289C366.941 126.421 362.4 124.739 359.793 127.682Z" fill="url(#paint26_linear_712_46779)"/>
<path d="M268.715 129.113C262.912 130.374 262.407 130.626 260.389 133.906C259.211 135.757 255.258 141.98 251.558 147.615C246.092 155.941 245.082 158.127 245.755 159.389C247.689 162.669 249.203 167.462 248.615 168.303C248.278 168.808 247.605 169.817 247.017 170.574C246.428 171.247 243.989 174.443 241.634 177.723L237.429 183.61L242.728 189.076C245.587 192.104 249.708 196.393 251.894 198.748L255.847 202.953L255.006 207.158C254.586 209.428 253.997 212.456 253.745 213.886C253.492 215.231 252.988 217.923 252.567 219.773L251.81 223.137L258.791 230.201L265.855 237.266L269.471 234.406C271.49 232.808 273.34 231.379 273.592 231.126C273.845 230.874 277.797 227.846 282.423 224.398C286.964 220.95 291.253 217.67 291.926 217.166C293.104 216.325 293.44 214.979 294.281 207.158L294.701 202.953L289.824 200.009C281.918 195.215 272.583 185.796 279.311 189.413C280.573 190.085 284.778 191.767 288.73 193.197L295.963 195.804L303.953 192.945C308.41 191.347 312.867 189.665 313.876 189.16C319.679 186.049 311.353 193.87 302.355 199.925C297.645 203.121 297.056 203.794 297.477 205.728C297.897 208.167 299.075 215.231 299.159 216.072C299.243 216.493 304.205 220.361 321.782 233.481L326.66 237.182L333.388 230.117C340.452 222.632 340.2 223.305 338.77 215.988C338.518 214.811 338.013 211.783 337.593 209.26C337.172 206.737 336.668 204.214 336.499 203.626C336.415 203.121 340.284 198.495 345.33 193.449C350.292 188.487 354.329 184.03 354.329 183.694C354.329 183.273 351.806 179.573 348.778 175.368L343.143 167.799L344.993 162.585L346.844 157.286L342.05 149.885C339.443 145.765 335.574 139.877 333.64 136.766C329.435 130.374 329.687 130.542 325.566 129.87C323.8 129.617 320.688 129.029 318.502 128.524L314.633 127.683L305.298 134.243L295.963 140.887L286.123 134.327C280.657 130.626 275.863 127.767 275.527 127.767C275.19 127.851 272.079 128.44 268.715 129.113ZM285.787 137.859C290.917 141.307 295.29 144.167 295.627 144.335C295.879 144.503 298.57 142.905 301.514 140.803C315.979 130.458 314.717 131.047 319.847 131.972C322.37 132.393 325.314 132.981 326.323 133.149C327.332 133.402 328.93 135 330.024 136.682C331.033 138.448 334.481 143.914 337.677 148.876L343.564 157.791L341.629 162.921L339.779 168.135L343.816 173.938C346.003 177.134 348.526 180.498 349.367 181.423C350.88 183.021 350.712 183.273 341.966 192.356L333.135 201.691L333.808 205.728C334.145 207.915 334.481 210.017 334.649 210.522C334.733 210.942 335.238 213.718 335.742 216.661L336.752 221.959L332.294 226.585C329.855 229.108 327.753 231.631 327.585 232.051C327.417 232.472 326.996 232.808 326.66 232.808C326.239 232.808 320.688 228.771 314.297 223.894C302.439 214.895 302.018 214.306 300.925 207.831C300.504 205.223 300.841 204.887 305.803 201.523C310.26 198.495 327.669 181.507 326.323 181.507C326.155 181.507 324.221 182.264 322.034 183.273C319.847 184.198 317.409 185.123 316.652 185.292C315.895 185.46 310.933 187.142 305.719 189.076L296.299 192.692L289.319 190.085C285.535 188.74 278.807 186.301 274.433 184.619C270.06 183.021 266.276 181.844 266.107 182.096C265.266 182.769 281.834 198.495 286.712 201.691L291.758 205.055L291.001 209.849L290.16 214.727L278.05 223.894L265.855 233.061L260.977 227.678C255.679 221.959 255.427 221.202 256.772 214.222C257.277 211.699 257.866 208.503 258.118 207.158C258.286 205.728 258.707 204.046 258.959 203.289C259.211 202.364 256.436 198.832 250.381 192.524L241.466 183.189L247.017 175.704L252.567 168.135L250.717 163.089C248.615 157.118 248.026 158.548 257.866 143.662C264.762 133.234 264.762 133.234 268.967 132.308C271.322 131.804 273.929 131.383 274.854 131.467C275.863 131.552 280.741 134.411 285.787 137.859Z" fill="url(#paint27_linear_712_46779)"/>
<path d="M269.386 165.865C272.834 168.472 276.282 170.574 277.123 170.574C278.301 170.574 282.001 165.949 282.001 164.519C282.001 164.098 277.123 163.173 271.909 162.585C271.236 162.501 268.966 162.08 266.863 161.744L263.079 161.071L269.386 165.865Z" fill="url(#paint28_linear_712_46779)"/>
<path d="M324.812 161.744C324.559 161.912 322.709 162.332 320.607 162.585C318.588 162.837 315.308 163.342 313.29 163.678L309.758 164.267L311.86 167.378C313.038 169.145 314.552 170.574 315.224 170.574C316.318 170.574 328.26 162.416 328.26 161.66C328.26 161.155 325.232 161.239 324.812 161.744Z" fill="url(#paint29_linear_712_46779)"/>
<path d="M239.281 151.651L227.339 163.846L227.676 178.563C227.928 187.057 227.76 193.281 227.339 193.281C226.919 193.281 226.162 194.122 225.573 195.047C223.639 198.747 227.76 202.868 231.376 200.934C233.731 199.672 234.151 196.981 232.301 194.626C230.871 192.776 230.703 191.094 230.703 178.479V164.35L237.263 157.959C243.318 152.072 253.074 139.456 251.476 139.456C251.308 139.456 245.757 144.923 239.281 151.651ZM230.367 196.224C230.619 196.897 230.619 197.822 230.283 198.327C229.442 199.672 227.339 197.738 227.928 196.14C228.517 194.626 229.778 194.626 230.367 196.224Z" fill="url(#paint30_linear_712_46779)"/>
<path d="M341.378 141.223C345.331 147.615 349.283 152.661 354.666 157.959L361.057 164.183V178.648C361.057 190.422 360.805 193.281 359.796 194.122C357.861 195.72 358.282 198.916 360.637 200.514C362.571 201.775 362.908 201.775 364.842 200.514C367.197 198.916 367.617 195.72 365.683 194.122C364.674 193.281 364.421 190.422 364.421 178.311V163.51L353.32 152.156C342.723 141.307 339.696 138.532 341.378 141.223ZM364.169 196.225C364.758 197.907 364.001 198.664 362.403 198.075C361.646 197.739 361.31 196.982 361.562 196.225C362.235 194.627 363.496 194.627 364.169 196.225Z" fill="url(#paint31_linear_712_46779)"/>
<path d="M205.806 163.425C205.133 164.518 204.713 165.864 205.049 166.368C205.89 167.714 202.19 171.414 200.003 171.414C196.219 171.414 193.864 175.199 195.882 178.058C198.405 181.591 204.965 179.152 203.536 175.199C202.947 173.769 207.236 169.732 209.423 169.732C211.441 169.732 213.88 167.714 213.88 166.116C213.88 165.527 213.291 164.182 212.534 163.173C210.768 160.65 207.572 160.734 205.806 163.425Z" fill="url(#paint32_linear_712_46779)"/>
<path d="M380.058 162.416C379.049 163.173 378.629 164.35 378.881 165.948C379.049 167.966 379.722 168.639 381.825 169.312C385.441 170.489 388.637 173.601 388.973 176.292C389.141 177.385 389.982 178.899 390.907 179.488C393.178 181.002 396.71 179.32 397.047 176.544C397.467 173.937 394.86 171.162 392.421 171.667C389.982 172.087 386.618 168.639 386.955 166.032C387.459 162.247 383.254 160.061 380.058 162.416Z" fill="url(#paint33_linear_712_46779)"/>
<path d="M218.755 187.73C217.914 188.319 217.241 189.748 217.241 190.926C217.241 193.449 213.373 197.149 210.597 197.317C208.074 197.401 207.065 198.915 207.317 202.111C207.654 205.559 211.354 206.989 213.877 204.634C214.802 203.793 215.475 202.447 215.391 201.691C215.139 200.177 219.428 194.626 220.353 195.215C220.773 195.467 221.867 195.299 222.96 194.878C225.483 193.953 225.651 188.739 223.212 187.394C221.11 186.3 220.521 186.384 218.755 187.73Z" fill="url(#paint34_linear_712_46779)"/>
<path d="M368.288 187.898C365.765 190.421 367.447 195.131 370.979 195.383C373.502 195.551 377.035 199.083 377.035 201.354C377.035 203.625 379.137 205.896 381.156 205.896C383.006 205.896 385.445 203.288 385.445 201.438C385.445 199.336 382.165 196.392 380.651 197.065C378.717 197.738 375.353 194.29 375.353 191.514C375.353 190.085 374.68 188.655 373.502 187.898C371.148 186.216 369.886 186.216 368.288 187.898Z" fill="url(#paint35_linear_712_46779)"/>
<path d="M238.271 198.495C238.271 207.073 237.682 208.419 234.066 208.419C231.375 208.419 229.861 209.849 229.861 212.204C229.861 214.306 232.3 216.829 234.318 216.829C236.337 216.829 238.355 214.306 238.103 212.204C238.019 211.194 238.523 209.681 239.364 208.924C241.298 206.905 241.467 193.197 239.532 191.599C238.439 190.674 238.271 191.515 238.271 198.495Z" fill="url(#paint36_linear_712_46779)"/>
<path d="M351.974 192.44C351.385 193.365 350.965 196.897 350.965 200.681C350.965 206.316 351.217 207.578 352.647 208.839C353.656 209.68 354.161 210.942 353.908 211.614C353.656 212.287 354.077 213.717 354.749 214.81C356.515 217.501 359.795 217.417 361.561 214.726C362.823 212.792 362.823 212.455 361.561 210.521C360.72 209.26 359.375 208.419 358.282 208.419C354.918 208.419 354.329 206.905 354.329 198.579C354.329 194.29 354.077 190.758 353.656 190.758C353.32 190.758 352.563 191.514 351.974 192.44Z" fill="url(#paint37_linear_712_46779)"/>
<path d="M244.995 205.055V213.044L237.006 221.034L229.016 229.024V234.574C229.016 238.527 228.68 240.461 227.755 241.218C225.148 243.405 227.334 248.787 230.867 248.787C234.062 248.787 236.165 243.321 233.642 241.218C232.801 240.461 232.38 238.527 232.38 234.911V229.696L240.202 222.211L247.939 214.642L247.687 207.578C247.518 203.205 247.014 199.925 246.257 198.832C245.08 197.318 244.995 197.822 244.995 205.055ZM231.96 242.9C232.296 243.405 232.044 244.414 231.455 245.087C230.53 246.264 230.362 246.264 229.689 245.087C228.428 242.9 230.698 240.798 231.96 242.9Z" fill="url(#paint38_linear_712_46779)"/>
<path d="M345.746 198.915C344.568 200.177 344.232 202.111 344.232 207.746V214.894L352.053 222.379L359.875 229.864L359.79 234.91C359.79 238.442 359.37 240.377 358.445 241.302C356.595 243.152 357.352 247.021 359.79 248.114C363.491 249.796 367.191 245.759 365.257 242.059C364.752 241.134 363.996 240.377 363.575 240.377C363.07 240.377 362.734 237.854 362.734 234.658V229.023L355.165 221.454L347.68 213.969L347.428 205.643C347.175 197.654 347.091 197.401 345.746 198.915ZM362.566 243.909C362.398 245.002 361.977 245.843 361.472 245.843C361.052 245.843 360.547 245.002 360.379 243.909C360.211 242.647 360.547 242.059 361.472 242.059C362.398 242.059 362.734 242.647 362.566 243.909Z" fill="url(#paint39_linear_712_46779)"/>
<path d="M222.792 203.036C222.036 203.709 221.447 205.139 221.447 206.232C221.447 207.325 219.765 209.68 217.242 212.203C213.205 216.156 213.037 216.576 213.037 220.95C213.037 224.566 212.616 225.996 211.187 227.509C209.421 229.36 209.421 229.696 210.598 231.798C212.364 234.994 216.233 234.994 217.999 231.798C219.176 229.696 219.176 229.36 217.41 227.509C216.149 226.164 215.56 224.482 215.56 222.127C215.56 219.099 216.149 218.09 219.765 214.306C222.456 211.446 224.474 210.101 225.231 210.437C226.829 211.026 229.857 208.082 229.857 205.98C229.857 204.298 226.997 201.691 225.063 201.691C224.559 201.691 223.465 202.279 222.792 203.036ZM215.223 230.789C214.803 231.883 214.382 231.967 213.71 231.294C213.205 230.789 213.037 229.78 213.373 228.939C213.794 227.846 214.214 227.762 214.887 228.434C215.392 228.939 215.56 229.948 215.223 230.789Z" fill="url(#paint40_linear_712_46779)"/>
<path d="M364.167 202.869C361.728 204.719 361.728 207.326 364.083 209.176C365.26 210.101 366.69 210.69 367.195 210.438C367.783 210.269 369.97 211.867 372.157 214.054C375.436 217.502 376.109 218.679 376.362 222.043C376.53 225.071 376.277 226.164 375.184 226.837C372.157 228.771 374.175 234.49 377.875 234.49C381.408 234.49 383.51 229.192 380.819 226.921C379.978 226.248 379.557 224.314 379.557 221.202C379.557 216.661 379.389 216.409 375.1 212.288C372.493 209.765 370.811 207.41 370.979 206.569C371.316 204.971 368.372 201.691 366.774 201.691C366.185 201.691 365.008 202.28 364.167 202.869ZM368.456 206.485C368.624 207.158 368.036 207.578 367.026 207.578C366.017 207.578 365.26 207.074 365.26 206.233C365.26 204.719 367.867 204.971 368.456 206.485ZM378.885 228.771C379.641 230.706 378.716 232.135 377.455 231.126C376.782 230.622 376.53 229.612 376.782 228.94C377.287 227.51 378.38 227.426 378.885 228.771Z" fill="url(#paint41_linear_712_46779)"/>
<path d="M289.149 226.164C285.869 228.015 280.823 230.958 277.796 232.556C274.768 234.238 271.572 236.004 270.647 236.509C269.722 237.013 268.881 237.518 268.713 237.518C268.629 237.602 271.236 241.891 274.6 247.105C280.066 255.599 280.739 256.356 281.748 255.011C282.337 254.17 282.842 252.992 282.842 252.404C282.842 251.815 282.926 251.31 283.094 251.31C283.262 251.31 286.122 254.001 289.486 257.197C292.85 260.477 295.961 263.084 296.382 262.916C296.718 262.748 299.746 260.057 303.026 256.945L308.913 251.142L309.838 253.749C310.847 256.525 311.856 257.113 312.529 255.263C312.781 254.59 315.304 250.553 318.08 246.264C320.939 241.891 323.21 238.107 323.21 237.854C323.21 237.518 322.201 236.761 320.939 236.088C319.594 235.499 316.902 233.986 314.8 232.724C307.063 228.351 296.382 222.716 295.709 222.716C295.289 222.716 292.345 224.23 289.149 226.164ZM300.251 228.267C302.437 229.528 306.726 231.883 309.754 233.565C312.781 235.247 315.893 236.929 316.818 237.434C318.921 238.527 318.837 239.116 315.052 245.171C311.856 250.385 310.595 251.563 310.595 249.292C310.595 246.348 308.492 247.358 302.605 253.076L296.298 259.132L294.027 257.113C292.85 256.02 289.906 253.329 287.551 251.058C283.178 246.937 282.001 246.348 282.001 248.283C282.001 251.226 280.319 250.049 276.955 244.75C275.02 241.639 273.507 238.948 273.591 238.695C273.675 238.443 276.114 237.013 278.889 235.499C281.748 233.986 285.785 231.715 287.888 230.453C291.756 228.267 295.709 226.08 296.046 226.08C296.13 226.08 298.064 227.089 300.251 228.267Z" fill="url(#paint42_linear_712_46779)"/>
<path d="M237.093 227.93C235.327 230.453 235.411 231.715 237.43 232.976C238.944 233.901 239.112 234.911 239.112 241.639C239.028 247.778 238.775 249.544 237.514 251.142C236.589 252.235 235.327 252.824 234.654 252.488C231.375 251.31 228.095 255.599 229.861 258.879C231.711 262.411 237.43 260.477 238.018 256.104C238.187 255.095 239.028 253.749 239.953 253.076C241.467 252.067 241.635 250.974 241.635 242.732C241.635 235.415 241.887 233.481 242.896 233.145C244.41 232.556 244.578 228.519 243.149 227.089C241.551 225.491 238.523 225.912 237.093 227.93ZM241.382 229.949C242.139 232.051 240.289 233.313 239.196 231.294C238.355 229.696 238.691 228.603 240.121 228.603C240.541 228.603 241.046 229.192 241.382 229.949Z" fill="url(#paint43_linear_712_46779)"/>
<path d="M247.684 227.089C246.927 227.846 246.675 233.565 246.675 247.525C246.675 267.962 246.506 268.971 242.89 268.971C240.788 268.971 238.265 271.41 238.265 273.344C238.265 275.11 240.956 277.381 243.142 277.381C245.161 277.381 247.936 273.765 247.095 272.335C246.759 271.83 247.263 270.569 248.273 269.475C249.87 267.793 249.955 266.7 250.039 247.946C250.039 237.097 250.123 227.678 250.039 227.089C250.039 225.827 249.029 225.743 247.684 227.089Z" fill="url(#paint44_linear_712_46779)"/>
<path d="M341.877 227.173C341.289 227.846 341.121 228.519 341.373 228.771C341.625 229.023 341.793 238.022 341.709 248.703C341.709 267.289 341.709 268.13 343.391 269.139C344.4 269.812 345.073 271.157 345.073 272.587C345.073 275.531 346.839 277.381 349.446 277.381C352.054 277.381 353.483 275.867 353.483 273.176C353.483 270.401 352.054 268.971 349.194 268.971C347.933 268.971 346.503 268.466 345.998 267.878C345.41 267.121 344.989 259.72 344.905 246.684C344.653 226.752 344.232 224.229 341.877 227.173Z" fill="url(#paint45_linear_712_46779)"/>
<path d="M348.439 227.678C347.262 229.949 347.346 231.21 348.944 232.892C350.037 234.154 350.29 236.088 350.205 242.648C350.037 250.553 350.121 251.058 352.14 252.992C353.401 254.085 354.326 255.767 354.326 256.777C354.326 257.702 354.747 258.963 355.336 259.552C356.597 260.813 360.466 260.813 361.727 259.552C364.25 257.029 361.727 251.815 358.111 252.319C354.326 252.824 353.485 250.974 353.485 241.975C353.485 237.181 353.822 233.649 354.326 233.649C354.747 233.649 355.504 232.892 356.008 231.883C356.765 230.537 356.681 229.696 355.588 228.098C353.906 225.575 349.785 225.323 348.439 227.678ZM353.485 230.201C353.485 232.219 351.299 233.144 350.626 231.378C349.953 229.78 350.71 228.603 352.308 228.603C352.981 228.603 353.485 229.36 353.485 230.201ZM359.709 256.02C360.382 257.87 360.382 258.038 359.036 258.038C357.522 258.038 356.597 256.693 357.27 255.515C358.027 254.254 359.12 254.506 359.709 256.02Z" fill="url(#paint46_linear_712_46779)"/>
<path d="M257.44 245.171C257.608 250.637 258.113 255.515 258.617 256.104C259.038 256.693 259.206 257.534 258.869 258.038C258.533 258.543 258.954 259.888 259.626 260.982C262.402 265.271 268.877 262.159 267.195 257.365C266.607 255.599 265.682 255.011 263.495 254.674L260.551 254.254V246.18C260.551 238.695 259.71 235.331 257.692 235.331C257.44 235.331 257.272 239.788 257.44 245.171Z" fill="url(#paint47_linear_712_46779)"/>
<path d="M332.463 236.929C332.042 237.854 331.622 242.059 331.622 246.264C331.622 251.646 331.285 254.001 330.612 254.169C330.024 254.422 328.51 254.758 327.332 255.01C324.557 255.599 323.632 258.543 325.398 261.15C327.669 264.682 333.304 262.663 333.304 258.206C333.304 257.281 333.724 256.188 334.145 255.935C335.238 255.263 335.238 235.331 334.145 235.331C333.724 235.331 332.967 236.088 332.463 236.929Z" fill="url(#paint48_linear_712_46779)"/>
<path d="M272.08 256.524C269.472 259.131 272.08 264.262 275.78 263.757C277.126 263.589 278.724 264.514 280.994 266.701L284.358 269.98L276.873 277.129L269.388 284.362V291.678C269.388 297.229 269.052 299.331 268.127 300.088C264.426 303.2 268.716 309.003 273.173 306.985C275.612 305.891 276.116 301.854 274.014 300.088C273.089 299.331 272.752 297.313 272.752 292.603V286.212L280.321 278.643C284.526 274.522 287.89 270.737 287.89 270.317C287.89 269.812 286.124 267.626 283.938 265.439C281.751 263.252 279.565 260.225 279.144 258.711C278.387 256.524 277.714 255.852 275.696 255.683C274.266 255.515 272.668 255.936 272.08 256.524ZM276.621 258.963C277.294 260.141 275.107 261.57 274.098 260.561C273.341 259.804 274.098 258.038 275.275 258.038C275.696 258.038 276.285 258.459 276.621 258.963ZM272.5 302.275C273.173 303.957 271.827 305.303 270.313 304.377C269.052 303.536 269.641 300.929 271.07 300.929C271.575 300.929 272.164 301.518 272.5 302.275Z" fill="url(#paint49_linear_712_46779)"/>
<path d="M314.131 256.272C313.542 256.608 312.953 257.954 312.785 259.131C312.617 260.477 310.851 262.916 307.991 265.607L303.534 269.812L311.356 277.717L319.177 285.539L319.261 292.183C319.345 296.219 319.093 299.163 318.504 299.668C317.915 300.088 317.327 301.518 316.99 302.779C316.57 304.63 316.906 305.386 318.504 306.48C322.541 309.003 326.998 305.302 324.812 301.265C324.223 300.172 323.466 299.247 323.045 299.247C322.709 299.247 322.373 295.967 322.373 291.846V284.53L315.224 277.381L308.076 270.317L311.524 266.784C313.458 264.85 315.476 263.42 316.149 263.673C317.915 264.345 320.438 262.495 320.859 260.225C321.532 256.692 317.327 254.253 314.131 256.272ZM317.831 258.963C318.084 259.468 317.915 260.309 317.411 260.813C316.654 261.57 316.233 261.486 315.645 260.561C314.888 259.299 315.308 258.038 316.486 258.038C316.906 258.038 317.495 258.458 317.831 258.963ZM322.373 302.611C322.373 303.536 321.784 304.293 321.111 304.293C320.438 304.293 319.85 303.536 319.85 302.611C319.85 301.686 320.438 300.929 321.111 300.929C321.784 300.929 322.373 301.686 322.373 302.611Z" fill="url(#paint50_linear_712_46779)"/>
<path d="M265.183 266.532C264.595 267.458 264.427 268.719 264.595 269.308C264.847 269.896 262.744 272.672 260.053 275.363C256.353 278.979 255.091 280.829 255.344 282.091C255.512 283.184 255.091 284.278 254.082 284.866C253.157 285.455 252.568 286.801 252.568 288.314C252.568 291.594 255.68 293.276 258.876 291.847C261.567 290.585 261.819 286.296 259.296 284.95C258.371 284.446 257.614 283.689 257.614 283.184C257.614 282.764 259.801 280.241 262.492 277.634C265.772 274.27 267.875 272.924 269.136 273.092C270.314 273.176 271.491 272.504 272.416 271.158C273.678 269.14 273.678 268.803 272.416 266.869C270.65 264.178 266.529 263.925 265.183 266.532ZM269.809 268.971C269.809 269.56 269.22 270.149 268.463 270.317C267.202 270.485 267.034 269.981 267.622 267.458C267.791 266.617 269.809 268.046 269.809 268.971ZM258.287 287.642C257.698 289.24 255.091 289.492 255.091 287.978C255.091 287.137 255.848 286.632 256.857 286.632C257.867 286.632 258.455 287.053 258.287 287.642Z" fill="url(#paint51_linear_712_46779)"/>
<path d="M320.012 265.775C317.489 268.298 319.928 273.765 323.124 272.924C324.554 272.587 325.899 273.513 329.348 277.129C331.702 279.652 333.805 282.091 333.973 282.427C334.141 282.848 333.384 284.277 332.375 285.707C330.609 288.146 330.609 288.314 331.955 290.333C333.637 292.94 336.664 293.192 338.599 291.005C340.533 288.903 340.365 287.221 338.262 285.287C337.253 284.362 336.748 283.1 337.001 282.091C337.337 280.913 336.076 279.063 332.459 275.363C329.516 272.419 327.413 269.56 327.413 268.551C327.413 267.541 326.993 266.364 326.404 265.775C325.143 264.514 321.274 264.514 320.012 265.775ZM336.244 287.726C336.244 289.912 334.562 289.828 334.31 287.557C334.057 286.212 334.394 285.707 335.151 285.959C335.739 286.212 336.244 286.969 336.244 287.726Z" fill="url(#paint52_linear_712_46779)"/>
<path d="M287.046 279.82C286.625 280.745 286.205 282.091 286.205 282.848C286.205 283.604 285.027 285.202 283.598 286.38C282.168 287.641 280.654 289.407 280.234 290.332C279.813 291.342 279.056 292.687 278.552 293.444C276.954 295.547 278.299 299.163 280.906 299.752C282.084 300.088 283.682 299.92 284.439 299.499C286.289 298.322 286.709 293.528 285.027 292.855C284.27 292.603 283.682 291.846 283.682 291.258C283.682 289.491 288.475 285.875 290.242 286.38C292.008 286.8 294.615 284.698 294.615 282.763C294.615 280.072 292.849 278.222 290.41 278.222C288.812 278.222 287.634 278.811 287.046 279.82ZM283.261 295.463C283.261 296.304 282.841 297.145 282.336 297.313C281.243 297.649 280.065 295.294 280.822 294.117C281.579 292.855 283.261 293.781 283.261 295.463Z" fill="url(#paint53_linear_712_46779)"/>
<path d="M298.989 279.232C297.559 280.662 297.727 284.53 299.157 285.792C299.83 286.296 301.26 286.633 302.269 286.465C303.53 286.296 305.044 287.053 306.558 288.651L308.997 291.09L307.315 292.688C305.128 294.706 305.044 296.893 307.231 298.827C309.249 300.678 312.697 300.005 314.043 297.482C314.8 295.968 314.632 295.211 313.202 293.277C312.193 292.015 311.436 290.586 311.436 290.165C311.436 289.829 310.09 288.231 308.492 286.633C306.81 285.035 305.717 283.269 305.969 282.596C306.222 282.007 305.969 280.746 305.549 279.821C304.54 277.971 300.587 277.634 298.989 279.232ZM311.015 295.295C311.015 297.482 309.333 297.398 309.081 295.127C308.829 293.781 309.165 293.277 309.922 293.529C310.511 293.781 311.015 294.538 311.015 295.295Z" fill="url(#paint54_linear_712_46779)"/>
<defs>
<linearGradient id="paint0_linear_712_46779" x1="289.427" y1="124.813" x2="289.427" y2="530.371" gradientUnits="userSpaceOnUse">
<stop stop-color="#333333" stop-opacity="0.3"/>
<stop offset="1"/>
</linearGradient>
<linearGradient id="paint1_linear_712_46779" x1="290.364" y1="171.674" x2="290.364" y2="548.263" gradientUnits="userSpaceOnUse">
<stop stop-color="#333333" stop-opacity="0.3"/>
<stop offset="1"/>
</linearGradient>
<linearGradient id="paint2_linear_712_46779" x1="291.308" y1="218.524" x2="291.308" y2="566.145" gradientUnits="userSpaceOnUse">
<stop stop-color="#333333" stop-opacity="0.3"/>
<stop offset="1"/>
</linearGradient>
<linearGradient id="paint3_linear_712_46779" x1="292.243" y1="265.383" x2="292.243" y2="584.036" gradientUnits="userSpaceOnUse">
<stop stop-color="#333333" stop-opacity="0.3"/>
<stop offset="1"/>
</linearGradient>
<linearGradient id="paint4_linear_712_46779" x1="293.18" y1="312.244" x2="293.18" y2="601.928" gradientUnits="userSpaceOnUse">
<stop stop-color="#333333" stop-opacity="0.3"/>
<stop offset="1"/>
</linearGradient>
<linearGradient id="paint5_linear_712_46779" x1="294.118" y1="359.105" x2="294.118" y2="619.821" gradientUnits="userSpaceOnUse">
<stop stop-color="#333333" stop-opacity="0.3"/>
<stop offset="1"/>
</linearGradient>
<linearGradient id="paint6_linear_712_46779" x1="295.053" y1="405.964" x2="295.053" y2="637.712" gradientUnits="userSpaceOnUse">
<stop stop-color="#333333" stop-opacity="0.3"/>
<stop offset="1"/>
</linearGradient>
<linearGradient id="paint7_linear_712_46779" x1="295.991" y1="452.826" x2="295.991" y2="655.605" gradientUnits="userSpaceOnUse">
<stop stop-color="#333333" stop-opacity="0.3"/>
<stop offset="1"/>
</linearGradient>
<linearGradient id="paint8_linear_712_46779" x1="293.879" y1="506.252" x2="293.879" y2="680.063" gradientUnits="userSpaceOnUse">
<stop stop-color="#333333" stop-opacity="0.3"/>
<stop offset="1"/>
</linearGradient>
<linearGradient id="paint9_linear_712_46779" x1="294.823" y1="553.1" x2="294.823" y2="697.942" gradientUnits="userSpaceOnUse">
<stop stop-color="#333333" stop-opacity="0.3"/>
<stop offset="1"/>
</linearGradient>
<linearGradient id="paint10_linear_712_46779" x1="292.711" y1="606.527" x2="292.711" y2="722.401" gradientUnits="userSpaceOnUse">
<stop stop-color="#333333" stop-opacity="0.3"/>
<stop offset="1"/>
</linearGradient>
<linearGradient id="paint11_linear_712_46779" x1="293.649" y1="653.388" x2="293.649" y2="740.293" gradientUnits="userSpaceOnUse">
<stop stop-color="#333333" stop-opacity="0.3"/>
<stop offset="1"/>
</linearGradient>
<linearGradient id="paint12_linear_712_46779" x1="294.584" y1="700.247" x2="294.584" y2="758.184" gradientUnits="userSpaceOnUse">
<stop stop-color="#333333" stop-opacity="0.3"/>
<stop offset="1"/>
</linearGradient>
<linearGradient id="paint13_linear_712_46779" x1="246.931" y1="108.34" x2="246.931" y2="82.3077" gradientUnits="userSpaceOnUse">
<stop stop-color="#BDBDBD"/>
<stop offset="1" stop-opacity="0"/>
</linearGradient>
<linearGradient id="paint14_linear_712_46779" x1="345.083" y1="108.34" x2="345.083" y2="82.344" gradientUnits="userSpaceOnUse">
<stop stop-color="#BDBDBD"/>
<stop offset="1" stop-opacity="0"/>
</linearGradient>
<linearGradient id="paint15_linear_712_46779" x1="277.672" y1="112.313" x2="277.672" y2="95.7878" gradientUnits="userSpaceOnUse">
<stop stop-color="#BDBDBD"/>
<stop offset="1" stop-opacity="0"/>
</linearGradient>
<linearGradient id="paint16_linear_712_46779" x1="314.548" y1="111.704" x2="314.548" y2="95.751" gradientUnits="userSpaceOnUse">
<stop stop-color="#BDBDBD"/>
<stop offset="1" stop-opacity="0"/>
</linearGradient>
<linearGradient id="paint17_linear_712_46779" x1="226.975" y1="133.569" x2="226.975" y2="104.255" gradientUnits="userSpaceOnUse">
<stop stop-color="#BDBDBD"/>
<stop offset="1" stop-opacity="0"/>
</linearGradient>
<linearGradient id="paint18_linear_712_46779" x1="365.269" y1="133.569" x2="365.269" y2="104.134" gradientUnits="userSpaceOnUse">
<stop stop-color="#BDBDBD"/>
<stop offset="1" stop-opacity="0"/>
</linearGradient>
<linearGradient id="paint19_linear_712_46779" x1="263.524" y1="131.888" x2="263.524" y2="108.34" gradientUnits="userSpaceOnUse">
<stop stop-color="#BDBDBD"/>
<stop offset="1" stop-opacity="0"/>
</linearGradient>
<linearGradient id="paint20_linear_712_46779" x1="329.099" y1="132.308" x2="329.099" y2="108.339" gradientUnits="userSpaceOnUse">
<stop stop-color="#BDBDBD"/>
<stop offset="1" stop-opacity="0"/>
</linearGradient>
<linearGradient id="paint21_linear_712_46779" x1="250.864" y1="145.953" x2="250.864" y2="116.811" gradientUnits="userSpaceOnUse">
<stop stop-color="#BDBDBD"/>
<stop offset="1" stop-opacity="0"/>
</linearGradient>
<linearGradient id="paint22_linear_712_46779" x1="341.516" y1="146.185" x2="341.516" y2="116.749" gradientUnits="userSpaceOnUse">
<stop stop-color="#BDBDBD"/>
<stop offset="1" stop-opacity="0"/>
</linearGradient>
<linearGradient id="paint23_linear_712_46779" x1="240.075" y1="182.67" x2="240.075" y2="124.462" gradientUnits="userSpaceOnUse">
<stop stop-color="#BDBDBD"/>
<stop offset="1" stop-opacity="0"/>
</linearGradient>
<linearGradient id="paint24_linear_712_46779" x1="351.915" y1="182.817" x2="351.915" y2="124.319" gradientUnits="userSpaceOnUse">
<stop stop-color="#BDBDBD"/>
<stop offset="1" stop-opacity="0"/>
</linearGradient>
<linearGradient id="paint25_linear_712_46779" x1="221.65" y1="156.262" x2="221.65" y2="126.001" gradientUnits="userSpaceOnUse">
<stop stop-color="#BDBDBD"/>
<stop offset="1" stop-opacity="0"/>
</linearGradient>
<linearGradient id="paint26_linear_712_46779" x1="370.768" y1="156.242" x2="370.768" y2="126.187" gradientUnits="userSpaceOnUse">
<stop stop-color="#BDBDBD"/>
<stop offset="1" stop-opacity="0"/>
</linearGradient>
<linearGradient id="paint27_linear_712_46779" x1="295.879" y1="237.266" x2="295.879" y2="127.683" gradientUnits="userSpaceOnUse">
<stop stop-color="#BDBDBD"/>
<stop offset="1" stop-opacity="0"/>
</linearGradient>
<linearGradient id="paint28_linear_712_46779" x1="272.54" y1="170.574" x2="272.54" y2="161.071" gradientUnits="userSpaceOnUse">
<stop stop-color="#BDBDBD"/>
<stop offset="1" stop-opacity="0"/>
</linearGradient>
<linearGradient id="paint29_linear_712_46779" x1="319.009" y1="170.574" x2="319.009" y2="161.321" gradientUnits="userSpaceOnUse">
<stop stop-color="#BDBDBD"/>
<stop offset="1" stop-opacity="0"/>
</linearGradient>
<linearGradient id="paint30_linear_712_46779" x1="238.364" y1="201.428" x2="238.364" y2="139.456" gradientUnits="userSpaceOnUse">
<stop stop-color="#BDBDBD"/>
<stop offset="1" stop-opacity="0"/>
</linearGradient>
<linearGradient id="paint31_linear_712_46779" x1="353.924" y1="201.46" x2="353.924" y2="140.265" gradientUnits="userSpaceOnUse">
<stop stop-color="#BDBDBD"/>
<stop offset="1" stop-opacity="0"/>
</linearGradient>
<linearGradient id="paint32_linear_712_46779" x1="204.511" y1="179.766" x2="204.511" y2="161.341" gradientUnits="userSpaceOnUse">
<stop stop-color="#BDBDBD"/>
<stop offset="1" stop-opacity="0"/>
</linearGradient>
<linearGradient id="paint33_linear_712_46779" x1="387.951" y1="180.058" x2="387.951" y2="161.441" gradientUnits="userSpaceOnUse">
<stop stop-color="#BDBDBD"/>
<stop offset="1" stop-opacity="0"/>
</linearGradient>
<linearGradient id="paint34_linear_712_46779" x1="216.115" y1="205.793" x2="216.115" y2="186.64" gradientUnits="userSpaceOnUse">
<stop stop-color="#BDBDBD"/>
<stop offset="1" stop-opacity="0"/>
</linearGradient>
<linearGradient id="paint35_linear_712_46779" x1="376.262" y1="205.896" x2="376.262" y2="186.637" gradientUnits="userSpaceOnUse">
<stop stop-color="#BDBDBD"/>
<stop offset="1" stop-opacity="0"/>
</linearGradient>
<linearGradient id="paint36_linear_712_46779" x1="235.381" y1="216.829" x2="235.381" y2="191.29" gradientUnits="userSpaceOnUse">
<stop stop-color="#BDBDBD"/>
<stop offset="1" stop-opacity="0"/>
</linearGradient>
<linearGradient id="paint37_linear_712_46779" x1="356.736" y1="216.787" x2="356.736" y2="190.758" gradientUnits="userSpaceOnUse">
<stop stop-color="#BDBDBD"/>
<stop offset="1" stop-opacity="0"/>
</linearGradient>
<linearGradient id="paint38_linear_712_46779" x1="237.274" y1="248.787" x2="237.274" y2="198.138" gradientUnits="userSpaceOnUse">
<stop stop-color="#BDBDBD"/>
<stop offset="1" stop-opacity="0"/>
</linearGradient>
<linearGradient id="paint39_linear_712_46779" x1="355.01" y1="248.507" x2="355.01" y2="198.189" gradientUnits="userSpaceOnUse">
<stop stop-color="#BDBDBD"/>
<stop offset="1" stop-opacity="0"/>
</linearGradient>
<linearGradient id="paint40_linear_712_46779" x1="219.817" y1="234.195" x2="219.817" y2="201.691" gradientUnits="userSpaceOnUse">
<stop stop-color="#BDBDBD"/>
<stop offset="1" stop-opacity="0"/>
</linearGradient>
<linearGradient id="paint41_linear_712_46779" x1="372.184" y1="234.49" x2="372.184" y2="201.691" gradientUnits="userSpaceOnUse">
<stop stop-color="#BDBDBD"/>
<stop offset="1" stop-opacity="0"/>
</linearGradient>
<linearGradient id="paint42_linear_712_46779" x1="295.96" y1="262.924" x2="295.96" y2="222.716" gradientUnits="userSpaceOnUse">
<stop stop-color="#BDBDBD"/>
<stop offset="1" stop-opacity="0"/>
</linearGradient>
<linearGradient id="paint43_linear_712_46779" x1="236.749" y1="260.71" x2="236.749" y2="226.113" gradientUnits="userSpaceOnUse">
<stop stop-color="#BDBDBD"/>
<stop offset="1" stop-opacity="0"/>
</linearGradient>
<linearGradient id="paint44_linear_712_46779" x1="244.17" y1="277.381" x2="244.17" y2="226.111" gradientUnits="userSpaceOnUse">
<stop stop-color="#BDBDBD"/>
<stop offset="1" stop-opacity="0"/>
</linearGradient>
<linearGradient id="paint45_linear_712_46779" x1="347.371" y1="277.381" x2="347.371" y2="226.151" gradientUnits="userSpaceOnUse">
<stop stop-color="#BDBDBD"/>
<stop offset="1" stop-opacity="0"/>
</linearGradient>
<linearGradient id="paint46_linear_712_46779" x1="355.193" y1="260.498" x2="355.193" y2="226.05" gradientUnits="userSpaceOnUse">
<stop stop-color="#BDBDBD"/>
<stop offset="1" stop-opacity="0"/>
</linearGradient>
<linearGradient id="paint47_linear_712_46779" x1="262.421" y1="263.016" x2="262.421" y2="235.331" gradientUnits="userSpaceOnUse">
<stop stop-color="#BDBDBD"/>
<stop offset="1" stop-opacity="0"/>
</linearGradient>
<linearGradient id="paint48_linear_712_46779" x1="329.731" y1="262.952" x2="329.731" y2="235.331" gradientUnits="userSpaceOnUse">
<stop stop-color="#BDBDBD"/>
<stop offset="1" stop-opacity="0"/>
</linearGradient>
<linearGradient id="paint49_linear_712_46779" x1="277.307" y1="307.401" x2="277.307" y2="255.646" gradientUnits="userSpaceOnUse">
<stop stop-color="#BDBDBD"/>
<stop offset="1" stop-opacity="0"/>
</linearGradient>
<linearGradient id="paint50_linear_712_46779" x1="314.461" y1="307.305" x2="314.461" y2="255.541" gradientUnits="userSpaceOnUse">
<stop stop-color="#BDBDBD"/>
<stop offset="1" stop-opacity="0"/>
</linearGradient>
<linearGradient id="paint51_linear_712_46779" x1="262.965" y1="292.359" x2="262.965" y2="264.708" gradientUnits="userSpaceOnUse">
<stop stop-color="#BDBDBD"/>
<stop offset="1" stop-opacity="0"/>
</linearGradient>
<linearGradient id="paint52_linear_712_46779" x1="329.458" y1="292.483" x2="329.458" y2="264.829" gradientUnits="userSpaceOnUse">
<stop stop-color="#BDBDBD"/>
<stop offset="1" stop-opacity="0"/>
</linearGradient>
<linearGradient id="paint53_linear_712_46779" x1="286.239" y1="299.931" x2="286.239" y2="278.222" gradientUnits="userSpaceOnUse">
<stop stop-color="#BDBDBD"/>
<stop offset="1" stop-opacity="0"/>
</linearGradient>
<linearGradient id="paint54_linear_712_46779" x1="306.242" y1="299.881" x2="306.242" y2="278.21" gradientUnits="userSpaceOnUse">
<stop stop-color="#BDBDBD"/>
<stop offset="1" stop-opacity="0"/>
</linearGradient>
</defs>
</svg>
