<svg width="203" height="226" viewBox="0 0 203 226" fill="none" xmlns="http://www.w3.org/2000/svg">
<path d="M71.0206 1.53026C70.1796 2.53946 67.7407 2.79176 58.9102 2.79176H47.893L40.324 10.3608C35.278 15.4909 32.1663 17.9298 30.9048 17.9298C29.0546 17.9298 25.6064 20.5369 25.6064 21.9666C25.6064 23.6486 28.3818 26.3398 30.1479 26.3398C32.5027 26.3398 35.278 23.4804 34.6052 21.7984C34.2688 21.0415 36.7077 18.0139 41.4173 13.3884L48.734 6.15577H59.0784C68.1612 6.15577 69.7591 6.40808 71.6093 7.75368C75.562 10.9495 80.1875 6.57627 77.4122 2.37126C75.8143 0.0164528 72.6185 -0.404049 71.0206 1.53026Z" fill="url(#paint0_linear_261_43335)"/>
<path d="M125.518 1.19386C123.752 2.20306 123.499 6.15577 125.013 7.66958C126.443 9.09928 130.648 8.93108 131.236 7.41728C131.657 6.40808 133.759 6.15577 142.842 6.15577H153.859L160.84 13.1361C165.802 18.1821 167.736 20.621 167.736 22.2189C167.736 24.826 169.166 26.3398 171.52 26.3398C173.623 26.3398 176.146 23.9009 176.146 21.9666C176.146 20.2846 173.455 17.9298 171.436 17.9298C170.511 17.9298 166.559 14.734 162.269 10.3608L154.7 2.79176H143.263C134.096 2.79176 131.573 2.53946 130.732 1.53026C129.554 0.100554 127.62 -0.0676479 125.518 1.19386Z" fill="url(#paint1_linear_261_43335)"/>
<path d="M67.4037 14.9862C65.8058 16.5 66.6468 20.2845 68.7493 21.6301C69.8426 22.3029 70.8518 22.2188 72.7861 21.0414C74.4681 20.1163 77.0753 19.6117 80.5234 19.6117C84.8125 19.6958 86.1581 20.0322 88.0924 21.7142C89.438 22.8916 90.3631 24.5736 90.3631 25.8351C90.3631 27.1807 91.12 28.5263 92.4656 29.3673C94.3999 30.6289 94.7363 30.6289 96.6706 29.3673C97.9321 28.5263 98.7731 27.1807 98.7731 26.0033C98.7731 23.5644 95.9978 20.9573 93.8112 21.546C92.6338 21.7983 91.4564 21.1255 89.7744 19.1071C87.5037 16.3318 87.2514 16.2477 81.028 16.2477C76.3184 16.2477 74.2999 15.9113 73.543 14.9862C72.1974 13.3883 69.0016 13.3883 67.4037 14.9862ZM72.5338 17.6774C72.702 18.3502 72.1133 18.7707 71.1041 18.7707C70.0949 18.7707 69.338 18.2661 69.338 17.4251C69.338 15.9113 71.9451 16.1636 72.5338 17.6774Z" fill="url(#paint2_linear_261_43335)"/>
<path d="M128.211 14.9866C127.454 15.9117 125.435 16.2481 121.146 16.2481C115.343 16.2481 115.007 16.3322 112.231 19.1916C110.718 20.7895 109.12 21.8828 108.699 21.6305C107.522 20.8736 104.662 22.1351 103.737 23.9012C102.392 26.4242 104.831 29.7041 108.026 29.7041C110.634 29.7041 112.736 27.1811 111.979 25.0786C111.727 24.4899 112.568 23.0602 113.745 21.8828C115.68 20.0326 116.941 19.6962 121.651 19.528C125.94 19.3598 127.538 19.6962 128.631 20.7054C130.481 22.5556 132.668 22.4715 134.35 20.6213C136.032 18.7711 136.2 16.164 134.77 14.7343C133.341 13.3045 129.472 13.4727 128.211 14.9866Z" fill="url(#paint3_linear_261_43335)"/>
<path d="M40.7473 22.7229C39.0653 23.3957 38.2243 24.7413 38.2243 26.7598C38.2243 28.8623 23.675 43.5798 22.3294 42.8229C21.0678 41.9819 18.2084 43.748 17.6197 45.6823C16.8628 47.953 19.2176 51.5693 21.4042 51.5693C23.675 51.5693 26.6185 48.4576 26.1139 46.6915C25.357 44.5049 39.4858 30.7125 42.8498 30.3761C46.2138 30.0397 47.6435 26.3392 45.3728 23.8162C43.859 22.1342 42.9339 21.8819 40.7473 22.7229Z" fill="url(#paint4_linear_261_43335)"/>
<path d="M157.478 23.0593C155.712 24.0685 155.46 28.0213 156.973 29.5351C157.562 30.1238 158.74 30.5443 159.749 30.5443C162.104 30.5443 176.653 45.0095 176.317 46.9438C175.896 48.7099 178.503 51.5693 180.437 51.5693C182.54 51.5693 184.558 49.2986 184.558 46.9438C184.558 44.6731 181.026 41.8137 179.428 42.7388C178.924 43.1593 175.56 40.384 171.102 36.0108C165.636 30.6284 163.87 28.2736 164.122 27.0962C164.627 25.1618 162.188 22.1342 160.253 22.1342C159.496 22.1342 158.235 22.5547 157.478 23.0593Z" fill="url(#paint5_linear_261_43335)"/>
<path d="M50.416 29.7036C48.1453 32.0584 46.3792 33.0676 44.7813 33.0676C40.324 33.0676 39.2307 39.5434 43.4357 40.9731C46.211 41.9823 49.1545 39.7957 49.1545 36.8522C49.1545 35.927 50.416 33.9086 51.9298 32.3948L54.7051 29.7036H65.6382H76.4871L84.7289 37.9455C89.1862 42.4028 92.8866 46.776 92.8866 47.5329C92.8866 48.6262 94.4846 49.8877 95.9143 49.8877C96.0825 49.8877 96.2507 48.8785 96.2507 47.5329C96.2507 45.6827 94.3164 43.2438 86.7473 35.7588L77.3281 26.3396H65.47H53.6959L50.416 29.7036Z" fill="url(#paint6_linear_261_43335)"/>
<path d="M115.345 35.4219C107.355 43.4955 106.346 44.757 106.346 47.3641L106.43 50.3076L108.617 47.7846C109.794 46.3549 114.083 41.7294 118.204 37.4403L125.521 29.703H136.37H147.219L150.331 32.8989C152.013 34.665 153.442 36.8516 153.442 37.7767C153.442 39.9633 155.04 41.4771 157.227 41.4771C159.329 41.4771 161.852 39.0382 161.852 37.1039C161.852 35.2537 159.077 33.0671 156.722 33.0671C155.377 33.0671 153.442 31.8056 151.34 29.703L148.06 26.339H136.202H124.428L115.345 35.4219Z" fill="url(#paint7_linear_261_43335)"/>
<path d="M48.7353 45.3459C40.9981 53.3355 38.1386 55.7744 36.5407 55.7744C32.0834 55.7744 30.7378 60.5681 34.4382 63.007C36.3725 64.2685 36.7089 64.2685 38.6432 63.007C39.8206 62.2501 40.7457 60.8204 40.7457 59.7271C40.7457 58.4656 43.8575 54.6811 50.6696 47.953L60.5093 38.1133H66.0599C70.8537 38.1133 71.8629 38.3656 73.5449 40.2158C75.3951 42.1501 79.4319 43.1593 79.4319 41.6455C79.4319 41.3091 78.0022 39.543 76.2361 37.861C73.0403 34.7493 73.0403 34.7493 65.9758 34.8334H58.8273L48.7353 45.3459Z" fill="url(#paint8_linear_261_43335)"/>
<path d="M125.689 38.534C122.241 42.0662 122.073 42.3185 124.007 42.3185C125.1 42.3185 127.034 41.3093 128.38 40.0478C130.483 38.0294 131.239 37.8612 136.37 38.0294L142.088 38.1976L152.012 48.0373C158.152 54.1766 161.684 58.2976 161.431 59.0545C160.927 60.4001 164.123 64.1846 165.805 64.1846C167.318 64.1846 170.262 61.157 170.262 59.5591C170.262 57.6247 167.15 54.9335 165.384 55.354C164.291 55.5222 160.759 52.5787 153.358 45.1779L142.929 34.7495H136.201H129.389L125.689 38.534ZM166.898 59.6432C166.898 60.9888 164.711 61.2411 163.954 59.9796C163.702 59.475 163.618 58.8022 163.954 58.2976C164.627 57.2042 166.898 58.2134 166.898 59.6432Z" fill="url(#paint9_linear_261_43335)"/>
<path d="M43.1022 60.6527L24.7683 79.0706V85.8827C24.7683 89.7514 24.4319 92.779 23.9273 92.779C22.4135 92.779 21.4043 95.9748 22.1612 98.0773C23.0863 100.348 25.2729 101.273 27.88 100.264C30.0666 99.4229 30.9076 95.6384 29.1415 93.9564C28.2164 92.9472 27.88 91.097 28.0482 86.6396L28.2164 80.5844L45.5411 63.1757C59.5017 49.215 63.4544 45.6828 65.7252 45.2623C69.5938 44.5895 68.8369 42.8234 64.6319 42.487C61.3519 42.3188 61.1837 42.487 43.1022 60.6527Z" fill="url(#paint10_linear_261_43335)"/>
<path d="M133.679 43.1599C133.175 44.0009 136.539 45.6829 138.557 45.6829C139.146 45.6829 147.472 53.5042 157.059 63.1758L174.468 80.5845V86.3874C174.468 90.5925 174.047 92.6109 173.122 93.7042C171.356 95.6385 172.113 99.0866 174.552 100.348C178.673 102.619 182.458 96.059 178.589 93.2837C176.991 92.1904 176.907 91.4335 177.075 85.7146L177.411 79.323L158.909 60.8209C141.501 43.4122 140.239 42.3189 137.296 42.3189C135.614 42.3189 133.932 42.7394 133.679 43.1599Z" fill="url(#paint11_linear_261_43335)"/>
<path d="M31.9192 45.1782C30.9941 45.851 30.2372 47.2807 30.2372 48.4581C30.1531 49.8037 28.0506 52.495 23.6774 56.7841C20.1452 60.3163 17.2017 63.6803 17.2017 64.3531C17.2017 65.11 16.613 66.1192 15.9402 66.7079C14.4264 67.9694 14.2582 71.838 15.6879 73.2677C17.2017 74.7815 20.1452 74.5292 21.659 72.7631C23.5933 70.6606 23.4251 68.8104 21.4067 66.8761C19.6406 65.2782 19.7247 65.2782 26.1163 58.8025C30.4054 54.5134 33.1807 52.4109 34.5263 52.4109C36.797 52.4109 39.1519 49.4673 38.4791 47.4489C37.8904 45.851 35.7878 44.0008 34.4422 44.0008C33.9376 44.0008 32.7602 44.5054 31.9192 45.1782Z" fill="url(#paint12_linear_261_43335)"/>
<path d="M164.793 45.6823C162.522 48.2053 163.952 51.9057 167.316 52.2421C169.082 52.4103 171.605 54.2605 175.978 58.5496C182.201 64.6889 182.958 66.1186 180.772 67.0437C179.258 67.6324 179.09 71.8375 180.519 73.2672C181.949 74.6969 185.061 74.5287 186.575 72.9308C188.257 71.2488 188.257 68.8939 186.659 67.2119C185.986 66.5391 185.397 65.4458 185.397 64.8571C185.397 64.2684 182.37 60.7362 178.669 57.0358C173.96 52.3262 171.941 49.7191 171.941 48.2894C171.941 44.4208 167.4 42.7388 164.793 45.6823Z" fill="url(#paint13_linear_261_43335)"/>
<path d="M73.7145 47.1126C67.9116 48.3742 67.407 48.6265 65.3886 51.9064C64.2112 53.7566 60.2585 59.98 56.558 65.6147C51.0915 73.9406 50.0823 76.1273 50.7551 77.3888C52.6894 80.6687 54.2032 85.4624 53.6145 86.3034C53.2781 86.808 52.6053 87.8172 52.0166 88.5741C51.4279 89.2469 48.989 92.4427 46.6342 95.7226L42.4292 101.61L47.7275 107.076C50.5869 110.104 54.7078 114.393 56.8944 116.748L60.8472 120.953L60.0062 125.158C59.5857 127.428 58.997 130.456 58.7447 131.886C58.4924 133.231 57.9878 135.923 57.5673 137.773L56.8103 141.137L63.7907 148.201L70.8551 155.266L74.4714 152.406C76.4898 150.808 78.34 149.379 78.5923 149.126C78.8446 148.874 82.7973 145.846 87.4229 142.398C91.9643 138.95 96.2534 135.67 96.9262 135.166C98.1036 134.325 98.44 132.979 99.281 125.158L99.7015 120.953L94.8237 118.009C86.9183 113.215 77.5831 103.796 84.3111 107.413C85.5726 108.085 89.7777 109.767 93.7304 111.197L100.963 113.804L108.953 110.945C113.41 109.347 117.867 107.665 118.876 107.16C124.679 104.049 116.353 111.87 107.355 117.925C102.645 121.121 102.056 121.794 102.477 123.728C102.897 126.167 104.075 133.231 104.159 134.072C104.243 134.493 109.205 138.361 126.782 151.481L131.66 155.182L138.388 148.117C145.452 140.632 145.2 141.305 143.77 133.988C143.518 132.811 143.013 129.783 142.593 127.26C142.172 124.737 141.668 122.214 141.499 121.626C141.415 121.121 145.284 116.495 150.33 111.449C155.292 106.487 159.329 102.03 159.329 101.694C159.329 101.273 156.806 97.5728 153.778 93.3678L148.143 85.7988L149.993 80.5846L151.844 75.2862L147.05 67.8854C144.443 63.7645 140.574 57.8775 138.64 54.7658C134.435 48.3742 134.687 48.5424 130.566 47.8696C128.8 47.6172 125.688 47.0285 123.502 46.5239L119.633 45.6829L110.298 52.2428L100.963 58.8867L91.1233 52.3269C85.6567 48.6265 80.863 45.767 80.5266 45.767C80.1902 45.8511 77.0785 46.4398 73.7145 47.1126ZM90.7869 55.8591C95.917 59.3072 100.29 62.1666 100.627 62.3348C100.879 62.503 103.57 60.9051 106.514 58.8026C120.979 48.4583 119.717 49.047 124.847 49.9721C127.37 50.3926 130.314 50.9813 131.323 51.1495C132.332 51.4018 133.93 52.9997 135.024 54.6817C136.033 56.4478 139.481 61.9143 142.677 66.8762L148.564 75.7908L146.629 80.921L144.779 86.1352L148.816 91.9381C151.003 95.1339 153.526 98.4979 154.367 99.423C155.88 101.021 155.712 101.273 146.966 110.356L138.135 119.691L138.808 123.728C139.145 125.915 139.481 128.017 139.649 128.522C139.733 128.942 140.238 131.718 140.742 134.661L141.752 139.959L137.294 144.585C134.855 147.108 132.753 149.631 132.585 150.051C132.417 150.472 131.996 150.808 131.66 150.808C131.239 150.808 125.688 146.771 119.297 141.894C107.439 132.895 107.018 132.306 105.925 125.831C105.504 123.223 105.841 122.887 110.803 119.523C115.26 116.495 132.669 99.5071 131.323 99.5071C131.155 99.5071 129.221 100.264 127.034 101.273C124.847 102.198 122.409 103.123 121.652 103.292C120.895 103.46 115.933 105.142 110.719 107.076L101.299 110.692L94.3191 108.085C90.5346 106.74 83.8065 104.301 79.4333 102.619C75.0601 101.021 71.2756 99.8435 71.1074 100.096C70.2664 100.769 86.8342 116.495 91.712 119.691L96.758 123.055L96.0011 127.849L95.1601 132.727L83.0496 141.894L70.8551 151.061L65.9773 145.678C60.679 139.959 60.4267 139.202 61.7723 132.222C62.2769 129.699 62.8656 126.503 63.1179 125.158C63.2861 123.728 63.7066 122.046 63.9589 121.289C64.2112 120.364 61.4359 116.832 55.3806 110.524L46.466 101.189L52.0166 93.7042L57.5673 86.1352L55.717 81.0892C53.6145 75.118 53.0258 76.5478 62.8656 61.662C69.7618 51.2336 69.7618 51.2336 73.9668 50.3085C76.3216 49.8039 78.9287 49.3834 79.8538 49.4675C80.863 49.5516 85.7408 52.411 90.7869 55.8591Z" fill="url(#paint14_linear_261_43335)"/>
<path d="M74.3861 83.8646C77.8342 86.4717 81.2824 88.5742 82.1234 88.5742C83.3008 88.5742 87.0012 83.9487 87.0012 82.519C87.0012 82.0985 82.1234 81.1734 76.9091 80.5847C76.2363 80.5006 73.9656 80.0801 71.8631 79.7437L68.0786 79.0709L74.3861 83.8646Z" fill="url(#paint15_linear_261_43335)"/>
<path d="M129.812 79.7437C129.559 79.9119 127.709 80.3324 125.607 80.5847C123.588 80.837 120.308 81.3416 118.29 81.678L114.758 82.2667L116.86 85.3784C118.038 87.1445 119.552 88.5742 120.224 88.5742C121.318 88.5742 133.26 80.4165 133.26 79.6596C133.26 79.155 130.232 79.2391 129.812 79.7437Z" fill="url(#paint16_linear_261_43335)"/>
<path d="M44.2813 69.651L32.3391 81.8456L32.6755 96.5631C32.9278 105.057 32.7596 111.281 32.3391 111.281C31.9186 111.281 31.1617 112.122 30.573 113.047C28.6387 116.747 32.7596 120.868 36.3759 118.934C38.7307 117.672 39.1512 114.981 37.301 112.626C35.8713 110.776 35.7031 109.094 35.7031 96.479V82.3502L42.2629 75.9586C48.3182 70.0715 58.0738 57.4565 56.4759 57.4565C56.3077 57.4565 50.7571 62.923 44.2813 69.651ZM35.3667 114.224C35.619 114.897 35.619 115.822 35.2826 116.327C34.4416 117.672 32.3391 115.738 32.9278 114.14C33.5165 112.626 34.778 112.626 35.3667 114.224Z" fill="url(#paint17_linear_261_43335)"/>
<path d="M146.378 59.2231C150.331 65.6147 154.283 70.6608 159.666 75.9591L166.057 82.1825V96.6478C166.057 108.422 165.805 111.281 164.796 112.122C162.861 113.72 163.282 116.916 165.637 118.514C167.571 119.775 167.908 119.775 169.842 118.514C172.197 116.916 172.617 113.72 170.683 112.122C169.674 111.281 169.421 108.422 169.421 96.3114V81.5097L158.32 70.1562C147.723 59.3072 144.696 56.5319 146.378 59.2231ZM169.169 114.225C169.758 115.907 169.001 116.664 167.403 116.075C166.646 115.739 166.31 114.982 166.562 114.225C167.235 112.627 168.496 112.627 169.169 114.225Z" fill="url(#paint18_linear_261_43335)"/>
<path d="M10.8063 81.4249C10.1335 82.5182 9.71298 83.8638 10.0494 84.3684C10.8904 85.714 7.18997 89.4144 5.00336 89.4144C1.21885 89.4144 -1.13596 93.1989 0.882449 96.0583C3.40546 99.5905 9.96528 97.1516 8.53558 93.1989C7.94687 91.7692 12.236 87.7324 14.4226 87.7324C16.441 87.7324 18.8799 85.714 18.8799 84.1161C18.8799 83.5274 18.2912 82.1818 17.5343 81.1726C15.7682 78.6496 12.5724 78.7337 10.8063 81.4249Z" fill="url(#paint19_linear_261_43335)"/>
<path d="M185.058 80.4156C184.049 81.1725 183.629 82.3499 183.881 83.9478C184.049 85.9663 184.722 86.6391 186.825 87.3119C190.441 88.4893 193.637 91.601 193.973 94.2922C194.141 95.3855 194.982 96.8993 195.907 97.488C198.178 99.0018 201.71 97.3198 202.047 94.5445C202.467 91.9374 199.86 89.1621 197.421 89.6667C194.982 90.0872 191.618 86.6391 191.955 84.0319C192.459 80.2474 188.254 78.0608 185.058 80.4156Z" fill="url(#paint20_linear_261_43335)"/>
<path d="M23.755 105.73C22.914 106.319 22.2412 107.748 22.2412 108.926C22.2412 111.449 18.3726 115.149 15.5973 115.317C13.0743 115.401 12.0651 116.915 12.3174 120.111C12.6538 123.559 16.3542 124.989 18.8772 122.634C19.8023 121.793 20.4751 120.447 20.391 119.691C20.1387 118.177 24.4278 112.626 25.3529 113.215C25.7734 113.467 26.8667 113.299 27.96 112.878C30.483 111.953 30.6512 106.739 28.2123 105.394C26.1098 104.3 25.5211 104.384 23.755 105.73Z" fill="url(#paint21_linear_261_43335)"/>
<path d="M173.288 105.898C170.765 108.421 172.447 113.131 175.979 113.383C178.502 113.551 182.035 117.083 182.035 119.354C182.035 121.625 184.137 123.896 186.156 123.896C188.006 123.896 190.445 121.288 190.445 119.438C190.445 117.336 187.165 114.392 185.651 115.065C183.717 115.738 180.353 112.29 180.353 109.514C180.353 108.085 179.68 106.655 178.502 105.898C176.148 104.216 174.886 104.216 173.288 105.898Z" fill="url(#paint22_linear_261_43335)"/>
<path d="M43.2709 116.495C43.2709 125.073 42.6822 126.419 39.0659 126.419C36.3746 126.419 34.8608 127.849 34.8608 130.204C34.8608 132.306 37.2997 134.829 39.3182 134.829C41.3366 134.829 43.355 132.306 43.1027 130.204C43.0186 129.194 43.5232 127.681 44.3642 126.924C46.2985 124.905 46.4667 111.197 44.5324 109.599C43.4391 108.674 43.2709 109.515 43.2709 116.495Z" fill="url(#paint23_linear_261_43335)"/>
<path d="M156.974 110.44C156.385 111.365 155.965 114.897 155.965 118.681C155.965 124.316 156.217 125.578 157.647 126.839C158.656 127.68 159.161 128.942 158.908 129.614C158.656 130.287 159.077 131.717 159.749 132.81C161.515 135.501 164.795 135.417 166.561 132.726C167.823 130.792 167.823 130.455 166.561 128.521C165.72 127.26 164.375 126.419 163.282 126.419C159.918 126.419 159.329 124.905 159.329 116.579C159.329 112.29 159.077 108.758 158.656 108.758C158.32 108.758 157.563 109.514 156.974 110.44Z" fill="url(#paint24_linear_261_43335)"/>
<path d="M49.9955 123.055V131.044L42.0059 139.034L34.0164 147.024V152.574C34.0164 156.527 33.68 158.461 32.7549 159.218C30.1478 161.405 32.3344 166.787 35.8666 166.787C39.0624 166.787 41.1649 161.321 38.6419 159.218C37.8009 158.461 37.3804 156.527 37.3804 152.911V147.696L45.2018 140.211L52.939 132.642L52.6867 125.578C52.5185 121.205 52.0139 117.925 51.257 116.832C50.0796 115.318 49.9955 115.822 49.9955 123.055ZM36.9599 160.9C37.2963 161.405 37.044 162.414 36.4553 163.087C35.5302 164.264 35.362 164.264 34.6892 163.087C33.4277 160.9 35.6984 158.798 36.9599 160.9Z" fill="url(#paint25_linear_261_43335)"/>
<path d="M150.746 116.915C149.568 118.177 149.232 120.111 149.232 125.746V132.894L157.053 140.379L164.875 147.864L164.79 152.91C164.79 156.442 164.37 158.377 163.445 159.302C161.595 161.152 162.352 165.021 164.79 166.114C168.491 167.796 172.191 163.759 170.257 160.059C169.752 159.134 168.996 158.377 168.575 158.377C168.07 158.377 167.734 155.854 167.734 152.658V147.023L160.165 139.454L152.68 131.969L152.428 123.643C152.175 115.654 152.091 115.401 150.746 116.915ZM167.566 161.909C167.398 163.002 166.977 163.843 166.472 163.843C166.052 163.843 165.547 163.002 165.379 161.909C165.211 160.647 165.547 160.059 166.472 160.059C167.398 160.059 167.734 160.647 167.566 161.909Z" fill="url(#paint26_linear_261_43335)"/>
<path d="M27.7925 121.036C27.0356 121.709 26.4469 123.139 26.4469 124.232C26.4469 125.325 24.7649 127.68 22.2418 130.203C18.205 134.156 18.0368 134.576 18.0368 138.95C18.0368 142.566 17.6163 143.996 16.1866 145.509C14.4205 147.36 14.4205 147.696 15.5979 149.798C17.364 152.994 21.2326 152.994 22.9987 149.798C24.1762 147.696 24.1762 147.36 22.41 145.509C21.1485 144.164 20.5598 142.482 20.5598 140.127C20.5598 137.099 21.1485 136.09 24.7649 132.306C27.4561 129.446 29.4745 128.101 30.2314 128.437C31.8293 129.026 34.8569 126.082 34.8569 123.98C34.8569 122.298 31.9975 119.691 30.0632 119.691C29.5586 119.691 28.4653 120.279 27.7925 121.036ZM20.2234 148.789C19.8029 149.883 19.3824 149.967 18.7096 149.294C18.205 148.789 18.0368 147.78 18.3732 146.939C18.7937 145.846 19.2142 145.762 19.887 146.434C20.3916 146.939 20.5598 147.948 20.2234 148.789Z" fill="url(#paint27_linear_261_43335)"/>
<path d="M169.167 120.869C166.728 122.719 166.728 125.326 169.083 127.176C170.26 128.101 171.69 128.69 172.195 128.438C172.783 128.269 174.97 129.867 177.157 132.054C180.436 135.502 181.109 136.679 181.362 140.043C181.53 143.071 181.277 144.164 180.184 144.837C177.157 146.771 179.175 152.49 182.875 152.49C186.408 152.49 188.51 147.192 185.819 144.921C184.978 144.248 184.557 142.314 184.557 139.202C184.557 134.661 184.389 134.409 180.1 130.288C177.493 127.765 175.811 125.41 175.979 124.569C176.316 122.971 173.372 119.691 171.774 119.691C171.185 119.691 170.008 120.28 169.167 120.869ZM173.456 124.485C173.624 125.158 173.036 125.578 172.026 125.578C171.017 125.578 170.26 125.074 170.26 124.233C170.26 122.719 172.867 122.971 173.456 124.485ZM183.885 146.771C184.641 148.706 183.716 150.135 182.455 149.126C181.782 148.622 181.53 147.612 181.782 146.94C182.287 145.51 183.38 145.426 183.885 146.771Z" fill="url(#paint28_linear_261_43335)"/>
<path d="M94.1493 144.164C90.8694 146.015 85.8234 148.958 82.7957 150.556C79.7681 152.238 76.5723 154.004 75.6472 154.509C74.7221 155.013 73.8811 155.518 73.7129 155.518C73.6288 155.602 76.2359 159.891 79.5999 165.105C85.0665 173.599 85.7393 174.356 86.7485 173.011C87.3372 172.17 87.8418 170.992 87.8418 170.404C87.8418 169.815 87.9259 169.31 88.0941 169.31C88.2623 169.31 91.1217 172.001 94.4857 175.197C97.8497 178.477 100.961 181.084 101.382 180.916C101.718 180.748 104.746 178.057 108.026 174.945L113.913 169.142L114.838 171.749C115.847 174.525 116.856 175.113 117.529 173.263C117.781 172.59 120.304 168.553 123.08 164.264C125.939 159.891 128.21 156.107 128.21 155.854C128.21 155.518 127.201 154.761 125.939 154.088C124.594 153.499 121.902 151.986 119.8 150.724C112.063 146.351 101.382 140.716 100.709 140.716C100.289 140.716 97.3451 142.23 94.1493 144.164ZM105.251 146.267C107.437 147.528 111.726 149.883 114.754 151.565C117.781 153.247 120.893 154.929 121.818 155.434C123.921 156.527 123.837 157.116 120.052 163.171C116.856 168.385 115.595 169.563 115.595 167.292C115.595 164.348 113.492 165.358 107.605 171.076L101.298 177.132L99.0271 175.113C97.8497 174.02 94.9062 171.329 92.5514 169.058C88.1782 164.937 87.0008 164.348 87.0008 166.283C87.0008 169.226 85.3188 168.049 81.9547 162.75C80.0204 159.639 78.5066 156.948 78.5907 156.695C78.6748 156.443 81.1137 155.013 83.8891 153.499C86.7485 151.986 90.7853 149.715 92.8878 148.453C96.7564 146.267 100.709 144.08 101.046 144.08C101.13 144.08 103.064 145.089 105.251 146.267Z" fill="url(#paint29_linear_261_43335)"/>
<path d="M42.0933 145.93C40.3272 148.453 40.4113 149.715 42.4297 150.976C43.9435 151.901 44.1117 152.911 44.1117 159.639C44.0276 165.778 43.7753 167.544 42.5138 169.142C41.5887 170.235 40.3272 170.824 39.6544 170.488C36.3745 169.31 33.0946 173.599 34.8607 176.879C36.7109 180.411 42.4297 178.477 43.0184 174.104C43.1866 173.095 44.0276 171.749 44.9527 171.076C46.4665 170.067 46.6347 168.974 46.6347 160.732C46.6347 153.415 46.887 151.481 47.8962 151.145C49.4101 150.556 49.5783 146.519 48.1486 145.089C46.5506 143.491 43.523 143.912 42.0933 145.93ZM46.3824 147.949C47.1393 150.051 45.2891 151.313 44.1958 149.294C43.3548 147.696 43.6912 146.603 45.1209 146.603C45.5414 146.603 46.046 147.192 46.3824 147.949Z" fill="url(#paint30_linear_261_43335)"/>
<path d="M52.6839 145.089C51.927 145.846 51.6747 151.565 51.6747 165.525C51.6747 185.962 51.5065 186.971 47.8902 186.971C45.7877 186.971 43.2646 189.41 43.2646 191.344C43.2646 193.11 45.9559 195.381 48.1425 195.381C50.1609 195.381 52.9362 191.765 52.0952 190.335C51.7588 189.83 52.2634 188.569 53.2726 187.475C54.8705 185.793 54.9546 184.7 55.0387 165.946C55.0387 155.097 55.1228 145.678 55.0387 145.089C55.0387 143.827 54.0295 143.743 52.6839 145.089Z" fill="url(#paint31_linear_261_43335)"/>
<path d="M146.877 145.173C146.289 145.846 146.121 146.519 146.373 146.771C146.625 147.023 146.793 156.022 146.709 166.703C146.709 185.289 146.709 186.13 148.391 187.139C149.4 187.812 150.073 189.157 150.073 190.587C150.073 193.531 151.839 195.381 154.446 195.381C157.054 195.381 158.483 193.867 158.483 191.176C158.483 188.401 157.054 186.971 154.194 186.971C152.933 186.971 151.503 186.466 150.998 185.878C150.41 185.121 149.989 177.72 149.905 164.684C149.653 144.752 149.232 142.229 146.877 145.173Z" fill="url(#paint32_linear_261_43335)"/>
<path d="M153.439 145.678C152.262 147.949 152.346 149.21 153.944 150.892C155.037 152.154 155.29 154.088 155.205 160.648C155.037 168.553 155.121 169.058 157.14 170.992C158.401 172.085 159.326 173.767 159.326 174.777C159.326 175.702 159.747 176.963 160.336 177.552C161.597 178.813 165.466 178.813 166.727 177.552C169.25 175.029 166.727 169.815 163.111 170.319C159.326 170.824 158.485 168.974 158.485 159.975C158.485 155.181 158.822 151.649 159.326 151.649C159.747 151.649 160.504 150.892 161.008 149.883C161.765 148.537 161.681 147.696 160.588 146.098C158.906 143.575 154.785 143.323 153.439 145.678ZM158.485 148.201C158.485 150.219 156.299 151.144 155.626 149.378C154.953 147.78 155.71 146.603 157.308 146.603C157.981 146.603 158.485 147.36 158.485 148.201ZM164.709 174.02C165.382 175.87 165.382 176.038 164.036 176.038C162.522 176.038 161.597 174.693 162.27 173.515C163.027 172.254 164.12 172.506 164.709 174.02Z" fill="url(#paint33_linear_261_43335)"/>
<path d="M62.4398 163.171C62.608 168.637 63.1126 173.515 63.6172 174.104C64.0377 174.693 64.2059 175.534 63.8695 176.038C63.5331 176.543 63.9536 177.888 64.6264 178.982C67.4017 183.271 73.8774 180.159 72.1954 175.365C71.6067 173.599 70.6816 173.011 68.495 172.674L65.5515 172.254V164.18C65.5515 156.695 64.7105 153.331 62.6921 153.331C62.4398 153.331 62.2716 157.788 62.4398 163.171Z" fill="url(#paint34_linear_261_43335)"/>
<path d="M137.463 154.929C137.042 155.854 136.622 160.059 136.622 164.264C136.622 169.646 136.285 172.001 135.612 172.169C135.024 172.422 133.51 172.758 132.332 173.01C129.557 173.599 128.632 176.543 130.398 179.15C132.669 182.682 138.304 180.663 138.304 176.206C138.304 175.281 138.724 174.188 139.145 173.935C140.238 173.263 140.238 153.331 139.145 153.331C138.724 153.331 137.967 154.088 137.463 154.929Z" fill="url(#paint35_linear_261_43335)"/>
<path d="M77.0796 174.524C74.4725 177.131 77.0796 182.262 80.78 181.757C82.1256 181.589 83.7235 182.514 85.9942 184.701L89.3582 187.98L81.8733 195.129L74.3884 202.362V209.678C74.3884 215.229 74.052 217.331 73.1269 218.088C69.4265 221.2 73.7156 227.003 78.1729 224.985C80.6118 223.891 81.1164 219.854 79.0139 218.088C78.0888 217.331 77.7524 215.313 77.7524 210.603V204.212L85.3214 196.643C89.5264 192.522 92.8904 188.737 92.8904 188.317C92.8904 187.812 91.1243 185.626 88.9377 183.439C86.7511 181.252 84.5645 178.225 84.144 176.711C83.3871 174.524 82.7143 173.852 80.6959 173.683C79.2662 173.515 77.6683 173.936 77.0796 174.524ZM81.621 176.963C82.2938 178.141 80.1072 179.57 79.098 178.561C78.3411 177.804 79.098 176.038 80.2754 176.038C80.6959 176.038 81.2846 176.459 81.621 176.963ZM77.5001 220.275C78.1729 221.957 76.8273 223.303 75.3135 222.377C74.052 221.536 74.6407 218.929 76.0704 218.929C76.575 218.929 77.1637 219.518 77.5001 220.275Z" fill="url(#paint36_linear_261_43335)"/>
<path d="M119.131 174.272C118.542 174.608 117.953 175.954 117.785 177.131C117.617 178.477 115.851 180.916 112.991 183.607L108.534 187.812L116.356 195.717L124.177 203.539L124.261 210.183C124.345 214.219 124.093 217.163 123.504 217.668C122.915 218.088 122.327 219.518 121.99 220.779C121.57 222.63 121.906 223.386 123.504 224.48C127.541 227.003 131.998 223.302 129.812 219.265C129.223 218.172 128.466 217.247 128.045 217.247C127.709 217.247 127.373 213.967 127.373 209.846V202.53L120.224 195.381L113.076 188.317L116.524 184.784C118.458 182.85 120.476 181.42 121.149 181.673C122.915 182.345 125.438 180.495 125.859 178.225C126.532 174.692 122.327 172.253 119.131 174.272ZM122.831 176.963C123.084 177.468 122.915 178.309 122.411 178.813C121.654 179.57 121.233 179.486 120.645 178.561C119.888 177.299 120.308 176.038 121.486 176.038C121.906 176.038 122.495 176.458 122.831 176.963ZM127.373 220.611C127.373 221.536 126.784 222.293 126.111 222.293C125.438 222.293 124.85 221.536 124.85 220.611C124.85 219.686 125.438 218.929 126.111 218.929C126.784 218.929 127.373 219.686 127.373 220.611Z" fill="url(#paint37_linear_261_43335)"/>
<path d="M70.1834 184.532C69.5947 185.458 69.4265 186.719 69.5947 187.308C69.847 187.896 67.7445 190.672 65.0533 193.363C61.3529 196.979 60.0914 198.829 60.3437 200.091C60.5119 201.184 60.0914 202.278 59.0822 202.866C58.1571 203.455 57.5684 204.801 57.5684 206.314C57.5684 209.594 60.6801 211.276 63.8759 209.847C66.5671 208.585 66.8194 204.296 64.2964 202.95C63.3713 202.446 62.6144 201.689 62.6144 201.184C62.6144 200.764 64.801 198.241 67.4922 195.634C70.7721 192.27 72.8746 190.924 74.1361 191.092C75.3135 191.176 76.4909 190.504 77.416 189.158C78.6775 187.14 78.6775 186.803 77.416 184.869C75.6499 182.178 71.529 181.925 70.1834 184.532ZM74.8089 186.971C74.8089 187.56 74.2202 188.149 73.4633 188.317C72.2018 188.485 72.0336 187.981 72.6223 185.458C72.7905 184.617 74.8089 186.046 74.8089 186.971ZM63.2872 205.642C62.6985 207.24 60.0914 207.492 60.0914 205.978C60.0914 205.137 60.8483 204.632 61.8575 204.632C62.8667 204.632 63.4554 205.053 63.2872 205.642Z" fill="url(#paint38_linear_261_43335)"/>
<path d="M125.012 183.775C122.489 186.298 124.928 191.765 128.124 190.924C129.554 190.587 130.899 191.513 134.348 195.129C136.702 197.652 138.805 200.091 138.973 200.427C139.141 200.848 138.384 202.277 137.375 203.707C135.609 206.146 135.609 206.314 136.955 208.333C138.637 210.94 141.664 211.192 143.599 209.005C145.533 206.903 145.365 205.221 143.262 203.287C142.253 202.362 141.748 201.1 142.001 200.091C142.337 198.913 141.076 197.063 137.459 193.363C134.516 190.419 132.413 187.56 132.413 186.551C132.413 185.541 131.993 184.364 131.404 183.775C130.143 182.514 126.274 182.514 125.012 183.775ZM141.244 205.726C141.244 207.912 139.562 207.828 139.31 205.557C139.057 204.212 139.394 203.707 140.151 203.959C140.739 204.212 141.244 204.969 141.244 205.726Z" fill="url(#paint39_linear_261_43335)"/>
<path d="M92.0458 197.82C91.6253 198.745 91.2048 200.091 91.2048 200.848C91.2048 201.604 90.0274 203.202 88.5977 204.38C87.168 205.641 85.6542 207.407 85.2337 208.332C84.8132 209.342 84.0563 210.687 83.5517 211.444C81.9538 213.547 83.2994 217.163 85.9065 217.752C87.0839 218.088 88.6818 217.92 89.4387 217.499C91.2889 216.322 91.7094 211.528 90.0274 210.855C89.2705 210.603 88.6818 209.846 88.6818 209.258C88.6818 207.491 93.4755 203.875 95.2416 204.38C97.0077 204.8 99.6148 202.698 99.6148 200.763C99.6148 198.072 97.8487 196.222 95.4098 196.222C93.8119 196.222 92.6345 196.811 92.0458 197.82ZM88.2613 213.463C88.2613 214.304 87.8408 215.145 87.3362 215.313C86.2429 215.649 85.0655 213.294 85.8224 212.117C86.5793 210.855 88.2613 211.781 88.2613 213.463Z" fill="url(#paint40_linear_261_43335)"/>
<path d="M103.989 197.232C102.559 198.662 102.727 202.53 104.157 203.792C104.83 204.296 106.26 204.633 107.269 204.465C108.53 204.296 110.044 205.053 111.558 206.651L113.997 209.09L112.315 210.688C110.128 212.706 110.044 214.893 112.231 216.827C114.249 218.678 117.697 218.005 119.043 215.482C119.8 213.968 119.632 213.211 118.202 211.277C117.193 210.015 116.436 208.586 116.436 208.165C116.436 207.829 115.09 206.231 113.492 204.633C111.81 203.035 110.717 201.269 110.969 200.596C111.222 200.007 110.969 198.746 110.549 197.821C109.54 195.971 105.587 195.634 103.989 197.232ZM116.015 213.295C116.015 215.482 114.333 215.398 114.081 213.127C113.829 211.781 114.165 211.277 114.922 211.529C115.511 211.781 116.015 212.538 116.015 213.295Z" fill="url(#paint41_linear_261_43335)"/>
<defs>
<linearGradient id="paint0_linear_261_43335" x1="51.9314" y1="26.3398" x2="51.9314" y2="0.307722" gradientUnits="userSpaceOnUse">
<stop stop-color="#BDBDBD"/>
<stop offset="1" stop-opacity="0"/>
</linearGradient>
<linearGradient id="paint1_linear_261_43335" x1="150.083" y1="26.3398" x2="150.083" y2="0.344002" gradientUnits="userSpaceOnUse">
<stop stop-color="#BDBDBD"/>
<stop offset="1" stop-opacity="0"/>
</linearGradient>
<linearGradient id="paint2_linear_261_43335" x1="82.6722" y1="30.3135" x2="82.6722" y2="13.7878" gradientUnits="userSpaceOnUse">
<stop stop-color="#BDBDBD"/>
<stop offset="1" stop-opacity="0"/>
</linearGradient>
<linearGradient id="paint3_linear_261_43335" x1="119.548" y1="29.7041" x2="119.548" y2="13.751" gradientUnits="userSpaceOnUse">
<stop stop-color="#BDBDBD"/>
<stop offset="1" stop-opacity="0"/>
</linearGradient>
<linearGradient id="paint4_linear_261_43335" x1="31.9753" y1="51.5693" x2="31.9753" y2="22.2554" gradientUnits="userSpaceOnUse">
<stop stop-color="#BDBDBD"/>
<stop offset="1" stop-opacity="0"/>
</linearGradient>
<linearGradient id="paint5_linear_261_43335" x1="170.269" y1="51.5693" x2="170.269" y2="22.1342" gradientUnits="userSpaceOnUse">
<stop stop-color="#BDBDBD"/>
<stop offset="1" stop-opacity="0"/>
</linearGradient>
<linearGradient id="paint6_linear_261_43335" x1="68.5235" y1="49.8877" x2="68.5235" y2="26.3396" gradientUnits="userSpaceOnUse">
<stop stop-color="#BDBDBD"/>
<stop offset="1" stop-opacity="0"/>
</linearGradient>
<linearGradient id="paint7_linear_261_43335" x1="134.099" y1="50.3076" x2="134.099" y2="26.339" gradientUnits="userSpaceOnUse">
<stop stop-color="#BDBDBD"/>
<stop offset="1" stop-opacity="0"/>
</linearGradient>
<linearGradient id="paint8_linear_261_43335" x1="55.8639" y1="63.9531" x2="55.8639" y2="34.8113" gradientUnits="userSpaceOnUse">
<stop stop-color="#BDBDBD"/>
<stop offset="1" stop-opacity="0"/>
</linearGradient>
<linearGradient id="paint9_linear_261_43335" x1="146.516" y1="64.1846" x2="146.516" y2="34.7495" gradientUnits="userSpaceOnUse">
<stop stop-color="#BDBDBD"/>
<stop offset="1" stop-opacity="0"/>
</linearGradient>
<linearGradient id="paint10_linear_261_43335" x1="45.0747" y1="100.67" x2="45.0747" y2="42.4621" gradientUnits="userSpaceOnUse">
<stop stop-color="#BDBDBD"/>
<stop offset="1" stop-opacity="0"/>
</linearGradient>
<linearGradient id="paint11_linear_261_43335" x1="156.915" y1="100.817" x2="156.915" y2="42.3189" gradientUnits="userSpaceOnUse">
<stop stop-color="#BDBDBD"/>
<stop offset="1" stop-opacity="0"/>
</linearGradient>
<linearGradient id="paint12_linear_261_43335" x1="26.6502" y1="74.2617" x2="26.6502" y2="44.0008" gradientUnits="userSpaceOnUse">
<stop stop-color="#BDBDBD"/>
<stop offset="1" stop-opacity="0"/>
</linearGradient>
<linearGradient id="paint13_linear_261_43335" x1="175.768" y1="74.2422" x2="175.768" y2="44.1869" gradientUnits="userSpaceOnUse">
<stop stop-color="#BDBDBD"/>
<stop offset="1" stop-opacity="0"/>
</linearGradient>
<linearGradient id="paint14_linear_261_43335" x1="100.879" y1="155.266" x2="100.879" y2="45.6829" gradientUnits="userSpaceOnUse">
<stop stop-color="#BDBDBD"/>
<stop offset="1" stop-opacity="0"/>
</linearGradient>
<linearGradient id="paint15_linear_261_43335" x1="77.5399" y1="88.5742" x2="77.5399" y2="79.0709" gradientUnits="userSpaceOnUse">
<stop stop-color="#BDBDBD"/>
<stop offset="1" stop-opacity="0"/>
</linearGradient>
<linearGradient id="paint16_linear_261_43335" x1="124.009" y1="88.5742" x2="124.009" y2="79.3206" gradientUnits="userSpaceOnUse">
<stop stop-color="#BDBDBD"/>
<stop offset="1" stop-opacity="0"/>
</linearGradient>
<linearGradient id="paint17_linear_261_43335" x1="43.3644" y1="119.428" x2="43.3644" y2="57.4565" gradientUnits="userSpaceOnUse">
<stop stop-color="#BDBDBD"/>
<stop offset="1" stop-opacity="0"/>
</linearGradient>
<linearGradient id="paint18_linear_261_43335" x1="158.924" y1="119.46" x2="158.924" y2="58.2653" gradientUnits="userSpaceOnUse">
<stop stop-color="#BDBDBD"/>
<stop offset="1" stop-opacity="0"/>
</linearGradient>
<linearGradient id="paint19_linear_261_43335" x1="9.51125" y1="97.7656" x2="9.51125" y2="79.3414" gradientUnits="userSpaceOnUse">
<stop stop-color="#BDBDBD"/>
<stop offset="1" stop-opacity="0"/>
</linearGradient>
<linearGradient id="paint20_linear_261_43335" x1="192.951" y1="98.0576" x2="192.951" y2="79.4408" gradientUnits="userSpaceOnUse">
<stop stop-color="#BDBDBD"/>
<stop offset="1" stop-opacity="0"/>
</linearGradient>
<linearGradient id="paint21_linear_261_43335" x1="21.115" y1="123.793" x2="21.115" y2="104.64" gradientUnits="userSpaceOnUse">
<stop stop-color="#BDBDBD"/>
<stop offset="1" stop-opacity="0"/>
</linearGradient>
<linearGradient id="paint22_linear_261_43335" x1="181.262" y1="123.896" x2="181.262" y2="104.637" gradientUnits="userSpaceOnUse">
<stop stop-color="#BDBDBD"/>
<stop offset="1" stop-opacity="0"/>
</linearGradient>
<linearGradient id="paint23_linear_261_43335" x1="40.3813" y1="134.829" x2="40.3813" y2="109.29" gradientUnits="userSpaceOnUse">
<stop stop-color="#BDBDBD"/>
<stop offset="1" stop-opacity="0"/>
</linearGradient>
<linearGradient id="paint24_linear_261_43335" x1="161.736" y1="134.787" x2="161.736" y2="108.758" gradientUnits="userSpaceOnUse">
<stop stop-color="#BDBDBD"/>
<stop offset="1" stop-opacity="0"/>
</linearGradient>
<linearGradient id="paint25_linear_261_43335" x1="42.2742" y1="166.787" x2="42.2742" y2="116.138" gradientUnits="userSpaceOnUse">
<stop stop-color="#BDBDBD"/>
<stop offset="1" stop-opacity="0"/>
</linearGradient>
<linearGradient id="paint26_linear_261_43335" x1="160.01" y1="166.507" x2="160.01" y2="116.189" gradientUnits="userSpaceOnUse">
<stop stop-color="#BDBDBD"/>
<stop offset="1" stop-opacity="0"/>
</linearGradient>
<linearGradient id="paint27_linear_261_43335" x1="24.8171" y1="152.195" x2="24.8171" y2="119.691" gradientUnits="userSpaceOnUse">
<stop stop-color="#BDBDBD"/>
<stop offset="1" stop-opacity="0"/>
</linearGradient>
<linearGradient id="paint28_linear_261_43335" x1="177.184" y1="152.49" x2="177.184" y2="119.691" gradientUnits="userSpaceOnUse">
<stop stop-color="#BDBDBD"/>
<stop offset="1" stop-opacity="0"/>
</linearGradient>
<linearGradient id="paint29_linear_261_43335" x1="100.96" y1="180.924" x2="100.96" y2="140.716" gradientUnits="userSpaceOnUse">
<stop stop-color="#BDBDBD"/>
<stop offset="1" stop-opacity="0"/>
</linearGradient>
<linearGradient id="paint30_linear_261_43335" x1="41.7488" y1="178.71" x2="41.7488" y2="144.113" gradientUnits="userSpaceOnUse">
<stop stop-color="#BDBDBD"/>
<stop offset="1" stop-opacity="0"/>
</linearGradient>
<linearGradient id="paint31_linear_261_43335" x1="49.1704" y1="195.381" x2="49.1704" y2="144.111" gradientUnits="userSpaceOnUse">
<stop stop-color="#BDBDBD"/>
<stop offset="1" stop-opacity="0"/>
</linearGradient>
<linearGradient id="paint32_linear_261_43335" x1="152.371" y1="195.381" x2="152.371" y2="144.151" gradientUnits="userSpaceOnUse">
<stop stop-color="#BDBDBD"/>
<stop offset="1" stop-opacity="0"/>
</linearGradient>
<linearGradient id="paint33_linear_261_43335" x1="160.193" y1="178.498" x2="160.193" y2="144.05" gradientUnits="userSpaceOnUse">
<stop stop-color="#BDBDBD"/>
<stop offset="1" stop-opacity="0"/>
</linearGradient>
<linearGradient id="paint34_linear_261_43335" x1="67.4212" y1="181.016" x2="67.4212" y2="153.331" gradientUnits="userSpaceOnUse">
<stop stop-color="#BDBDBD"/>
<stop offset="1" stop-opacity="0"/>
</linearGradient>
<linearGradient id="paint35_linear_261_43335" x1="134.731" y1="180.952" x2="134.731" y2="153.331" gradientUnits="userSpaceOnUse">
<stop stop-color="#BDBDBD"/>
<stop offset="1" stop-opacity="0"/>
</linearGradient>
<linearGradient id="paint36_linear_261_43335" x1="82.3065" y1="225.401" x2="82.3065" y2="173.646" gradientUnits="userSpaceOnUse">
<stop stop-color="#BDBDBD"/>
<stop offset="1" stop-opacity="0"/>
</linearGradient>
<linearGradient id="paint37_linear_261_43335" x1="119.461" y1="225.305" x2="119.461" y2="173.541" gradientUnits="userSpaceOnUse">
<stop stop-color="#BDBDBD"/>
<stop offset="1" stop-opacity="0"/>
</linearGradient>
<linearGradient id="paint38_linear_261_43335" x1="67.9653" y1="210.359" x2="67.9653" y2="182.708" gradientUnits="userSpaceOnUse">
<stop stop-color="#BDBDBD"/>
<stop offset="1" stop-opacity="0"/>
</linearGradient>
<linearGradient id="paint39_linear_261_43335" x1="134.458" y1="210.483" x2="134.458" y2="182.829" gradientUnits="userSpaceOnUse">
<stop stop-color="#BDBDBD"/>
<stop offset="1" stop-opacity="0"/>
</linearGradient>
<linearGradient id="paint40_linear_261_43335" x1="91.2388" y1="217.931" x2="91.2388" y2="196.222" gradientUnits="userSpaceOnUse">
<stop stop-color="#BDBDBD"/>
<stop offset="1" stop-opacity="0"/>
</linearGradient>
<linearGradient id="paint41_linear_261_43335" x1="111.242" y1="217.881" x2="111.242" y2="196.21" gradientUnits="userSpaceOnUse">
<stop stop-color="#BDBDBD"/>
<stop offset="1" stop-opacity="0"/>
</linearGradient>
</defs>
</svg>
